<svg width="375" height="1239" viewBox="0 0 375 1239" fill="none" xmlns="http://www.w3.org/2000/svg">
<g clip-path="url(#clip0_1008_20588)">
<rect width="375" height="1239" fill="#CEEFF8"/>
<path d="M97.2534 674.959C94.3952 674.959 92.0781 677.28 92.0781 680.143H102.429C102.429 677.28 100.112 674.959 97.2534 674.959Z" fill="white"/>
<path d="M107.946 671.869C103.497 671.869 99.8906 675.574 99.8906 680.143H116.002C116.002 675.574 112.396 671.869 107.946 671.869Z" fill="white"/>
<ellipse cx="101.257" cy="674.96" rx="5.17525" ry="5.18339" fill="white"/>
<rect x="-73.4834" y="727.521" width="521.966" height="1195.08" fill="#ECBE58"/>
<rect x="-73.4834" y="693.423" width="521.966" height="26.3702" fill="#AED9E0"/>
<rect x="-73.4834" y="719.793" width="521.695" height="6.90515" fill="#E9F2F6"/>
<rect x="-73.4834" y="717.999" width="521.966" height="9.51501" fill="#F3DA95"/>
<path d="M143.925 885.428C143.925 900.149 91.377 912.085 26.555 912.085C-38.2664 912.085 -90.8135 900.149 -90.8135 885.428C-90.8135 870.706 -38.2664 858.771 26.555 858.771C91.377 858.771 143.925 870.706 143.925 885.428Z" fill="#C18123"/>
<path d="M-80.6191 659.473L50.9857 653.295L165.791 720.917L164.126 734.825L148.675 736.251L134.889 741.243L96.6222 737.615L69.5242 725.554L22.2242 722.939L-16.3029 701.369L-58.5898 690.442L-73.5645 672.312L-80.6191 659.473Z" fill="#CECCC2"/>
<path d="M-16.2988 701.369C-16.2988 701.369 34.5882 722.225 69.529 725.554C69.529 725.554 13.1961 751.701 -16.2988 701.369Z" fill="#EBE9D3"/>
<path d="M168.463 725.554C168.463 725.554 171.494 742.548 157.894 746.44C157.894 746.44 146.18 748.075 148.139 737.601C148.139 737.601 134.949 752.71 109.456 749.125C109.456 749.125 78.2599 744.688 69.5234 725.553C69.5234 725.553 131.561 751.818 168.463 725.554Z" fill="#FF4756"/>
<path d="M-12.0745 878.005C-10.3198 877.327 24.3464 754.804 42.559 693.202C42.5696 693.163 42.5822 693.123 42.5927 693.082C43.3781 690.43 39.2474 689.305 38.469 691.946C20.2578 753.545 2.04523 815.147 -16.1652 876.747C-16.1765 876.787 -17.072 875.73 -16.1997 876.868C-15.3273 878.005 -13.8292 878.683 -12.0745 878.005Z" fill="#726128"/>
<path d="M36.2176 708.006C15.1753 694.453 -5.86702 680.9 -26.9093 667.348C-28.0727 666.597 -29.144 668.451 -27.9898 669.194C-6.94678 682.747 14.0962 696.301 35.1385 709.853C36.3012 710.603 37.3725 708.75 36.2176 708.006Z" fill="#726128"/>
<path d="M-8.41703 667.006C6.0294 681.232 20.4758 695.46 34.9223 709.685C35.9044 710.654 37.419 709.143 36.4348 708.174C21.9876 693.947 7.54121 679.721 -6.90522 665.494C-7.88874 664.526 -9.40265 666.036 -8.41703 667.006Z" fill="#726128"/>
<path d="M28.9177 686.322C30.8271 693.952 32.7344 701.584 34.6417 709.214C34.9761 710.552 37.0394 709.984 36.7057 708.645C34.797 701.015 32.889 693.384 30.9795 685.753C30.6451 684.415 28.5819 684.983 28.9177 686.322Z" fill="#726128"/>
<path d="M38.6908 708.174C45.4068 704.252 52.1193 700.33 58.836 696.409C60.0247 695.713 58.9505 693.864 57.7542 694.562C51.0403 698.484 44.3271 702.406 37.6118 706.328C36.421 707.023 37.4966 708.873 38.6908 708.174Z" fill="#726128"/>
<path d="M38.0757 709.961C59.2304 706.907 80.3844 703.85 101.54 700.795C102.901 700.599 102.319 698.538 100.97 698.732C79.8153 701.787 58.6607 704.843 37.5059 707.897C36.1459 708.095 36.7268 710.155 38.0757 709.961Z" fill="#726128"/>
<path d="M37.7948 711.054C64.0609 711.57 90.325 712.084 116.589 712.599C117.97 712.625 117.967 710.486 116.589 710.459C90.325 709.944 64.0609 709.431 37.7948 708.915C36.415 708.889 36.4171 711.028 37.7948 711.054Z" fill="#726128"/>
<path d="M56.6913 643.788L-77.189 651.096C-77.189 651.096 -83.6078 661.231 -75.0505 665.181C-75.0505 665.181 -65.6025 667.172 -63.105 658.763L56.6913 643.788Z" fill="#FF4756"/>
<path d="M56.6916 643.788L2.97128 667.172C2.97128 667.172 -44.0878 685.859 -63.1055 658.763L56.6916 643.788Z" fill="#EBE9D3"/>
<path d="M95.196 692.753C95.196 692.753 38.4837 711.435 2.06836 667.51L56.6914 643.788L95.196 692.753Z" fill="#FF4756"/>
<path d="M162.232 718.899L56.6992 643.788L95.2045 692.753C95.2045 692.753 119.686 729.833 162.232 718.899Z" fill="#EBE9D3"/>
<path d="M148.812 734.546C153.287 733.93 162.988 728.495 168.576 724.365C168.576 724.365 172.498 747.125 155.184 746.496C155.184 746.496 146.895 747.006 147.772 737.997L148.812 734.546Z" fill="#EBE9D3"/>
<path d="M56.5205 644.023L172.209 722.226C172.209 722.226 174.661 732.1 165.257 731.496C165.257 731.496 160.416 727.48 162.226 718.898L56.5205 644.023Z" fill="#FF4756"/>
<path d="M291.004 683.48C283.004 683.438 273.204 694.391 231.16 700.345L354.251 701.297C308.996 693.842 299.005 683.521 291.004 683.48Z" fill="#465669"/>
<path d="M340.357 694.424C336.263 694.403 331.249 700.007 309.736 703.054L372.718 703.541C349.562 699.726 344.45 694.446 340.357 694.424Z" fill="#465669"/>
<path d="M261.108 706.316C258.122 706.3 254.464 710.311 238.771 712.492L284.715 712.84C267.824 710.11 264.095 706.331 261.108 706.316Z" fill="#465669"/>
<path d="M123.586 752.187C123.586 752.187 116.101 749.572 105.341 745.135C102.197 743.838 98.7714 742.385 95.17 740.796C79.2553 733.774 66.3286 728.554 72.7442 712.305C76.7828 702.075 87.6675 703.304 97.0129 706.663C102.511 708.639 107.478 711.352 110.206 712.904L123.586 752.187Z" fill="#EBAE86"/>
<path d="M105.34 745.135C105.632 725.777 99.6919 711.908 97.0117 706.663C102.51 708.639 108.746 711.915 111.474 713.467L123.585 752.187C123.585 752.187 116.1 749.572 105.34 745.135Z" fill="#E28355"/>
<path fill-rule="evenodd" clip-rule="evenodd" d="M403.868 1217.12L476.992 1076.71C452.243 1043.71 337.465 891.122 327.358 878.781C322.992 837.086 309.485 807.52 295.796 780.046C288.186 764.765 290.906 749.254 292.924 737.743C294.325 729.759 295.387 723.699 292.429 720.979C279.03 708.655 257.112 726.466 253.844 752.025C253.375 755.697 253.918 763.302 254.386 767.631C255.711 779.844 256.237 804.942 249.647 820.813C249.409 821.379 249.16 821.945 248.894 822.505C246.986 826.53 242.981 831.711 238.262 837.815C228.234 850.787 214.986 867.924 211.808 886.971C235.155 902.709 248.898 910.575 274.59 922.879C274.59 922.879 280.879 907.821 283.523 905.014C286.167 902.206 279.905 932.303 279.869 937.901C279.832 943.5 313.436 1028.25 323.313 1045.9C333.189 1063.56 403.868 1217.12 403.868 1217.12Z" fill="#EBAE86"/>
<path d="M272.351 943.631C316.318 1081.14 344.539 1099.01 395.792 1232.62L403.868 1217.12C403.868 1217.12 333.189 1063.56 323.313 1045.9C313.436 1028.25 279.832 943.5 279.869 937.901C279.905 932.303 286.167 902.206 283.523 905.014C280.879 907.821 274.59 922.879 274.59 922.879C248.898 910.575 235.155 902.709 211.808 886.971C210.47 894.992 210.918 903.351 214.143 911.881C214.757 913.503 229.536 917.833 242.185 927.746C254.521 937.414 263.099 938.765 272.351 943.631Z" fill="#E28355"/>
<path d="M290.72 757.151C275.823 759.921 279.55 737.193 280.825 728.406C280.974 732.76 281.011 737.079 281.216 741.413C281.321 748.069 282.43 756.66 290.72 757.151Z" fill="#E28355"/>
<path d="M237.838 922.288L138.259 922.348C123.536 922.357 111.593 910.441 111.584 895.733L111.439 667.536C111.43 652.827 123.358 640.897 138.081 640.887L237.66 640.828C252.383 640.819 264.326 652.735 264.335 667.443L264.48 895.641C264.489 910.349 252.561 922.279 237.838 922.288Z" fill="#193238"/>
<path d="M237.661 914.498L138.427 914.557C128.321 914.563 120.123 906.384 120.117 896.288L119.973 668.659C119.966 658.563 128.154 650.373 138.26 650.367L237.494 650.308C247.6 650.301 255.798 658.481 255.804 668.577L255.949 896.206C255.955 906.302 247.767 914.491 237.661 914.498Z" fill="#CCE6EB"/>
<mask id="mask0_1008_20588" style="mask-type:luminance" maskUnits="userSpaceOnUse" x="119" y="650" width="137" height="265">
<path d="M237.661 914.498L138.427 914.557C128.321 914.563 120.123 906.384 120.117 896.288L119.973 668.659C119.966 658.563 128.154 650.373 138.26 650.367L237.494 650.308C247.6 650.301 255.798 658.481 255.804 668.577L255.949 896.206C255.955 906.302 247.767 914.491 237.661 914.498Z" fill="white"/>
</mask>
<g mask="url(#mask0_1008_20588)">
<path d="M117.286 740.298C120.092 733.962 122.799 731.838 124.111 729.115C126.069 725.053 128.597 717.925 130.996 714.106C135.867 706.353 144.928 711.371 149.115 708.385C156.375 703.208 150.189 700.336 162.009 695.116C170.591 691.326 173.752 698.418 177.318 697.938C180.884 697.458 185.676 689.911 194.65 691.411C200.698 692.421 202.131 698.422 205.9 701.18C209.669 703.938 215.4 698.001 221.646 701.901C231.296 707.927 226.158 713.422 229.441 715.151C234.001 717.551 236.927 712.522 242.661 719.593C249.229 727.694 243.689 730.407 249.69 737.203C256.87 745.335 250.045 750.746 249.772 756.176C249.392 763.746 257.267 764.053 252.945 780.686C251.865 784.844 242.204 785.69 239.524 789.049C236.165 793.262 243.234 803.205 236.136 808.68C228.623 814.476 221.431 809.531 218.352 815.172C211.501 827.725 206.281 820.436 192.896 825.715C178.429 831.419 183.872 818.891 167.293 821.806C159.087 822.225 154.865 816.385 154.114 808.346C149.932 803.14 142.653 806.914 136.785 803.986C131.543 801.788 125.686 793.285 126.284 787.637C127.809 781.093 124.06 784.393 120.541 775.906C117.021 767.418 125.388 763.907 124.753 762.079C122.93 756.835 114.829 745.847 117.286 740.298Z" fill="#3D3D3D"/>
<path d="M197.471 827.285C197.471 827.285 234.983 830.167 247.743 862.498C254.504 879.626 253.552 904.067 251.977 918.227C250.402 932.388 228.87 942.332 228.87 942.332L152.682 942.324C152.682 942.324 126.751 918.606 123.832 907.316C120.913 896.026 119.724 875.998 129.437 858.378C143.699 832.503 170.561 828.394 177.865 827.715C188.371 826.74 197.471 827.285 197.471 827.285Z" fill="#FF5D84"/>
<path d="M199.256 808.99H177.865V838.842H199.256V808.99Z" fill="#EBAE86"/>
<path d="M188.997 813.948C171.611 814.225 157.266 798.677 156.956 779.221L156.577 755.496C156.267 736.041 170.11 720.045 187.495 719.768C204.881 719.492 219.227 735.04 219.536 754.495L219.915 778.22C220.225 797.676 206.382 813.671 188.997 813.948Z" fill="#EBAE86"/>
<path d="M180.791 790.934C179.914 790.907 179.258 791.601 179.45 792.338C180.262 795.458 183.954 797.892 188.459 798.03C192.963 798.169 196.798 795.967 197.801 792.903C198.039 792.179 197.426 791.446 196.549 791.419L180.791 790.934Z" fill="#F6F6F6"/>
<path d="M160.766 768.011C162.783 774.399 160.767 780.728 156.262 782.147C151.758 783.567 146.472 779.539 144.455 773.152C142.437 766.764 144.454 760.435 148.958 759.016C153.462 757.596 158.749 761.624 160.766 768.011Z" fill="#EBAE86"/>
<path d="M214.49 768.011C212.473 774.399 214.489 780.728 218.993 782.147C223.497 783.567 228.784 779.539 230.801 773.152C232.818 766.764 230.802 760.435 226.297 759.016C221.793 757.596 216.507 761.624 214.49 768.011Z" fill="#EBAE86"/>
<path d="M177.803 767.423C177.971 769.439 176.473 771.21 174.455 771.378C172.437 771.547 170.664 770.05 170.495 768.034C170.326 766.018 171.825 764.247 173.843 764.078C175.861 763.91 177.634 765.407 177.803 767.423Z" fill="#193238"/>
<path d="M173.268 764.078L168.225 764.797L169.915 767.518L173.268 764.078Z" fill="#193238"/>
<path d="M208.81 767.423C208.979 769.439 207.481 771.21 205.463 771.379C203.445 771.547 201.672 770.05 201.503 768.034C201.334 766.019 202.833 764.248 204.851 764.079C206.869 763.91 208.642 765.407 208.81 767.423Z" fill="#193238"/>
<path d="M206.203 764.078L210.606 764.065L209.578 767.423L206.203 764.078Z" fill="#193238"/>
<path d="M156.455 761.129C156.455 761.129 171.869 754.607 177.241 740.37C186.888 750.099 219.422 760.615 219.422 760.615C219.422 760.615 224.888 717.717 187.961 719.037C153.571 720.267 147.785 749.379 156.455 761.129Z" fill="#3D3D3D"/>
<path d="M188.248 845.214C197.955 845.214 205.823 840.878 205.823 835.529C205.823 830.18 197.955 825.844 188.248 825.844C178.542 825.844 170.674 830.18 170.674 835.529C170.674 840.878 178.542 845.214 188.248 845.214Z" fill="#EBAE86"/>
<path d="M156.454 761.129C152.251 746.542 157.92 729.106 172.816 723.305C184.517 718.482 199.131 718.689 209.267 726.908C219.048 734.683 223.36 748.753 219.421 760.615C220.722 738.194 203.662 721.702 181.169 726.485C163.369 729.218 155.984 744.425 156.454 761.129Z" fill="#A3C1D6"/>
<path d="M185.458 772.138C185.688 775.659 185.304 779.195 184.472 782.617C187.005 783.759 189.948 783.836 192.73 783.708C189.524 785.432 185.296 785.657 182.227 783.476C183.288 779.696 183.993 775.803 185.458 772.138Z" fill="#DC6433"/>
<path d="M211.743 762.195C211.489 762.195 211.235 762.105 211.031 761.923C206.794 758.128 201.921 759.705 201.873 759.722C201.314 759.909 200.709 759.609 200.521 759.051C200.333 758.493 200.633 757.888 201.192 757.701C201.439 757.618 207.302 755.72 212.456 760.335C212.895 760.728 212.932 761.402 212.538 761.841C212.327 762.076 212.036 762.195 211.743 762.195Z" fill="#193238"/>
<path d="M165.378 762.195C165.093 762.195 164.81 762.083 164.6 761.86C164.196 761.431 164.217 760.756 164.647 760.353C170.427 754.925 176.688 757.62 176.952 757.738C177.49 757.977 177.732 758.607 177.492 759.145C177.253 759.682 176.624 759.924 176.086 759.687C175.862 759.589 170.824 757.479 166.108 761.906C165.902 762.1 165.64 762.195 165.378 762.195Z" fill="#193238"/>
<path d="M214.391 784.091C214.554 785.738 213.212 787.903 211.395 788.925C209.577 789.948 207.971 789.442 207.808 787.795C207.645 786.148 208.987 783.983 210.805 782.961C212.622 781.938 214.228 782.444 214.391 784.091Z" fill="#E28355"/>
</g>
<rect x="126.311" y="877.158" width="123.384" height="31.1146" rx="15.5573" fill="#AED9E0"/>
<path d="M156.781 892.715C156.781 898.416 152.155 903.037 146.449 903.037C140.743 903.037 136.117 898.416 136.117 892.715C136.117 887.015 140.743 882.394 146.449 882.394C152.155 882.394 156.781 887.015 156.781 892.715Z" fill="#CD7829"/>
<path d="M153.162 888.438L140.735 888.396C140.462 888.396 140.239 888.615 140.239 888.89L140.213 896.493C140.211 896.766 140.433 896.989 140.706 896.99L153.133 897.032C153.406 897.033 153.628 896.812 153.628 896.539L153.654 888.934C153.656 888.661 153.435 888.438 153.162 888.438ZM146.921 896.583C144.783 896.577 143.056 894.837 143.063 892.699C143.071 890.562 144.809 888.835 146.947 888.843C149.084 888.849 150.812 890.588 150.804 892.727C150.796 894.864 149.058 896.591 146.921 896.583Z" fill="#F6F6F6"/>
<path d="M149.773 888.714L144.143 888.699L144.296 887.812C144.42 887.249 144.92 886.848 145.496 886.85L148.419 886.86C148.996 886.862 149.493 887.266 149.613 887.83L149.773 888.714Z" fill="#F6F6F6"/>
<path d="M143.158 889.396L141.564 889.39L141.57 887.852C141.57 887.623 141.757 887.437 141.987 887.438L142.749 887.44C142.979 887.441 143.164 887.628 143.164 887.858L143.158 889.396Z" fill="#F6F6F6"/>
<path d="M149.612 892.722C149.607 894.2 148.405 895.393 146.928 895.388C145.45 895.383 144.257 894.182 144.262 892.704C144.267 891.226 145.468 890.032 146.946 890.037C148.423 890.042 149.617 891.244 149.612 892.722Z" fill="#F6F6F6"/>
<path d="M197.787 892.715C197.787 898.416 193.161 903.037 187.455 903.037C181.749 903.037 177.123 898.416 177.123 892.715C177.123 887.015 181.749 882.394 187.455 882.394C193.161 882.394 197.787 887.015 197.787 892.715Z" fill="#F66034"/>
<path d="M187.391 896.078C187.011 895.727 186.578 895.479 186.133 895.333L186.133 895.333C186.13 895.332 186.125 895.33 186.121 895.329C186.117 895.327 186.112 895.326 186.107 895.325C185.591 895.181 184.664 894.342 185.493 893.446L188.533 890.162C189.362 889.266 190.27 890.126 190.453 890.63C190.455 890.634 190.456 890.639 190.458 890.644C190.46 890.647 190.462 890.652 190.463 890.656L190.463 890.655C190.643 891.088 190.923 891.501 191.303 891.852L195.014 887.841C192.909 885.892 188.75 885.64 186.018 888.592L183.316 891.511C180.583 894.463 181.574 898.139 183.678 900.088L187.391 896.078Z" fill="#F6F6F6"/>
<path d="M238.793 892.715C238.793 898.416 234.167 903.037 228.461 903.037C222.755 903.037 218.129 898.416 218.129 892.715C218.129 887.015 222.755 882.394 228.461 882.394C234.167 882.394 238.793 887.015 238.793 892.715Z" fill="#2988CD"/>
<path d="M231.295 889.867C231.295 890.59 231.298 891.313 231.294 892.036C231.287 893.258 230.613 894.269 229.517 894.707C228.183 895.242 226.641 894.667 225.983 893.388C225.787 893.008 225.671 892.604 225.67 892.176C225.667 890.615 225.651 889.054 225.675 887.494C225.696 886.114 226.84 884.938 228.213 884.828C229.677 884.712 230.908 885.612 231.23 887.047C231.28 887.269 231.289 887.503 231.292 887.731C231.3 888.443 231.295 889.155 231.295 889.867Z" fill="#F6F6F6"/>
<path d="M228.917 898.08C228.992 898.08 229.05 898.08 229.109 898.08C229.689 898.08 230.27 898.079 230.85 898.08C231.143 898.081 231.358 898.276 231.352 898.53C231.346 898.787 231.149 898.961 230.851 898.961C229.269 898.963 227.686 898.963 226.104 898.961C225.808 898.961 225.609 898.784 225.605 898.528C225.601 898.273 225.816 898.081 226.11 898.081C226.745 898.079 227.379 898.08 228.027 898.08C228.027 897.572 228.027 897.071 228.027 896.553C227.917 896.535 227.8 896.516 227.683 896.497C225.944 896.213 224.423 894.715 224.136 892.967C224.065 892.533 224.069 892.085 224.057 891.642C224.044 891.188 224.049 890.733 224.056 890.279C224.06 889.945 224.329 889.738 224.627 889.828C224.804 889.882 224.92 890.037 224.927 890.253C224.934 890.483 224.926 890.713 224.931 890.943C224.943 891.506 224.916 892.075 224.983 892.631C225.127 893.831 225.777 894.719 226.834 895.28C228.654 896.245 230.881 895.459 231.724 893.576C231.942 893.089 232.026 892.572 232.027 892.041C232.029 891.456 232.024 890.869 232.03 890.283C232.033 889.936 232.307 889.727 232.607 889.833C232.794 889.898 232.9 890.045 232.898 890.232C232.886 891.107 232.909 891.986 232.827 892.855C232.742 893.751 232.314 894.521 231.696 895.176C230.982 895.932 230.104 896.377 229.078 896.523C228.942 896.543 228.912 896.593 228.914 896.72C228.921 897.168 228.917 897.615 228.917 898.08Z" fill="#F6F6F6"/>
<path d="M133.465 663.115V657.303C133.465 656.902 133.79 656.576 134.191 656.576H135.822C136.049 656.576 136.241 656.743 136.274 656.967C136.341 657.432 136.982 657.504 137.15 657.066L137.215 656.899C137.289 656.704 137.476 656.576 137.684 656.576H139.1C139.644 656.576 139.995 657.154 139.744 657.637L138.512 660.013C138.414 660.201 138.404 660.423 138.483 660.62L139.382 662.843C139.575 663.32 139.223 663.841 138.708 663.841H136.87C136.674 663.841 136.511 663.691 136.496 663.495C136.47 663.154 136.037 663.024 135.827 663.295L135.564 663.632C135.462 663.764 135.304 663.841 135.137 663.841H134.191C133.79 663.841 133.465 663.516 133.465 663.115Z" fill="#FF5D84"/>
<path d="M146.922 663.115V657.303C146.922 656.902 147.247 656.576 147.648 656.576H149.305C149.521 656.576 149.709 656.726 149.758 656.936C149.847 657.318 150.339 657.426 150.58 657.117L150.807 656.825C150.928 656.668 151.116 656.576 151.314 656.576H152.557C153.101 656.576 153.452 657.154 153.201 657.637L151.969 660.013C151.871 660.201 151.861 660.423 151.94 660.62L152.839 662.843C153.032 663.32 152.68 663.841 152.165 663.841H150.375C150.152 663.841 149.967 663.67 149.95 663.448C149.921 663.085 149.482 662.922 149.224 663.177L148.765 663.631C148.629 663.766 148.446 663.841 148.254 663.841H147.648C147.247 663.841 146.922 663.516 146.922 663.115Z" fill="#ECBE58"/>
<path d="M146.717 659.522C146.717 661.528 145.095 663.841 142.983 663.841C140.87 663.841 139.377 662.706 139.377 660.7C139.377 658.694 140.87 656.576 142.983 656.576C145.095 656.576 146.717 657.515 146.717 659.522Z" fill="#48A2AF"/>
<path d="M157.93 659.522C157.93 661.528 159.507 663.841 161.561 663.841C163.615 663.841 165.066 662.706 165.066 660.7C165.066 658.694 163.615 656.576 161.561 656.576C159.507 656.576 157.93 657.515 157.93 659.522Z" fill="#9AC0C6"/>
<path fill-rule="evenodd" clip-rule="evenodd" d="M155.79 656.576C154.833 656.576 154.057 657.352 154.057 658.309V662.108C154.057 663.065 154.833 663.841 155.79 663.841C156.747 663.841 157.523 663.065 157.523 662.108V658.309C157.523 657.352 156.747 656.576 155.79 656.576ZM156.095 657.888C156.095 658.055 155.959 658.19 155.79 658.19C155.621 658.19 155.484 658.055 155.484 657.888C155.484 657.721 155.621 657.585 155.79 657.585C155.959 657.585 156.095 657.721 156.095 657.888ZM157.115 657.888C157.115 658.055 156.978 658.19 156.809 658.19C156.64 658.19 156.503 658.055 156.503 657.888C156.503 657.721 156.64 657.585 156.809 657.585C156.978 657.585 157.115 657.721 157.115 657.888Z" fill="#E28355"/>
<rect x="232.904" y="661.729" width="1.8162" height="2.10322" rx="0.908101" fill="#9AC0C6"/>
<path fill-rule="evenodd" clip-rule="evenodd" d="M233.337 662.6C233.428 662.6 233.502 662.527 233.502 662.437C233.502 662.347 233.428 662.274 233.337 662.274C233.246 662.274 233.172 662.347 233.172 662.437C233.172 662.527 233.246 662.6 233.337 662.6ZM233.887 662.6C233.978 662.6 234.052 662.527 234.052 662.437C234.052 662.347 233.978 662.274 233.887 662.274C233.796 662.274 233.722 662.347 233.722 662.437C233.722 662.527 233.796 662.6 233.887 662.6Z" fill="#050505"/>
<rect x="235.447" y="659.913" width="1.8162" height="3.91942" rx="0.908101" fill="#48A2AF"/>
<path fill-rule="evenodd" clip-rule="evenodd" d="M235.987 660.8C236.078 660.8 236.152 660.727 236.152 660.636C236.152 660.546 236.078 660.473 235.987 660.473C235.896 660.473 235.822 660.546 235.822 660.636C235.822 660.727 235.896 660.8 235.987 660.8ZM236.537 660.8C236.628 660.8 236.702 660.727 236.702 660.637C236.702 660.546 236.628 660.473 236.537 660.473C236.446 660.473 236.372 660.546 236.372 660.637C236.372 660.727 236.446 660.8 236.537 660.8Z" fill="#050505"/>
<rect x="237.99" y="658.097" width="1.8162" height="5.73562" rx="0.908101" fill="#ECBE58"/>
<path fill-rule="evenodd" clip-rule="evenodd" d="M239.284 659.007C239.375 659.007 239.449 658.933 239.449 658.843C239.449 658.753 239.375 658.68 239.284 658.68C239.192 658.68 239.119 658.753 239.119 658.843C239.119 658.933 239.192 659.007 239.284 659.007ZM238.733 659.007C238.825 659.007 238.898 658.934 238.898 658.843C238.898 658.753 238.825 658.68 238.733 658.68C238.642 658.68 238.568 658.753 238.568 658.843C238.568 658.934 238.642 659.007 238.733 659.007Z" fill="#050505"/>
<rect x="240.531" y="656.644" width="1.8162" height="7.18859" rx="0.908101" fill="#E28355"/>
<path fill-rule="evenodd" clip-rule="evenodd" d="M242.016 657.515C242.107 657.515 242.181 657.442 242.181 657.352C242.181 657.261 242.107 657.188 242.016 657.188C241.925 657.188 241.851 657.261 241.851 657.352C241.851 657.442 241.925 657.515 242.016 657.515ZM241.466 657.515C241.557 657.515 241.631 657.442 241.631 657.352C241.631 657.261 241.557 657.188 241.466 657.188C241.375 657.188 241.301 657.261 241.301 657.352C241.301 657.442 241.375 657.515 241.466 657.515Z" fill="#050505"/>
<path d="M106.162 754.139C100.564 751.894 89.9392 753.322 85.8701 764.747C80.0863 780.988 88.8675 782.213 98.8586 788.701C108.85 795.189 119.84 798.183 127.334 787.703C134.827 777.223 129.332 766.743 122.338 762.75C115.344 758.758 110.217 755.765 106.162 754.139Z" fill="#EBAE86"/>
<path d="M119.502 766.488C111.592 763.208 106.369 762.604 101.823 770.877C97.3062 778.447 103.32 783.594 109.011 787.948C101.53 784.55 95.2588 778.408 100.117 769.956C104.995 761.165 111.76 761.102 119.502 766.488Z" fill="#E28355"/>
<path d="M87.9107 807.751C81.6629 815.163 83.3709 827.627 97.8581 835.113C112.345 842.599 125.334 844.595 130.329 831.62C135.325 818.644 127.332 811.658 116.342 805.17C105.352 798.682 95.9036 798.269 87.9107 807.751Z" fill="#EBAE86"/>
<path d="M123.835 818.644C119.201 816.165 113.541 812.15 108.149 813.901C97.6387 822.053 102.664 834.607 114.961 837.085C101.021 836.746 95.3586 821.467 106.561 812.742C112.454 809.562 119.438 814.977 123.835 818.644Z" fill="#E28355"/>
<path d="M90.3612 861.064C87.7837 869.524 92.9274 879.392 106.416 881.887C119.904 884.382 130.401 885.199 132.324 870.545C133.822 859.13 120.456 854.372 113 852.908C106.173 851.568 93.858 849.585 90.3612 861.064Z" fill="#EBAE86"/>
<path d="M124.034 863.042C120.64 862.73 111.127 861.136 108.6 863.09C106.526 865.618 106.171 869.361 107.442 872.329C109.567 877.066 115.685 879.301 120.653 878.864C115.315 880.503 108.333 878.294 105.777 873.09C104.041 869.471 104.548 864.736 107.335 861.775C110.733 859.001 120.154 861.727 124.034 863.042Z" fill="#E28355"/>
<path d="M310.502 797.855L382.699 779.882L397.812 797.855L343.69 811.947L310.502 797.855Z" fill="#C18123"/>
<path d="M375.89 721.375C357.332 744.91 338.776 768.444 320.219 791.979C318.343 794.359 316.467 796.738 314.59 799.118C312.796 801.393 308.965 798.953 310.781 796.65C329.338 773.116 347.895 749.581 366.453 726.046C368.328 723.666 370.205 721.286 372.081 718.908C373.875 716.632 377.707 719.071 375.89 721.375Z" fill="#F1AC6F"/>
<path d="M353.053 742.805C357.351 756.5 361.649 770.195 365.946 783.89C366.825 786.689 362.389 787.663 361.52 784.895C357.222 771.2 352.925 757.505 348.627 743.811C347.749 741.011 352.184 740.037 353.053 742.805Z" fill="#AD754B"/>
<path d="M353.103 742.972C353.155 743.168 353.043 742.778 353.103 742.972C351.769 741.048 347.785 742.121 349.715 747.27C349.629 746.996 348.76 744.206 348.666 743.931C347.625 740.837 352.241 739.703 353.103 742.972Z" fill="#F1AC6F"/>
<path d="M315.657 763.877C315.657 763.877 316.313 762.772 318.552 763.479L322.203 764.758L319.993 768.607L316.26 767.236C316.26 767.236 314.354 765.862 315.657 763.877Z" fill="#F1AC6F"/>
<path d="M374.998 718.24C376.259 718.783 376.777 720.149 376.053 721.145C359.065 744.495 340.309 766.503 322.437 789.182C319.792 792.537 317.148 795.893 314.504 799.248C313.65 800.331 312.233 800.23 311.238 799.583L374.998 718.24Z" fill="#AD754B"/>
<path d="M404.257 733.127C393.424 731.187 382.59 729.247 371.757 727.307C368.988 726.812 369.162 722.272 371.964 722.775C382.798 724.714 393.631 726.654 404.466 728.594C407.233 729.09 407.061 733.628 404.257 733.127Z" fill="#F1AC6F"/>
<path d="M406.293 732.028C406.173 733.103 405.419 734.009 404.079 733.742C393.284 731.593 382.488 729.444 371.692 727.295C370.448 727.047 369.819 725.99 369.757 724.953L406.293 732.028Z" fill="#AD754B"/>
<path d="M350.468 803.123C340.121 799.374 329.773 795.624 319.425 791.876C318.815 791.654 318.455 791.424 317.872 791.114C316.269 790.263 318.339 786.697 320.398 787.443C330.747 791.193 341.094 794.943 351.441 798.691C354.085 799.65 352.548 803.917 350.468 803.123Z" fill="#F1AC6F"/>
<path d="M352.43 802.3C351.876 803.294 351.459 804.189 350.182 803.699C339.908 799.75 329.601 795.819 319.325 791.87C318.783 791.661 317.687 791.381 317.869 791.115C318.139 790.718 318.475 790.284 319.011 789.657L352.43 802.3Z" fill="#AD754B"/>
<path d="M379.095 723.079C379.095 723.079 370.454 726.641 364.522 745.953C364.522 745.953 355.64 767.954 330.613 767.817L352.828 775.618C352.828 775.618 377.677 780.471 388.546 750.384C388.546 750.384 391.878 734.891 402.486 728.253L379.095 723.079Z" fill="#7BCCC2"/>
<path d="M346.482 773.39C346.482 773.39 343.052 771.617 342.073 774.298C342.073 774.298 341.913 776.358 345.464 777.612L319.779 768.532C319.779 768.532 318.717 767.474 319.387 766.091C319.387 766.091 319.78 764.09 323.072 764.948L346.482 773.39Z" fill="#A2EAE0"/>
<path d="M409.86 728.987C391.302 752.758 372.744 776.529 354.186 800.298C351.44 803.816 348.695 807.333 345.948 810.85C344.163 813.136 340.333 810.695 342.139 808.383C360.697 784.612 379.254 760.842 397.813 737.072C400.559 733.554 403.305 730.037 406.05 726.521C407.836 724.234 411.665 726.675 409.86 728.987Z" fill="#F1AC6F"/>
<path d="M409.435 726.191C410.518 726.763 411.16 728.038 410.189 729.272C391.528 752.962 372.868 776.653 354.208 800.342C351.447 803.849 348.686 807.354 345.925 810.858C345.033 811.991 343.641 811.953 342.689 811.346L409.435 726.191Z" fill="#AD754B"/>
<path d="M404.019 800.424C383.855 792.568 363.69 784.713 343.525 776.858C340.813 775.802 342.195 771.477 344.93 772.542C365.095 780.398 385.259 788.253 405.424 796.108C408.136 797.164 406.754 801.488 404.019 800.424Z" fill="#F1AC6F"/>
<path d="M406.75 799.103C406.388 800.161 405.371 800.948 404.022 800.423C383.855 792.575 363.687 784.729 343.518 776.881C342.205 776.371 341.854 775.096 342.148 774.035L406.75 799.103Z" fill="#AD754B"/>
</g>
<defs>
<clipPath id="clip0_1008_20588">
<rect width="375" height="1239" fill="white"/>
</clipPath>
</defs>
</svg>
