<svg width="744" height="1667" viewBox="0 0 744 1667" fill="none" xmlns="http://www.w3.org/2000/svg">
<g clip-path="url(#clip0_1008_20290)">
<rect width="744" height="1666.8" transform="translate(0 0.197266)" fill="#CEEFF8"/>
<path d="M194.828 793.976C189.217 793.976 184.668 798.532 184.668 804.152H204.988C204.988 798.532 200.439 793.976 194.828 793.976Z" fill="white"/>
<path d="M215.819 787.91C207.085 787.91 200.004 795.182 200.004 804.153H231.634C231.634 795.182 224.553 787.91 215.819 787.91Z" fill="white"/>
<ellipse cx="202.688" cy="793.976" rx="10.16" ry="10.176" fill="white"/>
<rect x="-140.359" y="897.163" width="1024.72" height="2346.18" fill="#ECBE58"/>
<rect x="-140.359" y="830.223" width="1024.72" height="51.7696" fill="#AED9E0"/>
<rect x="-140.359" y="881.993" width="1024.18" height="13.5561" fill="#E9F2F6"/>
<rect x="-140.359" y="878.47" width="1024.72" height="18.6798" fill="#F3DA95"/>
<path d="M256.222 1207.16C256.222 1236.07 153.059 1259.5 25.8011 1259.5C-101.455 1259.5 -204.615 1236.07 -204.615 1207.16C-204.615 1178.26 -101.455 1154.83 25.8011 1154.83C153.059 1154.83 256.222 1178.26 256.222 1207.16Z" fill="#C18123"/>
<path d="M-184.602 763.573L73.7635 751.445L299.147 884.2L295.88 911.504L265.547 914.303L238.481 924.103L163.356 916.981L110.158 893.304L17.2993 888.17L-58.3367 845.823L-141.354 824.372L-170.752 788.778L-184.602 763.573Z" fill="#CECCC2"/>
<path d="M-58.3291 845.823C-58.3291 845.823 41.5717 886.768 110.167 893.304C110.167 893.304 -0.425053 944.635 -58.3291 845.823Z" fill="#EBE9D3"/>
<path d="M304.392 893.303C304.392 893.303 310.342 926.666 283.644 934.306C283.644 934.306 260.647 937.516 264.493 916.954C264.493 916.954 238.598 946.616 188.551 939.577C188.551 939.577 127.307 930.866 110.155 893.302C110.155 893.302 231.948 944.864 304.392 893.303Z" fill="#FF4756"/>
<path d="M-50.0357 1192.59C-46.5908 1191.26 21.4656 950.726 57.2203 829.791C57.241 829.714 57.2658 829.635 57.2865 829.555C58.8284 824.349 50.7189 822.139 49.1908 827.324C13.4388 948.255 -22.3159 1069.19 -58.0665 1190.12C-58.0886 1190.2 -59.8466 1188.13 -58.1341 1190.36C-56.4215 1192.59 -53.4805 1193.92 -50.0357 1192.59Z" fill="#726128"/>
<path d="M44.7701 858.853C3.46014 832.245 -37.8499 805.638 -79.1599 779.033C-81.4438 777.559 -83.547 781.198 -81.281 782.659C-39.9696 809.264 1.34174 835.874 42.6517 862.479C44.9342 863.951 47.0375 860.314 44.7701 858.853Z" fill="#726128"/>
<path d="M-42.8566 778.362C-14.4955 806.29 13.8655 834.222 42.2266 862.15C44.1547 864.052 47.1281 861.086 45.1959 859.182C16.8335 831.253 -11.5276 803.324 -39.8886 775.394C-41.8195 773.494 -44.7916 776.459 -42.8566 778.362Z" fill="#726128"/>
<path d="M30.4385 816.283C34.187 831.263 37.9315 846.245 41.6759 861.224C42.3324 863.851 46.383 862.737 45.7279 860.108C41.9807 845.129 38.2349 830.147 34.4863 815.167C33.8298 812.54 29.7792 813.655 30.4385 816.283Z" fill="#726128"/>
<path d="M49.6256 859.184C62.8104 851.484 75.9883 843.784 89.1744 836.085C91.5079 834.72 89.3992 831.09 87.0505 832.461C73.8699 840.16 60.6906 847.859 47.5072 855.559C45.1696 856.925 47.281 860.555 49.6256 859.184Z" fill="#726128"/>
<path d="M48.4182 862.691C89.9489 856.695 131.478 850.694 173.01 844.697C175.683 844.311 174.54 840.266 171.892 840.647C130.361 846.645 88.8304 852.644 47.2998 858.639C44.6297 859.028 45.7702 863.072 48.4182 862.691Z" fill="#726128"/>
<path d="M47.8649 864.838C99.4304 865.85 150.992 866.858 202.553 867.87C205.264 867.921 205.259 863.722 202.553 863.668C150.992 862.659 99.4304 861.65 47.8649 860.638C45.1562 860.587 45.1604 864.785 47.8649 864.838Z" fill="#726128"/>
<path d="M84.9658 732.781L-177.866 747.129C-177.866 747.129 -190.468 767.025 -173.668 774.78C-173.668 774.78 -155.12 778.688 -150.217 762.18L84.9658 732.781Z" fill="#FF4756"/>
<path d="M84.9653 732.781L-20.4977 778.688C-20.4977 778.688 -112.883 815.375 -150.219 762.18L84.9653 732.781Z" fill="#EBE9D3"/>
<path d="M160.557 828.909C160.557 828.909 49.2197 865.585 -22.2705 779.353L84.9647 732.781L160.557 828.909Z" fill="#FF4756"/>
<path d="M292.161 880.238L84.9795 732.781L160.573 828.909C160.573 828.909 208.635 901.704 292.161 880.238Z" fill="#EBE9D3"/>
<path d="M265.815 910.955C274.6 909.747 293.647 899.077 304.616 890.97C304.616 890.97 312.316 935.652 278.326 934.416C278.326 934.416 262.053 935.418 263.774 917.731L265.815 910.955Z" fill="#EBE9D3"/>
<path d="M84.6289 733.243L311.748 886.77C311.748 886.77 316.561 906.154 298.098 904.968C298.098 904.968 288.594 897.085 292.148 880.237L84.6289 733.243Z" fill="#FF4756"/>
<path d="M559.492 810.703C543.785 810.621 524.547 832.124 442.007 843.813L683.658 845.682C594.813 831.046 575.199 810.785 559.492 810.703Z" fill="#465669"/>
<path d="M656.378 832.189C648.341 832.146 638.498 843.149 596.265 849.13L719.909 850.086C674.45 842.597 664.415 832.231 656.378 832.189Z" fill="#465669"/>
<path d="M500.803 855.534C494.94 855.504 487.759 863.378 456.951 867.659L547.148 868.343C513.986 862.983 506.665 855.564 500.803 855.534Z" fill="#465669"/>
<path d="M275.957 960.039C275.957 960.039 264.96 956.196 249.15 949.677C244.529 947.772 239.497 945.637 234.205 943.302C210.822 932.984 191.829 925.315 201.255 901.441C207.189 886.409 223.182 888.215 236.913 893.151C244.992 896.054 252.289 900.04 256.297 902.32L275.957 960.039Z" fill="#EBAE86"/>
<path d="M249.151 949.677C249.58 921.235 240.852 900.858 236.914 893.151C244.993 896.054 254.155 900.868 258.164 903.148L275.958 960.039C275.958 960.039 264.961 956.196 249.151 949.677Z" fill="#E28355"/>
<path fill-rule="evenodd" clip-rule="evenodd" d="M687.775 1643.16L795.215 1436.87C758.852 1388.37 590.209 1164.17 575.358 1146.04C568.943 1084.78 549.097 1041.34 528.985 1000.97C517.803 978.52 521.8 955.729 524.766 938.816C526.823 927.085 528.384 918.182 524.038 914.184C504.35 896.077 472.147 922.247 467.345 959.801C466.656 965.195 467.454 976.37 468.141 982.73C470.088 1000.67 470.861 1037.55 461.179 1060.87C460.828 1061.7 460.464 1062.53 460.073 1063.36C457.269 1069.27 451.384 1076.88 444.451 1085.85C429.717 1104.91 410.251 1130.09 405.582 1158.08C439.885 1181.2 460.078 1192.76 497.828 1210.83C497.828 1210.83 507.067 1188.71 510.952 1184.59C514.837 1180.46 505.637 1224.68 505.583 1232.91C505.529 1241.13 554.903 1365.65 569.415 1391.59C583.927 1417.53 687.775 1643.16 687.775 1643.16Z" fill="#EBAE86"/>
<path d="M494.537 1241.33C559.138 1443.36 600.602 1469.63 675.908 1665.94L687.775 1643.16C687.775 1643.16 583.927 1417.53 569.415 1391.59C554.903 1365.65 505.529 1241.13 505.583 1232.91C505.637 1224.68 514.837 1180.46 510.952 1184.59C507.067 1188.71 497.828 1210.83 497.828 1210.83C460.078 1192.76 439.885 1181.2 405.582 1158.08C403.616 1169.86 404.274 1182.14 409.013 1194.68C409.914 1197.06 431.63 1203.42 450.215 1217.99C468.34 1232.19 480.944 1234.18 494.537 1241.33Z" fill="#E28355"/>
<path d="M521.527 967.332C499.639 971.402 505.115 938.008 506.988 925.098C507.206 931.495 507.261 937.84 507.562 944.208C507.717 953.988 509.346 966.61 521.527 967.332Z" fill="#E28355"/>
<path d="M443.829 1209.97L297.517 1210.05C275.885 1210.07 258.337 1192.56 258.324 1170.95L258.111 835.661C258.098 814.05 275.623 796.52 297.255 796.506L443.567 796.42C465.199 796.406 482.747 813.914 482.76 835.524L482.972 1170.81C482.987 1192.42 465.461 1209.95 443.829 1209.97Z" fill="#193238"/>
<path d="M443.569 1198.52L297.765 1198.61C282.916 1198.62 270.871 1186.6 270.861 1171.77L270.649 837.311C270.64 822.477 282.67 810.444 297.518 810.434L443.323 810.348C458.172 810.339 470.217 822.356 470.226 837.19L470.438 1171.64C470.447 1186.48 458.418 1198.51 443.569 1198.52Z" fill="#CCE6EB"/>
<mask id="mask0_1008_20290" style="mask-type:luminance" maskUnits="userSpaceOnUse" x="270" y="810" width="201" height="389">
<path d="M443.569 1198.52L297.765 1198.61C282.916 1198.62 270.871 1186.6 270.861 1171.77L270.649 837.311C270.64 822.477 282.67 810.444 297.518 810.434L443.323 810.348C458.172 810.339 470.217 822.356 470.226 837.19L470.438 1171.64C470.447 1186.48 458.418 1198.51 443.569 1198.52Z" fill="white"/>
</mask>
<g mask="url(#mask0_1008_20290)">
<path d="M266.702 942.571C270.825 933.261 274.802 930.14 276.73 926.14C279.607 920.171 283.321 909.698 286.847 904.086C294.002 892.695 307.316 900.068 313.469 895.68C324.135 888.074 315.046 883.855 332.413 876.185C345.022 870.616 349.668 881.036 354.907 880.331C360.147 879.626 367.187 868.537 380.372 870.74C389.259 872.224 391.364 881.042 396.902 885.094C402.44 889.147 410.86 880.423 420.037 886.153C434.217 895.008 426.668 903.082 431.491 905.621C438.191 909.148 442.49 901.758 450.915 912.149C460.565 924.051 452.426 928.037 461.243 938.023C471.791 949.971 461.764 957.922 461.363 965.899C460.804 977.023 472.375 977.473 466.025 1001.91C464.438 1008.02 450.243 1009.26 446.306 1014.2C441.37 1020.39 451.757 1035 441.328 1043.04C430.289 1051.56 419.722 1044.29 415.198 1052.58C405.131 1071.03 397.462 1060.32 377.795 1068.07C356.539 1076.45 364.536 1058.05 340.177 1062.33C328.119 1062.94 321.916 1054.36 320.814 1042.55C314.668 1034.9 303.974 1040.45 295.352 1036.15C287.65 1032.92 279.045 1020.42 279.923 1012.13C282.164 1002.51 276.655 1007.36 271.484 994.889C266.313 982.418 278.606 977.259 277.673 974.574C274.995 966.868 263.092 950.723 266.702 942.571Z" fill="#3D3D3D"/>
<path d="M384.519 1070.38C384.519 1070.38 439.635 1074.61 458.384 1122.12C468.317 1147.28 466.918 1183.2 464.604 1204C462.29 1224.81 430.653 1239.42 430.653 1239.42L318.711 1239.41C318.711 1239.41 280.611 1204.56 276.322 1187.97C272.033 1171.38 270.286 1141.95 284.556 1116.06C305.511 1078.05 344.98 1072.01 355.712 1071.01C371.148 1069.58 384.519 1070.38 384.519 1070.38Z" fill="#FF5D84"/>
<path d="M387.14 1043.5H355.71V1087.36H387.14V1043.5Z" fill="#EBAE86"/>
<path d="M372.067 1050.78C346.522 1051.19 325.445 1028.35 324.989 999.76L324.433 964.901C323.978 936.315 344.317 912.812 369.861 912.406C395.406 912 416.483 934.844 416.939 963.43L417.494 998.289C417.95 1026.87 397.612 1050.38 372.067 1050.78Z" fill="#EBAE86"/>
<path d="M360.011 1016.97C358.722 1016.93 357.757 1017.95 358.04 1019.03C359.234 1023.62 364.658 1027.19 371.277 1027.4C377.895 1027.6 383.53 1024.36 385.004 1019.86C385.352 1018.8 384.453 1017.72 383.164 1017.68L360.011 1016.97Z" fill="#F6F6F6"/>
<path d="M330.587 983.289C333.551 992.674 330.588 1001.97 323.97 1004.06C317.352 1006.14 309.584 1000.23 306.621 990.842C303.657 981.456 306.62 972.157 313.238 970.072C319.856 967.987 327.623 973.904 330.587 983.289Z" fill="#EBAE86"/>
<path d="M409.522 983.289C406.558 992.674 409.521 1001.97 416.139 1004.06C422.757 1006.14 430.525 1000.23 433.488 990.842C436.452 981.456 433.489 972.157 426.871 970.072C420.253 967.987 412.486 973.904 409.522 983.289Z" fill="#EBAE86"/>
<path d="M355.621 982.425C355.869 985.387 353.667 987.989 350.702 988.236C347.737 988.484 345.132 986.284 344.884 983.322C344.636 980.361 346.838 977.759 349.803 977.511C352.768 977.263 355.373 979.463 355.621 982.425Z" fill="#193238"/>
<path d="M348.956 977.51L341.546 978.566L344.03 982.565L348.956 977.51Z" fill="#193238"/>
<path d="M401.177 982.426C401.426 985.387 399.223 987.989 396.258 988.237C393.294 988.485 390.689 986.285 390.441 983.323C390.193 980.361 392.395 977.759 395.36 977.511C398.325 977.264 400.929 979.463 401.177 982.426Z" fill="#193238"/>
<path d="M397.348 977.511L403.817 977.492L402.306 982.425L397.348 977.511Z" fill="#193238"/>
<path d="M324.254 973.178C324.254 973.178 346.902 963.595 354.795 942.676C368.969 956.971 416.77 972.423 416.77 972.423C416.77 972.423 424.803 909.392 370.546 911.332C320.016 913.139 311.516 955.913 324.254 973.178Z" fill="#3D3D3D"/>
<path d="M370.967 1096.72C385.228 1096.72 396.789 1090.35 396.789 1082.49C396.789 1074.63 385.228 1068.26 370.967 1068.26C356.706 1068.26 345.145 1074.63 345.145 1082.49C345.145 1090.35 356.706 1096.72 370.967 1096.72Z" fill="#EBAE86"/>
<path d="M324.251 973.177C318.075 951.744 326.405 926.126 348.292 917.602C365.484 910.516 386.955 910.82 401.848 922.896C416.22 934.319 422.556 954.993 416.768 972.422C418.68 939.479 393.614 915.246 360.565 922.274C334.41 926.29 323.56 948.634 324.251 973.177Z" fill="#A3C1D6"/>
<path d="M366.868 989.353C367.206 994.526 366.641 999.721 365.418 1004.75C369.139 1006.43 373.464 1006.54 377.551 1006.35C372.841 1008.88 366.629 1009.22 362.119 1006.01C363.679 1000.46 364.714 994.737 366.868 989.353Z" fill="#DC6433"/>
<path d="M405.487 974.744C405.114 974.744 404.741 974.612 404.441 974.343C398.215 968.767 391.056 971.085 390.985 971.109C390.163 971.385 389.275 970.944 388.998 970.124C388.722 969.304 389.164 968.416 389.984 968.14C390.348 968.018 398.963 965.229 406.535 972.011C407.18 972.589 407.233 973.579 406.655 974.223C406.346 974.568 405.917 974.743 405.487 974.744Z" fill="#193238"/>
<path d="M337.364 974.744C336.946 974.744 336.53 974.578 336.221 974.25C335.628 973.62 335.659 972.629 336.29 972.037C344.782 964.062 353.982 968.021 354.369 968.194C355.16 968.546 355.516 969.472 355.163 970.262C354.812 971.051 353.888 971.407 353.098 971.058C352.768 970.915 345.366 967.814 338.438 974.319C338.135 974.603 337.749 974.744 337.364 974.744Z" fill="#193238"/>
<path d="M409.378 1006.92C409.617 1009.34 407.646 1012.52 404.976 1014.02C402.305 1015.52 399.946 1014.78 399.706 1012.36C399.467 1009.94 401.438 1006.76 404.109 1005.25C406.779 1003.75 409.138 1004.49 409.378 1006.92Z" fill="#E28355"/>
</g>
<rect x="279.96" y="1143.66" width="181.288" height="45.7165" rx="22.8582" fill="#AED9E0"/>
<path d="M324.731 1166.52C324.731 1174.89 317.935 1181.68 309.551 1181.68C301.167 1181.68 294.37 1174.89 294.37 1166.52C294.37 1158.14 301.167 1151.35 309.551 1151.35C317.935 1151.35 324.731 1158.14 324.731 1166.52Z" fill="#CD7829"/>
<path d="M319.412 1160.23L301.154 1160.17C300.752 1160.17 300.425 1160.49 300.425 1160.9L300.387 1172.07C300.385 1172.47 300.71 1172.8 301.111 1172.8L319.369 1172.86C319.771 1172.86 320.098 1172.54 320.098 1172.13L320.136 1160.96C320.138 1160.56 319.813 1160.23 319.412 1160.23ZM310.242 1172.2C307.101 1172.19 304.564 1169.63 304.575 1166.49C304.586 1163.35 307.14 1160.81 310.281 1160.83C313.421 1160.83 315.959 1163.39 315.948 1166.53C315.937 1169.67 313.383 1172.21 310.242 1172.2Z" fill="#F6F6F6"/>
<path d="M314.434 1160.64L306.161 1160.61L306.387 1159.31C306.568 1158.48 307.303 1157.89 308.15 1157.9L312.444 1157.91C313.292 1157.92 314.022 1158.51 314.198 1159.34L314.434 1160.64Z" fill="#F6F6F6"/>
<path d="M304.714 1161.64L302.372 1161.63L302.38 1159.37C302.381 1159.03 302.655 1158.76 302.993 1158.76L304.113 1158.77C304.45 1158.77 304.723 1159.04 304.722 1159.38L304.714 1161.64Z" fill="#F6F6F6"/>
<path d="M314.196 1166.53C314.188 1168.7 312.423 1170.45 310.252 1170.44C308.081 1170.44 306.327 1168.67 306.335 1166.5C306.342 1164.33 308.108 1162.57 310.279 1162.58C312.449 1162.59 314.203 1164.35 314.196 1166.53Z" fill="#F6F6F6"/>
<path d="M384.981 1166.52C384.981 1174.89 378.184 1181.68 369.8 1181.68C361.416 1181.68 354.619 1174.89 354.619 1166.52C354.619 1158.14 361.416 1151.35 369.8 1151.35C378.184 1151.35 384.981 1158.14 384.981 1166.52Z" fill="#F66034"/>
<path d="M369.704 1171.46C369.147 1170.94 368.511 1170.58 367.856 1170.36L367.857 1170.36C367.852 1170.36 367.845 1170.36 367.84 1170.36C367.833 1170.35 367.826 1170.35 367.819 1170.35C367.06 1170.14 365.698 1168.91 366.917 1167.59L371.383 1162.76C372.601 1161.45 373.934 1162.71 374.204 1163.45C374.206 1163.46 374.209 1163.47 374.212 1163.47C374.214 1163.48 374.217 1163.48 374.219 1163.49L374.219 1163.49C374.483 1164.12 374.895 1164.73 375.452 1165.25L380.906 1159.35C377.813 1156.49 371.703 1156.12 367.687 1160.46L363.718 1164.75C359.702 1169.08 361.158 1174.48 364.25 1177.35L369.704 1171.46Z" fill="#F6F6F6"/>
<path d="M445.229 1166.52C445.229 1174.89 438.433 1181.68 430.049 1181.68C421.665 1181.68 414.868 1174.89 414.868 1166.52C414.868 1158.14 421.665 1151.35 430.049 1151.35C438.433 1151.35 445.229 1158.14 445.229 1166.52Z" fill="#2988CD"/>
<path d="M434.213 1162.33C434.213 1163.39 434.218 1164.45 434.212 1165.52C434.202 1167.31 433.211 1168.8 431.601 1169.44C429.641 1170.23 427.376 1169.38 426.408 1167.5C426.121 1166.95 425.95 1166.35 425.949 1165.72C425.944 1163.43 425.922 1161.14 425.957 1158.84C425.988 1156.82 427.668 1155.09 429.686 1154.93C431.836 1154.76 433.645 1156.08 434.118 1158.19C434.191 1158.51 434.206 1158.86 434.21 1159.19C434.221 1160.24 434.213 1161.28 434.213 1162.33Z" fill="#F6F6F6"/>
<path d="M430.72 1174.4C430.83 1174.4 430.916 1174.4 431.002 1174.4C431.855 1174.4 432.708 1174.4 433.56 1174.4C433.99 1174.4 434.307 1174.69 434.299 1175.06C434.29 1175.44 434 1175.69 433.562 1175.69C431.237 1175.69 428.912 1175.69 426.587 1175.69C426.151 1175.69 425.859 1175.43 425.854 1175.06C425.849 1174.68 426.164 1174.4 426.596 1174.4C427.529 1174.4 428.461 1174.4 429.413 1174.4C429.413 1173.65 429.413 1172.92 429.413 1172.15C429.251 1172.13 429.079 1172.1 428.907 1172.07C426.352 1171.66 424.118 1169.45 423.696 1166.89C423.591 1166.25 423.597 1165.59 423.579 1164.94C423.56 1164.27 423.568 1163.6 423.577 1162.94C423.584 1162.44 423.979 1162.14 424.416 1162.27C424.677 1162.35 424.848 1162.58 424.858 1162.9C424.869 1163.23 424.856 1163.57 424.863 1163.91C424.881 1164.74 424.842 1165.57 424.94 1166.39C425.152 1168.16 426.107 1169.46 427.66 1170.28C430.334 1171.7 433.607 1170.55 434.845 1167.78C435.165 1167.06 435.288 1166.31 435.29 1165.53C435.293 1164.66 435.285 1163.8 435.294 1162.94C435.299 1162.43 435.701 1162.12 436.142 1162.28C436.416 1162.38 436.573 1162.59 436.569 1162.87C436.552 1164.15 436.586 1165.44 436.465 1166.72C436.341 1168.04 435.711 1169.17 434.803 1170.13C433.755 1171.24 432.465 1171.9 430.956 1172.11C430.758 1172.14 430.713 1172.21 430.716 1172.4C430.727 1173.06 430.72 1173.71 430.72 1174.4Z" fill="#F6F6F6"/>
<path d="M290.472 829.165V820.626C290.472 820.036 290.95 819.559 291.539 819.559H293.936C294.269 819.559 294.551 819.803 294.599 820.133C294.697 820.815 295.639 820.921 295.887 820.278L295.981 820.032C296.091 819.747 296.365 819.559 296.671 819.559H298.751C299.551 819.559 300.067 820.407 299.698 821.118L297.887 824.608C297.744 824.885 297.728 825.21 297.845 825.499L299.165 828.765C299.449 829.467 298.932 830.233 298.176 830.233H295.475C295.187 830.233 294.948 830.011 294.926 829.725C294.887 829.223 294.251 829.032 293.942 829.429L293.556 829.926C293.406 830.12 293.174 830.233 292.929 830.233H291.539C290.95 830.233 290.472 829.755 290.472 829.165Z" fill="#FF5D84"/>
<path d="M310.243 829.165V820.626C310.243 820.036 310.721 819.559 311.311 819.559H313.744C314.062 819.559 314.338 819.778 314.411 820.088C314.541 820.649 315.264 820.807 315.618 820.352L315.951 819.923C316.13 819.693 316.405 819.559 316.696 819.559H318.522C319.323 819.559 319.838 820.407 319.47 821.118L317.659 824.608C317.515 824.885 317.5 825.21 317.617 825.499L318.937 828.765C319.22 829.467 318.704 830.233 317.947 830.233H315.317C314.989 830.233 314.717 829.981 314.692 829.654C314.65 829.122 314.005 828.881 313.625 829.257L312.951 829.924C312.752 830.122 312.482 830.233 312.201 830.233H311.311C310.721 830.233 310.243 829.755 310.243 829.165Z" fill="#ECBE58"/>
<path d="M309.944 823.886C309.944 826.834 307.561 830.233 304.457 830.233C301.353 830.233 299.159 828.564 299.159 825.617C299.159 822.669 301.353 819.559 304.457 819.559C307.561 819.559 309.944 820.938 309.944 823.886Z" fill="#48A2AF"/>
<path d="M326.42 823.886C326.42 826.834 328.736 830.233 331.753 830.233C334.771 830.233 336.904 828.564 336.904 825.617C336.904 822.669 334.771 819.559 331.753 819.559C328.736 819.559 326.42 820.938 326.42 823.886Z" fill="#9AC0C6"/>
<path fill-rule="evenodd" clip-rule="evenodd" d="M323.274 819.559C321.868 819.559 320.728 820.699 320.728 822.105V827.686C320.728 829.093 321.868 830.233 323.274 830.233C324.68 830.233 325.82 829.093 325.82 827.686V822.105C325.82 820.699 324.68 819.559 323.274 819.559ZM323.723 821.485C323.723 821.731 323.522 821.93 323.274 821.93C323.026 821.93 322.824 821.731 322.824 821.485C322.824 821.24 323.026 821.04 323.274 821.04C323.522 821.04 323.723 821.24 323.723 821.485ZM325.221 821.485C325.221 821.731 325.02 821.93 324.772 821.93C324.523 821.93 324.322 821.731 324.322 821.485C324.322 821.24 324.523 821.04 324.772 821.04C325.02 821.04 325.221 821.24 325.221 821.485Z" fill="#E28355"/>
<rect x="436.578" y="827.129" width="2.66854" height="3.09025" rx="1.33427" fill="#9AC0C6"/>
<path fill-rule="evenodd" clip-rule="evenodd" d="M438.021 828.409C438.155 828.409 438.263 828.302 438.263 828.169C438.263 828.037 438.155 827.929 438.021 827.929C437.887 827.929 437.778 828.037 437.778 828.169C437.778 828.302 437.887 828.409 438.021 828.409ZM437.213 828.409C437.347 828.409 437.456 828.302 437.456 828.169C437.456 828.037 437.347 827.929 437.213 827.929C437.079 827.929 436.971 828.037 436.971 828.169C436.971 828.302 437.079 828.409 437.213 828.409Z" fill="#050505"/>
<rect x="440.313" y="824.461" width="2.66854" height="5.75878" rx="1.33427" fill="#48A2AF"/>
<path fill-rule="evenodd" clip-rule="evenodd" d="M441.107 825.763C441.241 825.763 441.349 825.656 441.349 825.523C441.349 825.391 441.241 825.283 441.107 825.283C440.973 825.283 440.864 825.391 440.864 825.523C440.864 825.656 440.973 825.763 441.107 825.763ZM441.915 825.763C442.049 825.763 442.157 825.656 442.157 825.523C442.157 825.391 442.049 825.283 441.915 825.283C441.781 825.283 441.672 825.391 441.672 825.523C441.672 825.656 441.781 825.763 441.915 825.763Z" fill="#050505"/>
<rect x="444.05" y="821.792" width="2.66854" height="8.42732" rx="1.33427" fill="#ECBE58"/>
<path fill-rule="evenodd" clip-rule="evenodd" d="M445.948 823.129C446.082 823.129 446.191 823.021 446.191 822.889C446.191 822.756 446.082 822.649 445.948 822.649C445.815 822.649 445.706 822.756 445.706 822.889C445.706 823.021 445.815 823.129 445.948 823.129ZM445.141 823.129C445.275 823.129 445.383 823.022 445.383 822.889C445.383 822.756 445.275 822.649 445.141 822.649C445.007 822.649 444.898 822.756 444.898 822.889C444.898 823.022 445.007 823.129 445.141 823.129Z" fill="#050505"/>
<rect x="447.786" y="819.657" width="2.66854" height="10.5622" rx="1.33427" fill="#E28355"/>
<path fill-rule="evenodd" clip-rule="evenodd" d="M449.16 820.937C449.294 820.937 449.403 820.83 449.403 820.697C449.403 820.565 449.294 820.457 449.16 820.457C449.027 820.457 448.918 820.565 448.918 820.697C448.918 820.83 449.027 820.937 449.16 820.937ZM449.969 820.937C450.103 820.937 450.211 820.83 450.211 820.697C450.211 820.565 450.103 820.457 449.969 820.457C449.835 820.457 449.726 820.565 449.726 820.697C449.726 820.83 449.835 820.937 449.969 820.937Z" fill="#050505"/>
<path d="M250.355 962.907C242.13 959.609 226.519 961.706 220.541 978.493C212.042 1002.36 224.945 1004.16 239.624 1013.69C254.304 1023.22 270.452 1027.62 281.463 1012.22C292.472 996.824 284.398 981.426 274.122 975.559C263.846 969.693 256.313 965.296 250.355 962.907Z" fill="#EBAE86"/>
<path d="M269.955 981.051C258.334 976.231 250.66 975.344 243.981 987.5C237.344 998.621 246.18 1006.18 254.541 1012.58C243.549 1007.59 234.335 998.564 241.473 986.147C248.641 973.23 258.581 973.137 269.955 981.051Z" fill="#E28355"/>
<path d="M223.541 1041.68C214.361 1052.57 216.871 1070.88 238.157 1081.88C259.443 1092.88 278.527 1095.81 285.867 1076.75C293.207 1057.68 281.463 1047.42 265.315 1037.89C249.167 1028.35 235.285 1027.75 223.541 1041.68Z" fill="#EBAE86"/>
<path d="M276.324 1057.68C269.514 1054.04 261.198 1048.14 253.276 1050.71C237.834 1062.69 245.218 1081.14 263.285 1084.78C242.803 1084.28 234.484 1061.83 250.943 1049.01C259.602 1044.34 269.863 1052.3 276.324 1057.68Z" fill="#E28355"/>
<path d="M227.142 1120.01C223.355 1132.44 230.913 1146.94 250.731 1150.61C270.549 1154.27 285.973 1155.47 288.798 1133.94C290.999 1117.17 271.36 1110.18 260.406 1108.03C250.374 1106.06 232.28 1103.15 227.142 1120.01Z" fill="#EBAE86"/>
<path d="M276.616 1122.92C271.63 1122.46 257.651 1120.12 253.938 1122.99C250.891 1126.7 250.37 1132.2 252.237 1136.56C255.36 1143.52 264.348 1146.81 271.648 1146.17C263.806 1148.57 253.546 1145.33 249.792 1137.68C247.24 1132.36 247.986 1125.41 252.08 1121.06C257.073 1116.98 270.915 1120.99 276.616 1122.92Z" fill="#E28355"/>
<path d="M604.296 1035.24L746.032 999.959L775.703 1035.24L669.451 1062.91L604.296 1035.24Z" fill="#C18123"/>
<path d="M732.666 885.098C696.233 931.302 659.803 977.505 623.373 1023.71C619.689 1028.38 616.006 1033.05 612.323 1037.72C608.799 1042.19 601.278 1037.4 604.845 1032.88C641.275 986.676 677.707 940.472 714.139 894.268C717.821 889.596 721.505 884.925 725.189 880.254C728.711 875.787 736.232 880.576 732.666 885.098Z" fill="#F1AC6F"/>
<path d="M687.832 927.169C696.27 954.055 704.708 980.941 713.143 1007.83C714.868 1013.32 706.16 1015.23 704.455 1009.8C696.017 982.915 687.58 956.028 679.142 929.144C677.418 923.648 686.125 921.736 687.832 927.169Z" fill="#AD754B"/>
<path d="M687.931 927.497C688.033 927.882 687.813 927.116 687.931 927.497C685.312 923.719 677.491 925.827 681.279 935.935C681.11 935.398 679.404 929.919 679.22 929.379C677.177 923.306 686.239 921.08 687.931 927.497Z" fill="#F1AC6F"/>
<path d="M614.42 968.538C614.42 968.538 615.707 966.368 620.102 967.757L627.271 970.268L622.931 977.824L615.603 975.132C615.603 975.132 611.862 972.434 614.42 968.538Z" fill="#F1AC6F"/>
<path d="M730.914 878.943C733.388 880.011 734.405 882.692 732.984 884.648C699.633 930.487 662.811 973.694 627.726 1018.22C622.533 1024.8 617.342 1031.39 612.151 1037.98C610.475 1040.1 607.694 1039.91 605.741 1038.64L730.914 878.943Z" fill="#AD754B"/>
<path d="M788.355 908.169C767.087 904.36 745.818 900.552 724.549 896.745C719.114 895.772 719.455 886.86 724.956 887.846C746.226 891.654 767.493 895.462 788.763 899.271C794.197 900.244 793.858 909.154 788.355 908.169Z" fill="#F1AC6F"/>
<path d="M792.353 906.012C792.118 908.123 790.637 909.902 788.006 909.378C766.813 905.157 745.618 900.94 724.424 896.72C721.982 896.235 720.748 894.159 720.626 892.124L792.353 906.012Z" fill="#AD754B"/>
<path d="M682.757 1045.58C662.444 1038.22 642.129 1030.86 621.813 1023.5C620.616 1023.07 619.91 1022.62 618.765 1022.01C615.618 1020.34 619.681 1013.34 623.724 1014.8C644.04 1022.16 664.354 1029.53 684.667 1036.88C689.858 1038.77 686.841 1047.14 682.757 1045.58Z" fill="#F1AC6F"/>
<path d="M686.607 1043.97C685.52 1045.92 684.701 1047.68 682.195 1046.72C662.025 1038.96 641.791 1031.25 621.617 1023.49C620.552 1023.08 618.4 1022.53 618.758 1022.01C619.287 1021.23 619.947 1020.38 621 1019.15L686.607 1043.97Z" fill="#AD754B"/>
<path d="M738.96 888.444C738.96 888.444 721.996 895.436 710.35 933.349C710.35 933.349 692.913 976.542 643.779 976.273L687.393 991.587C687.393 991.587 736.175 1001.11 757.512 942.048C757.512 942.048 764.054 911.633 784.881 898.6L738.96 888.444Z" fill="#7BCCC2"/>
<path d="M674.933 987.213C674.933 987.213 668.198 983.733 666.277 988.995C666.277 988.995 665.962 993.04 672.933 995.503L622.508 977.676C622.508 977.676 620.423 975.599 621.739 972.885C621.739 972.885 622.511 968.957 628.975 970.64L674.933 987.213Z" fill="#A2EAE0"/>
<path d="M799.357 900.042C762.923 946.708 726.49 993.375 690.057 1040.04C684.667 1046.95 679.277 1053.85 673.886 1060.75C670.381 1065.24 662.863 1060.45 666.408 1055.91C702.84 1009.24 739.272 962.58 775.705 915.915C781.096 909.008 786.487 902.104 791.877 895.2C795.383 890.712 802.9 895.503 799.357 900.042Z" fill="#F1AC6F"/>
<path d="M798.522 894.553C800.646 895.676 801.907 898.18 800.001 900.601C763.366 947.11 726.734 993.619 690.099 1040.13C684.679 1047.01 679.259 1053.89 673.838 1060.77C672.088 1062.99 669.354 1062.92 667.486 1061.73L798.522 894.553Z" fill="#AD754B"/>
<path d="M787.887 1040.29C748.3 1024.86 708.714 1009.44 669.125 994.022C663.801 991.948 666.515 983.459 671.884 985.549C711.472 1000.97 751.058 1016.39 790.646 1031.81C795.969 1033.89 793.256 1042.38 787.887 1040.29Z" fill="#F1AC6F"/>
<path d="M793.249 1037.69C792.539 1039.77 790.542 1041.31 787.893 1040.29C748.301 1024.88 708.707 1009.47 669.112 994.067C666.536 993.065 665.846 990.562 666.423 988.479L793.249 1037.69Z" fill="#AD754B"/>
<g clip-path="url(#clip1_1008_20290)">
</g>
</g>
<defs>
<clipPath id="clip0_1008_20290">
<rect width="744" height="1666.8" fill="white" transform="translate(0 0.197266)"/>
</clipPath>
<clipPath id="clip1_1008_20290">
<rect width="1920" height="792" fill="white" transform="translate(-588 32.1973)"/>
</clipPath>
</defs>
</svg>
