<svg width="452" height="273" viewBox="0 0 452 273" fill="none" xmlns="http://www.w3.org/2000/svg">
<g clip-path="url(#clip0_1008_17836)">
<mask id="mask0_1008_17836" style="mask-type:luminance" maskUnits="userSpaceOnUse" x="0" y="0" width="452" height="273">
<path d="M452 0.5H0V272.5H452V0.5Z" fill="white"/>
</mask>
<g mask="url(#mask0_1008_17836)">
<g style="mix-blend-mode:multiply" opacity="0.48">
<path d="M415.986 242.155C415.986 255.541 367.407 266.416 307.485 266.416C247.563 266.416 198.984 255.56 198.984 242.155C198.984 228.75 247.563 217.894 307.485 217.894C367.407 217.894 415.986 228.75 415.986 242.155Z" fill="#050505"/>
</g>
<path d="M427.863 143.942C427.863 203.418 378.869 251.669 318.453 251.669C258.036 251.669 209.023 203.438 209.023 143.942C209.023 84.4459 258.017 36.2148 318.453 36.2148C378.889 36.2148 427.863 84.4459 427.863 143.942Z" fill="#F8EDC9" stroke="#F8EDC9" stroke-miterlimit="10"/>
<path d="M322.249 82.8894C322.249 82.8894 219.796 124.019 212.859 172.328C212.859 172.328 227.01 237.116 300.806 250.249C300.806 250.249 334.364 198.029 339.74 96.3723C339.74 96.3723 335.412 81.6832 322.249 82.87" fill="#DC6433"/>
<path d="M359.895 92.6953C359.895 92.6953 423.849 134.506 415.608 193.496C415.608 193.496 434.995 166.161 425.015 116.568C425.015 116.568 416.457 68.9786 369.006 74.6792C369.006 74.6792 354.697 78.2007 359.895 92.6953Z" fill="#DC6433"/>
<path d="M343.375 59.7175C343.375 59.7175 342.94 30.9812 299.52 37.3822C299.52 37.3822 273.907 41.7598 249.578 59.7175C249.578 59.7175 311.24 46.8961 325.568 68.4726C325.568 68.4726 342.94 75.9437 343.375 59.7175Z" fill="#DC6433"/>
<path d="M365.452 89.5821C359.662 98.8237 345.867 100.789 334.641 93.9792C323.416 87.1696 318.989 74.1537 324.78 64.8927C330.57 55.6511 344.365 53.6666 355.591 60.4956C366.816 67.3052 371.243 80.3212 365.452 89.5821Z" fill="#F0C2A1"/>
<g style="mix-blend-mode:multiply" opacity="0.21">
<path fill-rule="evenodd" clip-rule="evenodd" d="M414.498 195.207C401.696 204.532 386.967 211.714 370.715 216.069C301.019 234.744 229.575 194.403 210.922 125.91C208.122 141.027 208.561 156.951 212.791 172.739C228.19 230.207 288.016 264.109 346.374 248.472C376.664 240.356 400.617 220.481 414.498 195.207Z" fill="#050505"/>
</g>
<g style="mix-blend-mode:multiply" opacity="0.48">
<path d="M160.481 186.181C160.481 194.878 129.789 201.94 91.9026 201.94C54.0163 201.94 23.3438 194.878 23.3438 186.181C23.3438 177.484 54.0361 170.422 91.9026 170.422C129.769 170.422 160.481 177.484 160.481 186.181Z" fill="#050505"/>
</g>
<path d="M160.582 68.6475C160.582 68.6475 146.629 161.335 144.495 174.176C142.34 187.017 122.893 195.305 96.2128 195.305C69.5324 195.305 50.0852 187.036 47.931 174.176C45.7768 161.335 31.8438 68.6475 31.8438 68.6475H160.602H160.582Z" fill="#DC6433"/>
<path d="M169.252 71.8965H23.1614C22.9638 77.6165 22.8057 87.9865 33.1814 92.0138C75.633 108.493 147.038 100.127 164.054 88.7452C169.845 84.8735 169.39 77.7527 169.272 71.8965" fill="#DC6433"/>
<path d="M169.251 71.8967C169.251 82.8698 136.542 91.7611 96.2056 91.7611C55.8687 91.7611 23.1406 82.8698 23.1406 71.8967C23.1406 60.9236 55.8489 52.0518 96.1858 52.0518C136.523 52.0518 169.231 60.9431 169.231 71.8967" fill="#DC6433"/>
<path d="M158.862 70.7296C158.862 78.7843 130.423 85.3215 95.3626 85.3215C60.3025 85.3215 31.8828 78.7843 31.8828 70.7296C31.8828 62.6749 60.3025 56.1377 95.3626 56.1377C130.423 56.1377 158.862 62.6749 158.862 70.7296Z" fill="#F8EDC9"/>
<path d="M151.649 74.8543C151.511 77.656 141.51 79.4654 129.316 78.8817C117.123 78.3175 107.34 75.5742 107.478 72.7726C107.616 69.9709 117.617 68.1615 129.811 68.7452C142.005 69.3289 151.787 72.0527 151.649 74.8543Z" fill="#F0C2A1"/>
<path d="M159.809 14.3465C159.176 12.9651 157.793 12.0507 156.251 12.0118L113.503 10.4164C111.902 10.3775 110.519 11.1752 109.768 12.5176C109.037 13.8601 109.135 15.4944 110.025 16.7396L129.59 43.9388V72.714C129.59 74.932 131.409 76.7219 133.662 76.7219C135.915 76.7219 137.733 74.932 137.733 72.714V44.8143L159.255 18.51C160.224 17.3232 160.421 15.7084 159.789 14.3465M134.156 36.4289L121.428 18.7435L147.832 19.7163L134.156 36.4289Z" fill="#AB3B23"/>
<path d="M35.4531 92.8507C35.4531 92.8507 94.2292 110.828 156.899 92.3643C156.899 92.3643 93.577 129.719 35.4531 92.8507Z" fill="#AB3B23"/>
<path d="M144.016 88.6678C131.921 103.59 108.798 129.408 89.2716 144.214C69.4292 156.666 42.3337 156.219 36.0688 144.253C30.3374 133.65 34.9818 117.015 37.3534 105.244C36.8988 102.17 36.7209 101.1 36.2862 98.2401C34.132 104.563 32.1161 111.451 30.1398 118.785C27.0369 130.303 24.7246 146.296 36.6024 156.685C48.7766 167.328 75.2199 162.269 91.7618 149.798C111.901 134.603 133.996 110.303 143.799 99.6993C147.237 95.9832 150.815 92.3061 151.862 91.0025C155.004 87.1503 155.874 84.2903 152.317 85.3604C149.253 86.2748 147.336 86.5666 146.724 86.839C145.874 87.2087 144.886 87.8118 144.016 88.6873" fill="#AED9E0"/>
<path d="M142.469 89.9133C128.773 104.019 108.773 125.265 89.2665 140.051C70.0566 154.623 42.7437 158.787 34.285 141.802C28.8303 130.907 34.1862 111.334 36.7949 101.587C36.3997 99.0186 36.3601 98.5906 35.9846 96.2559C33.8897 102.774 32.0715 109.739 30.1347 116.159C26.6959 127.58 24.9962 147.697 36.0637 155.11C51.1628 165.207 75.5903 158.651 91.6974 145.499C108.654 131.665 142.904 94.3103 147.272 89.2712C148.774 87.5396 148.28 86.9365 147.469 86.703C146.916 86.5279 145.236 87.0532 142.469 89.9133Z" fill="#F0EBE4"/>
</g>
</g>
<defs>
<clipPath id="clip0_1008_17836">
<rect width="452" height="272" fill="white" transform="translate(0 0.5)"/>
</clipPath>
</defs>
</svg>
