<svg width="452" height="273" viewBox="0 0 452 273" fill="none" xmlns="http://www.w3.org/2000/svg">
<g clip-path="url(#clip0_775_9195)">
<mask id="mask0_775_9195" style="mask-type:luminance" maskUnits="userSpaceOnUse" x="0" y="0" width="452" height="273">
<path d="M452 0.802734H0V272.803H452V0.802734Z" fill="white"/>
</mask>
<g mask="url(#mask0_775_9195)">
<g style="mix-blend-mode:multiply" opacity="0.48">
<path d="M415.986 242.457C415.986 255.843 367.407 266.718 307.485 266.718C247.563 266.718 198.984 255.862 198.984 242.457C198.984 229.052 247.563 218.196 307.485 218.196C367.407 218.196 415.986 229.052 415.986 242.457Z" fill="#050505"/>
</g>
<path d="M427.863 144.245C427.863 203.721 378.869 251.972 318.453 251.972C258.036 251.972 209.023 203.741 209.023 144.245C209.023 84.7487 258.017 36.5176 318.453 36.5176C378.889 36.5176 427.863 84.7487 427.863 144.245Z" fill="#F8EDC9" stroke="#F8EDC9" stroke-miterlimit="10"/>
<path d="M322.249 83.1921C322.249 83.1921 219.796 124.322 212.859 172.631C212.859 172.631 227.01 237.419 300.806 250.552C300.806 250.552 334.364 198.332 339.74 96.675C339.74 96.675 335.412 81.9859 322.249 83.1727" fill="#DC6433"/>
<path d="M359.895 92.998C359.895 92.998 423.849 134.809 415.608 193.799C415.608 193.799 434.995 166.464 425.015 116.871C425.015 116.871 416.457 69.2813 369.006 74.9819C369.006 74.9819 354.697 78.5034 359.895 92.998Z" fill="#DC6433"/>
<path d="M343.375 60.0202C343.375 60.0202 342.94 31.2839 299.52 37.6849C299.52 37.6849 273.907 42.0625 249.578 60.0202C249.578 60.0202 311.24 47.1988 325.568 68.7753C325.568 68.7753 342.94 76.2464 343.375 60.0202Z" fill="#DC6433"/>
<path d="M365.452 89.8849C359.662 99.1265 345.867 101.092 334.641 94.282C323.416 87.4724 318.989 74.4565 324.78 65.1955C330.57 55.9539 344.365 53.9694 355.591 60.7984C366.816 67.608 371.243 80.624 365.452 89.8849Z" fill="#F0C2A1"/>
<g style="mix-blend-mode:multiply" opacity="0.21">
<path fill-rule="evenodd" clip-rule="evenodd" d="M414.498 195.51C401.696 204.835 386.967 212.017 370.715 216.372C301.019 235.047 229.575 194.706 210.922 126.213C208.122 141.33 208.561 157.254 212.791 173.042C228.19 230.51 288.016 264.412 346.374 248.775C376.664 240.659 400.617 220.784 414.498 195.51Z" fill="#050505"/>
</g>
<g style="mix-blend-mode:multiply" opacity="0.48">
<path d="M160.481 186.484C160.481 195.181 129.789 202.243 91.9026 202.243C54.0163 202.243 23.3438 195.181 23.3438 186.484C23.3438 177.787 54.0361 170.725 91.9026 170.725C129.769 170.725 160.481 177.787 160.481 186.484Z" fill="#050505"/>
</g>
<path d="M160.582 68.9502C160.582 68.9502 146.629 161.638 144.495 174.479C142.34 187.32 122.893 195.608 96.2128 195.608C69.5324 195.608 50.0852 187.339 47.931 174.479C45.7768 161.638 31.8438 68.9502 31.8438 68.9502H160.602H160.582Z" fill="#DC6433"/>
<path d="M169.252 72.1992H23.1614C22.9638 77.9192 22.8057 88.2892 33.1814 92.3165C75.633 108.796 147.038 100.43 164.054 89.0479C169.845 85.1762 169.39 78.0554 169.272 72.1992" fill="#DC6433"/>
<path d="M169.251 72.1994C169.251 83.1725 136.542 92.0638 96.2056 92.0638C55.8687 92.0638 23.1406 83.1725 23.1406 72.1994C23.1406 61.2263 55.8489 52.3545 96.1858 52.3545C136.523 52.3545 169.231 61.2458 169.231 72.1994" fill="#DC6433"/>
<path d="M158.862 71.0323C158.862 79.087 130.423 85.6242 95.3626 85.6242C60.3025 85.6242 31.8828 79.087 31.8828 71.0323C31.8828 62.9776 60.3025 56.4404 95.3626 56.4404C130.423 56.4404 158.862 62.9776 158.862 71.0323Z" fill="#F8EDC9"/>
<path d="M151.649 75.157C151.511 77.9587 141.51 79.7681 129.316 79.1844C117.123 78.6202 107.34 75.8769 107.478 73.0753C107.616 70.2736 117.617 68.4642 129.811 69.0479C142.005 69.6316 151.787 72.3554 151.649 75.157Z" fill="#F0C2A1"/>
<path d="M159.809 14.6492C159.176 13.2678 157.793 12.3534 156.251 12.3145L113.503 10.7191C111.902 10.6802 110.519 11.4779 109.768 12.8203C109.037 14.1628 109.135 15.7971 110.025 17.0423L129.59 44.2415V73.0167C129.59 75.2347 131.409 77.0246 133.662 77.0246C135.915 77.0246 137.733 75.2347 137.733 73.0167V45.117L159.255 18.8127C160.224 17.6259 160.421 16.0111 159.789 14.6492M134.156 36.7316L121.428 19.0462L147.832 20.019L134.156 36.7316Z" fill="#AB3B23"/>
<path d="M35.4531 93.1534C35.4531 93.1534 94.2292 111.131 156.899 92.667C156.899 92.667 93.577 130.022 35.4531 93.1534Z" fill="#AB3B23"/>
<path d="M144.016 88.9705C131.921 103.893 108.798 129.711 89.2716 144.517C69.4292 156.969 42.3337 156.522 36.0688 144.556C30.3374 133.953 34.9818 117.318 37.3534 105.547C36.8988 102.473 36.7209 101.403 36.2862 98.5428C34.132 104.866 32.1161 111.754 30.1398 119.088C27.0369 130.606 24.7246 146.599 36.6024 156.988C48.7766 167.631 75.2199 162.572 91.7618 150.101C111.901 134.906 133.996 110.606 143.799 100.002C147.237 96.2859 150.815 92.6088 151.862 91.3052C155.004 87.453 155.874 84.593 152.317 85.6631C149.253 86.5775 147.336 86.8693 146.724 87.1417C145.874 87.5114 144.886 88.1145 144.016 88.99" fill="#AED9E0"/>
<path d="M142.469 90.2161C128.773 104.322 108.773 125.568 89.2665 140.354C70.0566 154.926 42.7437 159.09 34.285 142.105C28.8303 131.21 34.1862 111.637 36.7949 101.89C36.3997 99.3214 36.3601 98.8934 35.9846 96.5587C33.8897 103.077 32.0715 110.042 30.1347 116.462C26.6959 127.883 24.9962 148 36.0637 155.413C51.1628 165.51 75.5903 158.954 91.6974 145.802C108.654 131.968 142.904 94.6131 147.272 89.574C148.774 87.8424 148.28 87.2393 147.469 87.0058C146.916 86.8307 145.236 87.356 142.469 90.2161Z" fill="#F0EBE4"/>
</g>
</g>
<defs>
<clipPath id="clip0_775_9195">
<rect width="452" height="272" fill="white" transform="translate(0 0.802734)"/>
</clipPath>
</defs>
</svg>
