<svg width="375" height="599" viewBox="0 0 375 599" fill="none" xmlns="http://www.w3.org/2000/svg">
<path d="M97.2529 34.9595C94.3947 34.9595 92.0776 37.2802 92.0776 40.1429H102.428C102.428 37.2802 100.111 34.9595 97.2529 34.9595Z" fill="white"/>
<path d="M107.945 31.8695C103.496 31.8695 99.8894 35.5737 99.8894 40.143H116.001C116.001 35.5737 112.394 31.8695 107.945 31.8695Z" fill="white"/>
<ellipse cx="101.257" cy="34.9595" rx="5.17525" ry="5.18339" fill="white"/>
<rect x="-73.4839" y="87.5203" width="521.966" height="1195.08" fill="#ECBE58"/>
<rect x="-73.4839" y="53.4227" width="521.966" height="26.3702" fill="#AED9E0"/>
<rect x="-73.4839" y="79.7928" width="521.695" height="6.90515" fill="#E9F2F6"/>
<rect x="-73.4839" y="77.9984" width="521.966" height="9.51501" fill="#F3DA95"/>
<path d="M143.925 245.428C143.925 260.149 91.3765 272.085 26.5545 272.085C-38.2669 272.085 -90.814 260.149 -90.814 245.428C-90.814 230.706 -38.2669 218.771 26.5545 218.771C91.3765 218.771 143.925 230.706 143.925 245.428Z" fill="#C18123"/>
<path d="M-80.6191 19.4727L50.9857 13.2948L165.791 80.9171L164.126 94.8254L148.675 96.2508L134.889 101.243L96.6222 97.615L69.5242 85.5543L22.2242 82.9396L-16.3029 61.369L-58.5898 50.4422L-73.5645 32.3118L-80.6191 19.4727Z" fill="#CECCC2"/>
<path d="M-16.2991 61.369C-16.2991 61.369 34.588 82.2252 69.5287 85.5543C69.5287 85.5543 13.1958 111.701 -16.2991 61.369Z" fill="#EBE9D3"/>
<path d="M168.462 85.5542C168.462 85.5542 171.493 102.549 157.894 106.44C157.894 106.44 146.18 108.075 148.139 97.6015C148.139 97.6015 134.948 112.71 109.456 109.125C109.456 109.125 78.2594 104.688 69.5229 85.5535C69.5229 85.5535 131.561 111.818 168.462 85.5542Z" fill="#FF4756"/>
<path d="M-12.075 238.005C-10.3203 237.327 24.3459 114.804 42.5585 53.2026C42.5691 53.1632 42.5817 53.1232 42.5922 53.0825C43.3776 50.4305 39.2469 49.3051 38.4685 51.9458C20.2573 113.545 2.04474 175.147 -16.1657 236.748C-16.177 236.788 -17.0725 235.73 -16.2002 236.868C-15.3278 238.005 -13.8297 238.683 -12.075 238.005Z" fill="#726128"/>
<path d="M36.2171 68.0062C15.1748 54.4526 -5.86751 40.8998 -26.9098 27.3477C-28.0732 26.5967 -29.1445 28.4506 -27.9903 29.1946C-6.94727 42.7467 14.0957 56.301 35.138 69.8531C36.3007 70.6027 37.372 68.7501 36.2171 68.0062Z" fill="#726128"/>
<path d="M-8.41752 27.006C6.02891 41.2318 20.4754 55.4598 34.9218 69.6856C35.9039 70.6544 37.4185 69.1433 36.4343 68.1738C21.9871 53.9473 7.54072 39.7207 -6.90571 25.4942C-7.88923 24.5261 -9.40314 26.0365 -8.41752 27.006Z" fill="#726128"/>
<path d="M28.9169 46.3217C30.8264 53.9524 32.7337 61.5838 34.641 69.2137C34.9754 70.552 37.0387 69.9844 36.705 68.6454C34.7963 61.0154 32.8882 53.3841 30.9788 45.7534C30.6444 44.4151 28.5811 44.9835 28.9169 46.3217Z" fill="#726128"/>
<path d="M38.6903 68.1745C45.4063 64.2523 52.1188 60.3302 58.8355 56.4088C60.0242 55.7133 58.9501 53.8643 57.7537 54.5626C51.0398 58.484 44.3266 62.4061 37.6113 66.3282C36.4205 67.0237 37.4961 68.8728 38.6903 68.1745Z" fill="#726128"/>
<path d="M38.0754 69.9612C59.2301 66.9066 80.3841 63.85 101.54 60.7955C102.901 60.5988 102.319 58.5383 100.97 58.7322C79.8151 61.7874 58.6604 64.8433 37.5057 67.8972C36.1456 68.0953 36.7266 70.155 38.0754 69.9612Z" fill="#726128"/>
<path d="M37.7938 71.0546C64.0599 71.5702 90.324 72.0837 116.588 72.5994C117.969 72.6253 117.966 70.4862 116.588 70.4588C90.324 69.9446 64.0599 69.431 37.7938 68.9154C36.414 68.8894 36.4162 71.0279 37.7938 71.0546Z" fill="#726128"/>
<path d="M56.6913 3.78821L-77.189 11.0964C-77.189 11.0964 -83.6078 21.2308 -75.0505 25.1811C-75.0505 25.1811 -65.6025 27.172 -63.105 18.7629L56.6913 3.78821Z" fill="#FF4756"/>
<path d="M56.6916 3.78821L2.97128 27.172C2.97128 27.172 -44.0878 45.8595 -63.1055 18.7629L56.6916 3.78821Z" fill="#EBE9D3"/>
<path d="M95.1955 52.7532C95.1955 52.7532 38.4832 71.4351 2.06787 27.5106L56.6909 3.78821L95.1955 52.7532Z" fill="#FF4756"/>
<path d="M162.231 78.8992L56.6982 3.78821L95.2035 52.7532C95.2035 52.7532 119.685 89.8331 162.231 78.8992Z" fill="#EBE9D3"/>
<path d="M148.811 94.5457C153.286 93.9303 162.988 88.495 168.576 84.3656C168.576 84.3656 172.498 107.126 155.184 106.496C155.184 106.496 146.895 107.006 147.772 97.9971L148.811 94.5457Z" fill="#EBE9D3"/>
<path d="M56.52 4.02356L172.209 82.2263C172.209 82.2263 174.661 92.1001 165.256 91.496C165.256 91.496 160.415 87.4804 162.225 78.8985L56.52 4.02356Z" fill="#FF4756"/>
<path d="M291.004 43.4795C283.003 43.4376 273.204 54.3907 231.16 60.3451L354.251 61.2972C308.996 53.8418 299.005 43.5214 291.004 43.4795Z" fill="#465669"/>
<path d="M340.355 54.4239C336.261 54.4024 331.247 60.0068 309.735 63.0535L372.716 63.5406C349.561 59.7259 344.449 54.4453 340.355 54.4239Z" fill="#465669"/>
<path d="M261.109 66.3155C258.123 66.3001 254.465 70.311 238.772 72.4914L284.716 72.84C267.824 70.11 264.095 66.3308 261.109 66.3155Z" fill="#465669"/>
<path d="M123.586 112.188C123.586 112.188 116.101 109.572 105.341 105.135C102.196 103.839 98.7709 102.386 95.1695 100.796C79.2548 93.7742 66.3281 88.5545 72.7437 72.3057C76.7823 62.0753 87.6671 63.304 97.0124 66.6635C102.511 68.6395 107.477 71.3524 110.205 72.9038L123.586 112.188Z" fill="#EBAE86"/>
<path d="M105.341 105.135C105.633 85.7773 99.6924 71.9088 97.0122 66.6635C102.511 68.6394 108.747 71.9158 111.475 73.4672L123.586 112.187C123.586 112.187 116.101 109.572 105.341 105.135Z" fill="#E28355"/>
<path fill-rule="evenodd" clip-rule="evenodd" d="M403.868 577.116L476.992 436.715C452.243 403.708 337.465 251.122 327.358 238.781C322.992 197.086 309.485 167.52 295.796 140.046C288.186 124.765 290.906 109.254 292.924 97.7434C294.325 89.7587 295.387 83.6994 292.429 80.9787C279.03 68.6546 257.112 86.4661 253.844 112.025C253.375 115.697 253.918 123.302 254.386 127.631C255.711 139.844 256.237 164.942 249.647 180.813C249.409 181.379 249.16 181.945 248.894 182.505C246.986 186.53 242.981 191.711 238.262 197.815C228.234 210.787 214.986 227.924 211.808 246.971C235.155 262.709 248.898 270.575 274.59 282.879C274.59 282.879 280.879 267.821 283.523 265.014C286.167 262.206 279.905 292.303 279.869 297.901C279.832 303.5 313.436 388.249 323.313 405.902C333.189 423.556 403.868 577.116 403.868 577.116Z" fill="#EBAE86"/>
<path d="M272.351 303.631C316.318 441.138 344.539 459.014 395.792 592.623L403.868 577.116C403.868 577.116 333.189 423.556 323.313 405.902C313.436 388.249 279.832 303.5 279.869 297.901C279.905 292.303 286.167 262.206 283.523 265.014C280.879 267.821 274.59 282.879 274.59 282.879C248.898 270.575 235.155 262.709 211.808 246.971C210.47 254.992 210.918 263.351 214.143 271.881C214.757 273.503 229.536 277.833 242.185 287.746C254.521 297.414 263.099 298.765 272.351 303.631Z" fill="#E28355"/>
<path d="M290.72 117.151C275.823 119.921 279.55 97.1931 280.825 88.4064C280.974 92.7601 281.011 97.0789 281.216 101.413C281.321 108.069 282.43 116.66 290.72 117.151Z" fill="#E28355"/>
<path d="M237.839 282.289L138.26 282.348C123.537 282.357 111.594 270.441 111.584 255.733L111.44 27.5356C111.431 12.8275 123.358 0.896726 138.081 0.887228L237.661 0.828497C252.384 0.818999 264.326 12.7348 264.336 27.443L264.48 255.641C264.49 270.349 252.562 282.28 237.839 282.289Z" fill="#193238"/>
<path d="M237.662 274.498L138.428 274.557C128.322 274.563 120.124 266.384 120.117 256.288L119.973 28.6587C119.967 18.5628 128.154 10.3731 138.26 10.3667L237.495 10.3077C247.601 10.3015 255.799 18.4808 255.805 28.5767L255.949 256.206C255.955 266.302 247.768 274.491 237.662 274.498Z" fill="#CCE6EB"/>
<mask id="mask0_796_670" style="mask-type:luminance" maskUnits="userSpaceOnUse" x="119" y="10" width="137" height="265">
<path d="M237.662 274.498L138.428 274.557C128.322 274.563 120.124 266.384 120.117 256.288L119.973 28.6587C119.967 18.5628 128.154 10.3731 138.26 10.3667L237.495 10.3077C247.601 10.3015 255.799 18.4808 255.805 28.5767L255.949 256.206C255.955 266.302 247.768 274.491 237.662 274.498Z" fill="white"/>
</mask>
<g mask="url(#mask0_796_670)">
<path d="M117.286 100.299C120.093 93.9626 122.799 91.8384 124.112 89.1156C126.07 85.0534 128.597 77.9253 130.997 74.1062C135.867 66.3534 144.928 71.3714 149.116 68.3852C156.375 63.208 150.189 60.3366 162.009 55.1164C170.591 51.3261 173.753 58.418 177.319 57.938C180.885 57.4583 185.676 49.9115 194.65 51.4109C200.698 52.4209 202.131 58.422 205.9 61.1803C209.669 63.9384 215.4 58.001 221.646 61.9008C231.297 67.9271 226.159 73.4225 229.441 75.1508C234.002 77.5514 236.927 72.5218 242.661 79.5937C249.229 87.6938 243.689 90.4071 249.69 97.2037C256.87 105.335 250.045 110.747 249.772 116.176C249.392 123.747 257.267 124.053 252.946 140.687C251.865 144.844 242.204 145.69 239.525 149.049C236.165 153.262 243.234 163.205 236.137 168.681C228.623 174.477 221.432 169.532 218.353 175.173C211.501 187.725 206.281 180.437 192.896 185.715C178.429 191.42 183.872 178.891 167.293 181.806C159.087 182.225 154.865 176.385 154.115 168.346C149.932 163.141 142.653 166.914 136.785 163.986C131.543 161.789 125.687 153.285 126.285 147.637C127.809 141.094 124.06 144.394 120.541 135.906C117.022 127.419 125.388 123.908 124.753 122.08C122.931 116.835 114.829 105.847 117.286 100.299Z" fill="#3D3D3D"/>
<path d="M197.472 187.285C197.472 187.285 234.984 190.167 247.744 222.498C254.504 239.626 253.552 264.067 251.977 278.227C250.402 292.388 228.87 302.332 228.87 302.332L152.683 302.324C152.683 302.324 126.752 278.606 123.833 267.316C120.914 256.026 119.725 235.998 129.437 218.378C143.699 192.503 170.562 188.394 177.866 187.715C188.371 186.74 197.472 187.285 197.472 187.285Z" fill="#FF5D84"/>
<path d="M199.256 168.991H177.865V198.843H199.256V168.991Z" fill="#EBAE86"/>
<path d="M188.998 173.948C171.612 174.225 157.267 158.677 156.957 139.222L156.578 115.497C156.268 96.0411 170.111 80.0451 187.496 79.7686C204.882 79.492 219.228 95.0399 219.537 114.496L219.916 138.22C220.226 157.676 206.383 173.672 188.998 173.948Z" fill="#EBAE86"/>
<path d="M180.792 150.935C179.915 150.908 179.258 151.602 179.451 152.339C180.263 155.458 183.955 157.892 188.46 158.03C192.964 158.169 196.799 155.967 197.802 152.903C198.04 152.179 197.427 151.446 196.55 151.419L180.792 150.935Z" fill="#F6F6F6"/>
<path d="M160.766 128.011C162.784 134.399 160.767 140.728 156.263 142.147C151.759 143.567 146.472 139.54 144.455 133.152C142.438 126.764 144.454 120.435 148.958 119.016C153.463 117.597 158.749 121.624 160.766 128.011Z" fill="#EBAE86"/>
<path d="M214.489 128.011C212.472 134.399 214.488 140.728 218.992 142.147C223.497 143.567 228.784 139.54 230.8 133.152C232.817 126.764 230.801 120.435 226.297 119.016C221.793 117.597 216.506 121.624 214.489 128.011Z" fill="#EBAE86"/>
<path d="M177.803 127.423C177.972 129.439 176.473 131.21 174.455 131.378C172.437 131.547 170.665 130.05 170.496 128.034C170.327 126.018 171.826 124.247 173.844 124.079C175.861 123.91 177.634 125.407 177.803 127.423Z" fill="#193238"/>
<path d="M173.268 124.079L168.225 124.797L169.915 127.518L173.268 124.079Z" fill="#193238"/>
<path d="M208.81 127.424C208.979 129.439 207.48 131.21 205.462 131.379C203.444 131.548 201.672 130.05 201.503 128.035C201.334 126.019 202.833 124.248 204.851 124.079C206.868 123.91 208.641 125.408 208.81 127.424Z" fill="#193238"/>
<path d="M206.204 124.079L210.607 124.066L209.578 127.423L206.204 124.079Z" fill="#193238"/>
<path d="M156.456 121.13C156.456 121.13 171.87 114.608 177.242 100.37C186.889 110.099 219.422 120.616 219.422 120.616C219.422 120.616 224.889 77.7171 187.962 79.0373C153.572 80.2674 147.786 109.379 156.456 121.13Z" fill="#3D3D3D"/>
<path d="M188.248 205.214C197.955 205.214 205.823 200.878 205.823 195.529C205.823 190.181 197.955 185.845 188.248 185.845C178.542 185.845 170.674 190.181 170.674 195.529C170.674 200.878 178.542 205.214 188.248 205.214Z" fill="#EBAE86"/>
<path d="M156.455 121.129C152.251 106.542 157.92 89.1066 172.817 83.3049C184.517 78.4821 199.131 78.6893 209.267 86.9081C219.049 94.683 223.361 108.754 219.421 120.616C220.723 98.1947 203.663 81.7019 181.17 86.4852C163.369 89.218 155.984 104.426 156.455 121.129Z" fill="#A3C1D6"/>
<path d="M185.458 132.138C185.688 135.659 185.304 139.195 184.472 142.617C187.005 143.759 189.948 143.836 192.73 143.708C189.524 145.432 185.296 145.657 182.227 143.476C183.288 139.696 183.993 135.803 185.458 132.138Z" fill="#DC6433"/>
<path d="M211.743 122.195C211.489 122.195 211.235 122.106 211.031 121.923C206.794 118.128 201.921 119.705 201.873 119.722C201.314 119.91 200.709 119.609 200.521 119.051C200.333 118.493 200.633 117.889 201.192 117.701C201.439 117.618 207.302 115.72 212.456 120.336C212.895 120.729 212.932 121.403 212.538 121.841C212.327 122.076 212.036 122.195 211.743 122.195Z" fill="#193238"/>
<path d="M165.379 122.196C165.094 122.196 164.811 122.083 164.601 121.86C164.197 121.431 164.218 120.756 164.648 120.353C170.428 114.926 176.689 117.62 176.953 117.738C177.491 117.977 177.733 118.607 177.493 119.145C177.254 119.682 176.625 119.924 176.087 119.687C175.863 119.589 170.825 117.479 166.109 121.907C165.903 122.1 165.641 122.196 165.379 122.196Z" fill="#193238"/>
<path d="M214.391 144.091C214.554 145.738 213.213 147.903 211.395 148.925C209.577 149.948 207.972 149.442 207.809 147.795C207.646 146.148 208.987 143.983 210.805 142.961C212.623 141.938 214.228 142.444 214.391 144.091Z" fill="#E28355"/>
</g>
<rect x="126.311" y="237.158" width="123.384" height="31.1146" rx="15.5573" fill="#AED9E0"/>
<path d="M156.782 252.715C156.782 258.416 152.156 263.037 146.45 263.037C140.744 263.037 136.118 258.416 136.118 252.715C136.118 247.015 140.744 242.394 146.45 242.394C152.156 242.394 156.782 247.015 156.782 252.715Z" fill="#CD7829"/>
<path d="M153.162 248.438L140.735 248.396C140.462 248.396 140.239 248.615 140.239 248.89L140.213 256.493C140.212 256.767 140.433 256.989 140.706 256.991L153.133 257.032C153.406 257.034 153.629 256.812 153.629 256.539L153.655 248.935C153.656 248.661 153.435 248.438 153.162 248.438ZM146.921 256.583C144.783 256.577 143.056 254.838 143.064 252.699C143.071 250.563 144.809 248.835 146.947 248.843C149.085 248.849 150.812 250.589 150.804 252.727C150.797 254.864 149.059 256.591 146.921 256.583Z" fill="#F6F6F6"/>
<path d="M149.774 248.715L144.144 248.699L144.297 247.812C144.421 247.249 144.921 246.848 145.497 246.85L148.42 246.86C148.997 246.862 149.494 247.266 149.614 247.83L149.774 248.715Z" fill="#F6F6F6"/>
<path d="M143.158 249.396L141.564 249.391L141.57 247.852C141.57 247.623 141.757 247.437 141.987 247.438L142.749 247.441C142.979 247.441 143.164 247.628 143.164 247.858L143.158 249.396Z" fill="#F6F6F6"/>
<path d="M149.612 252.722C149.607 254.2 148.405 255.394 146.928 255.389C145.45 255.384 144.257 254.182 144.262 252.704C144.267 251.226 145.468 250.033 146.946 250.038C148.423 250.043 149.617 251.244 149.612 252.722Z" fill="#F6F6F6"/>
<path d="M197.788 252.715C197.788 258.416 193.162 263.037 187.456 263.037C181.749 263.037 177.124 258.416 177.124 252.715C177.124 247.015 181.749 242.394 187.456 242.394C193.162 242.394 197.788 247.015 197.788 252.715Z" fill="#F66034"/>
<path d="M187.391 256.078C187.012 255.727 186.579 255.479 186.133 255.333L186.134 255.333C186.13 255.332 186.126 255.33 186.122 255.329C186.117 255.327 186.112 255.326 186.108 255.325C185.591 255.181 184.665 254.342 185.494 253.447L188.534 250.162C189.363 249.266 190.27 250.126 190.453 250.63C190.455 250.634 190.457 250.639 190.459 250.644C190.46 250.647 190.462 250.652 190.463 250.656L190.464 250.655C190.643 251.088 190.924 251.501 191.303 251.852L195.015 247.842C192.91 245.892 188.751 245.64 186.018 248.592L183.317 251.511C180.584 254.464 181.574 258.139 183.679 260.088L187.391 256.078Z" fill="#F6F6F6"/>
<path d="M238.793 252.715C238.793 258.416 234.167 263.037 228.461 263.037C222.755 263.037 218.129 258.416 218.129 252.715C218.129 247.015 222.755 242.394 228.461 242.394C234.167 242.394 238.793 247.015 238.793 252.715Z" fill="#2988CD"/>
<path d="M231.295 249.867C231.295 250.59 231.298 251.313 231.294 252.036C231.288 253.258 230.613 254.269 229.517 254.708C228.183 255.242 226.642 254.667 225.983 253.389C225.787 253.008 225.671 252.604 225.67 252.176C225.667 250.615 225.652 249.054 225.676 247.494C225.697 246.115 226.84 244.938 228.214 244.829C229.677 244.712 230.908 245.612 231.23 247.047C231.28 247.269 231.29 247.503 231.293 247.731C231.3 248.443 231.295 249.155 231.295 249.867Z" fill="#F6F6F6"/>
<path d="M228.917 258.08C228.992 258.08 229.05 258.08 229.109 258.08C229.69 258.08 230.27 258.079 230.851 258.08C231.143 258.081 231.359 258.276 231.353 258.53C231.347 258.787 231.149 258.961 230.852 258.961C229.269 258.963 227.687 258.963 226.104 258.961C225.808 258.961 225.609 258.784 225.606 258.528C225.602 258.273 225.817 258.081 226.111 258.081C226.745 258.079 227.38 258.08 228.028 258.08C228.028 257.572 228.028 257.071 228.028 256.553C227.917 256.535 227.8 256.516 227.683 256.497C225.944 256.213 224.424 254.715 224.137 252.967C224.066 252.533 224.069 252.085 224.057 251.642C224.044 251.188 224.05 250.733 224.056 250.279C224.061 249.945 224.33 249.738 224.627 249.828C224.805 249.882 224.921 250.037 224.928 250.253C224.935 250.483 224.926 250.713 224.931 250.943C224.944 251.506 224.917 252.075 224.983 252.631C225.128 253.831 225.778 254.719 226.834 255.28C228.655 256.245 230.882 255.459 231.725 253.576C231.943 253.089 232.026 252.572 232.028 252.041C232.03 251.456 232.024 250.869 232.03 250.283C232.034 249.936 232.307 249.727 232.608 249.833C232.794 249.898 232.901 250.045 232.898 250.232C232.887 251.107 232.91 251.986 232.828 252.855C232.743 253.751 232.314 254.521 231.696 255.176C230.983 255.932 230.105 256.377 229.078 256.523C228.943 256.543 228.912 256.593 228.915 256.72C228.922 257.168 228.917 257.615 228.917 258.08Z" fill="#F6F6F6"/>
<path d="M133.465 23.115V17.3031C133.465 16.9019 133.79 16.5767 134.192 16.5767H135.823C136.049 16.5767 136.242 16.7431 136.274 16.9674C136.341 17.4321 136.982 17.5042 137.151 17.066L137.215 16.8988C137.29 16.7047 137.476 16.5767 137.684 16.5767H139.1C139.645 16.5767 139.996 17.1541 139.745 17.6377L138.512 20.0132C138.415 20.2015 138.404 20.4232 138.484 20.62L139.382 22.8428C139.575 23.3203 139.223 23.8415 138.708 23.8415H136.87C136.674 23.8415 136.512 23.6909 136.496 23.4957C136.47 23.1542 136.037 23.0243 135.827 23.2948L135.564 23.6327C135.462 23.7644 135.304 23.8415 135.138 23.8415H134.192C133.79 23.8415 133.465 23.5162 133.465 23.115Z" fill="#FF5D84"/>
<path d="M146.921 23.115V17.3031C146.921 16.9019 147.247 16.5767 147.648 16.5767H149.304C149.521 16.5767 149.709 16.7259 149.758 16.9367C149.847 17.3185 150.339 17.4263 150.579 17.1168L150.806 16.8248C150.928 16.6682 151.115 16.5767 151.313 16.5767H152.556C153.101 16.5767 153.452 17.1541 153.201 17.6377L151.969 20.0132C151.871 20.2015 151.86 20.4232 151.94 20.62L152.838 22.8428C153.031 23.3203 152.68 23.8415 152.165 23.8415H150.375C150.152 23.8415 149.966 23.67 149.949 23.4477C149.921 23.0854 149.482 22.9218 149.223 23.1775L148.765 23.6315C148.629 23.766 148.445 23.8415 148.254 23.8415H147.648C147.247 23.8415 146.921 23.5162 146.921 23.115Z" fill="#ECBE58"/>
<path d="M146.717 19.5219C146.717 21.528 145.096 23.8415 142.984 23.8415C140.871 23.8415 139.378 22.7061 139.378 20.6999C139.378 18.6938 140.871 16.5767 142.984 16.5767C145.096 16.5767 146.717 17.5157 146.717 19.5219Z" fill="#48A2AF"/>
<path d="M157.931 19.5219C157.931 21.528 159.507 23.8415 161.561 23.8415C163.615 23.8415 165.067 22.7061 165.067 20.6999C165.067 18.6938 163.615 16.5767 161.561 16.5767C159.507 16.5767 157.931 17.5157 157.931 19.5219Z" fill="#9AC0C6"/>
<path fill-rule="evenodd" clip-rule="evenodd" d="M155.79 16.5767C154.833 16.5767 154.057 17.3526 154.057 18.3097V22.1085C154.057 23.0656 154.833 23.8415 155.79 23.8415C156.747 23.8415 157.523 23.0656 157.523 22.1085V18.3097C157.523 17.3526 156.747 16.5767 155.79 16.5767ZM156.096 17.8884C156.096 18.0556 155.959 18.1911 155.79 18.1911C155.621 18.1911 155.484 18.0556 155.484 17.8884C155.484 17.7212 155.621 17.5857 155.79 17.5857C155.959 17.5857 156.096 17.7212 156.096 17.8884ZM157.115 17.8884C157.115 18.0556 156.978 18.1911 156.81 18.1911C156.641 18.1911 156.504 18.0556 156.504 17.8884C156.504 17.7212 156.641 17.5857 156.81 17.5857C156.978 17.5857 157.115 17.7212 157.115 17.8884Z" fill="#E28355"/>
<rect x="232.905" y="21.7294" width="1.8162" height="2.10322" rx="0.908101" fill="#9AC0C6"/>
<path fill-rule="evenodd" clip-rule="evenodd" d="M233.337 22.6005C233.428 22.6005 233.502 22.5274 233.502 22.4372C233.502 22.3469 233.428 22.2738 233.337 22.2738C233.246 22.2738 233.172 22.3469 233.172 22.4372C233.172 22.5274 233.246 22.6005 233.337 22.6005ZM233.887 22.6005C233.978 22.6005 234.052 22.5274 234.052 22.4372C234.052 22.347 233.978 22.2738 233.887 22.2738C233.796 22.2738 233.722 22.347 233.722 22.4372C233.722 22.5274 233.796 22.6005 233.887 22.6005Z" fill="#050505"/>
<rect x="235.448" y="19.9132" width="1.8162" height="3.91942" rx="0.908101" fill="#48A2AF"/>
<path fill-rule="evenodd" clip-rule="evenodd" d="M235.987 20.7998C236.078 20.7998 236.152 20.7267 236.152 20.6365C236.152 20.5463 236.078 20.4731 235.987 20.4731C235.896 20.4731 235.822 20.5463 235.822 20.6365C235.822 20.7267 235.896 20.7998 235.987 20.7998ZM236.537 20.7999C236.628 20.7999 236.702 20.7267 236.702 20.6365C236.702 20.5463 236.628 20.4732 236.537 20.4732C236.446 20.4732 236.372 20.5463 236.372 20.6365C236.372 20.7267 236.446 20.7999 236.537 20.7999Z" fill="#050505"/>
<rect x="237.99" y="18.097" width="1.8162" height="5.73562" rx="0.908101" fill="#ECBE58"/>
<path fill-rule="evenodd" clip-rule="evenodd" d="M239.283 19.0069C239.374 19.0069 239.448 18.9337 239.448 18.8435C239.448 18.7533 239.374 18.6802 239.283 18.6802C239.191 18.6802 239.118 18.7533 239.118 18.8435C239.118 18.9337 239.191 19.0069 239.283 19.0069ZM238.732 19.0069C238.824 19.0069 238.897 18.9338 238.897 18.8435C238.897 18.7533 238.824 18.6802 238.732 18.6802C238.641 18.6802 238.567 18.7533 238.567 18.8435C238.567 18.9338 238.641 19.0069 238.732 19.0069Z" fill="#050505"/>
<rect x="240.533" y="16.6442" width="1.8162" height="7.18859" rx="0.908101" fill="#E28355"/>
<path fill-rule="evenodd" clip-rule="evenodd" d="M242.017 17.5152C242.109 17.5152 242.183 17.442 242.183 17.3518C242.183 17.2616 242.109 17.1885 242.017 17.1885C241.926 17.1885 241.852 17.2616 241.852 17.3518C241.852 17.442 241.926 17.5152 242.017 17.5152ZM241.467 17.5152C241.558 17.5152 241.632 17.4421 241.632 17.3519C241.632 17.2617 241.558 17.1885 241.467 17.1885C241.376 17.1885 241.302 17.2617 241.302 17.3519C241.302 17.4421 241.376 17.5152 241.467 17.5152Z" fill="#050505"/>
<path d="M106.161 114.139C100.563 111.894 89.9379 113.322 85.8689 124.747C80.085 140.988 88.8663 142.213 98.8573 148.701C108.849 155.189 119.839 158.183 127.332 147.703C134.826 137.223 129.331 126.743 122.337 122.75C115.343 118.758 110.216 115.765 106.161 114.139Z" fill="#EBAE86"/>
<path d="M119.5 126.488C111.59 123.208 106.368 122.604 101.822 130.877C97.3047 138.447 103.319 143.594 109.009 147.948C101.528 144.55 95.2573 138.408 100.115 129.956C104.994 121.165 111.759 121.102 119.5 126.488Z" fill="#E28355"/>
<path d="M87.9112 167.751C81.6634 175.163 83.3714 187.627 97.8586 195.113C112.346 202.599 125.334 204.595 130.33 191.62C135.326 178.644 127.333 171.658 116.342 165.17C105.352 158.682 95.9041 158.269 87.9112 167.751Z" fill="#EBAE86"/>
<path d="M123.835 178.644C119.201 176.165 113.541 172.15 108.149 173.901C97.6387 182.053 102.664 194.607 114.961 197.085C101.021 196.746 95.3586 181.467 106.561 172.742C112.454 169.562 119.438 174.977 123.835 178.644Z" fill="#E28355"/>
<path d="M90.3614 221.064C87.7839 229.524 92.9277 239.392 106.416 241.887C119.904 244.382 130.402 245.199 132.324 230.546C133.822 219.131 120.456 214.372 113 212.908C106.173 211.568 93.8583 209.585 90.3614 221.064Z" fill="#EBAE86"/>
<path d="M124.034 223.042C120.64 222.73 111.127 221.137 108.6 223.09C106.526 225.618 106.171 229.361 107.442 232.329C109.567 237.067 115.685 239.301 120.653 238.865C115.315 240.503 108.333 238.294 105.777 233.09C104.041 229.471 104.548 224.736 107.335 221.776C110.733 219.002 120.154 221.727 124.034 223.042Z" fill="#E28355"/>
<path d="M310.501 157.855L382.698 139.882L397.811 157.855L343.689 171.947L310.501 157.855Z" fill="#C18123"/>
<path d="M375.89 81.3746C357.332 104.91 338.775 128.444 320.218 151.979C318.342 154.359 316.466 156.737 314.59 159.118C312.795 161.393 308.964 158.953 310.781 156.65C329.337 133.116 347.895 109.581 366.452 86.0454C368.328 83.6661 370.205 81.2864 372.081 78.9074C373.875 76.632 377.706 79.0711 375.89 81.3746Z" fill="#F1AC6F"/>
<path d="M353.052 102.805C357.35 116.5 361.648 130.195 365.945 143.89C366.824 146.689 362.388 147.663 361.519 144.895C357.221 131.2 352.924 117.505 348.626 103.811C347.748 101.011 352.183 100.037 353.052 102.805Z" fill="#AD754B"/>
<path d="M353.103 102.972C353.154 103.168 353.042 102.778 353.103 102.972C351.768 101.047 347.784 102.121 349.714 107.27C349.628 106.996 348.759 104.205 348.665 103.93C347.625 100.837 352.24 99.7028 353.103 102.972Z" fill="#F1AC6F"/>
<path d="M315.658 123.877C315.658 123.877 316.314 122.772 318.552 123.479L322.204 124.758L319.993 128.607L316.26 127.236C316.26 127.236 314.355 125.862 315.658 123.877Z" fill="#F1AC6F"/>
<path d="M374.997 78.2395C376.258 78.7833 376.776 80.1492 376.052 81.1453C359.064 104.495 340.308 126.503 322.436 149.182C319.791 152.537 317.147 155.893 314.503 159.248C313.649 160.331 312.232 160.23 311.237 159.583L374.997 78.2395Z" fill="#AD754B"/>
<path d="M404.256 93.1267C393.423 91.1864 382.589 89.2466 371.755 87.3072C368.987 86.8116 369.161 82.2723 371.962 82.7744C382.797 84.7143 393.63 86.6537 404.464 88.5939C407.232 89.0895 407.059 93.628 404.256 93.1267Z" fill="#F1AC6F"/>
<path d="M406.292 92.0279C406.173 93.1031 405.418 94.0094 404.078 93.7422C393.283 91.5925 382.487 89.4441 371.691 87.2948C370.447 87.0474 369.819 85.9903 369.757 84.9534L406.292 92.0279Z" fill="#AD754B"/>
<path d="M350.467 163.123C340.12 159.374 329.772 155.624 319.424 151.875C318.814 151.654 318.454 151.424 317.871 151.114C316.268 150.263 318.338 146.697 320.397 147.443C330.746 151.193 341.093 154.943 351.44 158.691C354.084 159.65 352.547 163.917 350.467 163.123Z" fill="#F1AC6F"/>
<path d="M352.428 162.3C351.874 163.294 351.457 164.189 350.181 163.699C339.907 159.75 329.6 155.819 319.324 151.87C318.781 151.661 317.685 151.381 317.867 151.115C318.137 150.718 318.473 150.284 319.009 149.657L352.428 162.3Z" fill="#AD754B"/>
<path d="M379.095 83.079C379.095 83.079 370.454 86.6408 364.522 105.953C364.522 105.953 355.64 127.954 330.613 127.817L352.828 135.618C352.828 135.618 377.677 140.47 388.546 110.383C388.546 110.383 391.878 94.8907 402.486 88.2524L379.095 83.079Z" fill="#7BCCC2"/>
<path d="M346.482 133.39C346.482 133.39 343.052 131.617 342.073 134.297C342.073 134.297 341.913 136.358 345.464 137.612L319.778 128.532C319.778 128.532 318.716 127.474 319.387 126.091C319.387 126.091 319.78 124.09 323.072 124.947L346.482 133.39Z" fill="#A2EAE0"/>
<path d="M409.86 88.9867C391.302 112.757 372.744 136.528 354.186 160.298C351.44 163.816 348.695 167.333 345.948 170.85C344.163 173.136 340.333 170.695 342.139 168.383C360.697 144.612 379.254 120.842 397.813 97.0722C400.559 93.5541 403.305 90.0372 406.05 86.5204C407.836 84.2342 411.665 86.675 409.86 88.9867Z" fill="#F1AC6F"/>
<path d="M409.435 86.1908C410.517 86.7626 411.159 88.0383 410.189 89.2714C391.528 112.962 372.868 136.653 354.207 160.342C351.446 163.848 348.685 167.354 345.924 170.858C345.033 171.99 343.64 171.952 342.689 171.346L409.435 86.1908Z" fill="#AD754B"/>
<path d="M404.018 160.424C383.853 152.568 363.689 144.713 343.523 136.858C340.811 135.802 342.194 131.477 344.928 132.542C365.093 140.398 385.258 148.253 405.423 156.108C408.134 157.164 406.753 161.488 404.018 160.424Z" fill="#F1AC6F"/>
<path d="M406.749 159.103C406.387 160.161 405.37 160.948 404.021 160.423C383.854 152.575 363.686 144.728 343.517 136.881C342.204 136.37 341.853 135.096 342.147 134.034L406.749 159.103Z" fill="#AD754B"/>
</svg>
