<svg width="207" height="48" viewBox="0 0 207 48" fill="none" xmlns="http://www.w3.org/2000/svg">
<path d="M0.333984 46V2C0.333984 0.895431 1.22941 0 2.33398 0H16.5994C17.5947 0 18.4385 0.731858 18.5793 1.71716L19.2397 6.34004C19.5317 8.38433 22.3534 8.69895 23.0886 6.76919L25.1766 1.28801C25.4721 0.512497 26.2157 0 27.0456 0H41.7253C43.2215 0 44.1879 1.58266 43.5045 2.91361L32.7502 23.8562C32.4858 24.3711 32.4574 24.9752 32.6724 25.5126L40.5702 45.2572C41.0957 46.5709 40.1282 48 38.7132 48H22.186C21.141 48 20.2721 47.1954 20.1919 46.1534L20.0673 44.5326C19.9267 42.7047 17.6057 42.0134 16.4879 43.4666L13.6011 47.2194C13.2225 47.7116 12.6368 48 12.0158 48H2.33398C1.22941 48 0.333984 47.1046 0.333984 46Z" fill="#FF5D84"/>
<path d="M88.334 46V2C88.334 0.895431 89.2294 0 90.334 0H104.743C105.674 0 106.482 0.64282 106.692 1.55028L107.382 4.54056C107.762 6.18694 109.886 6.64952 110.916 5.31026L114.4 0.780578C114.779 0.288408 115.365 0 115.985 0H129.725C131.222 0 132.188 1.58266 131.504 2.91361L120.75 23.8562C120.486 24.3711 120.457 24.9752 120.672 25.5126L128.57 45.2572C129.096 46.5709 128.128 48 126.713 48H110.186C109.141 48 108.272 47.1954 108.192 46.1534L108.001 43.669C107.87 41.9653 105.801 41.1999 104.593 42.4081L99.5864 47.4142C99.2114 47.7893 98.7027 48 98.1722 48H90.334C89.2294 48 88.334 47.1046 88.334 46Z" fill="#ECBE58"/>
<path d="M87.001 19.4595C87.001 32.7143 76.3968 48 62.5819 48C48.767 48 39.001 40.4981 39.001 27.2432C39.001 13.9884 48.767 0 62.5819 0C76.3968 0 87.001 6.20463 87.001 19.4595Z" fill="#48A2AF"/>
<path d="M160.334 19.4595C160.334 32.7143 170.644 48 184.075 48C197.506 48 207.001 40.4981 207.001 27.2432C207.001 13.9884 197.506 0 184.075 0C170.644 0 160.334 6.20463 160.334 19.4595Z" fill="#9AC0C6"/>
<path fill-rule="evenodd" clip-rule="evenodd" d="M144.001 0C139.03 0 135.001 4.02944 135.001 9V39C135.001 43.9706 139.03 48 144.001 48H148.668C153.638 48 157.668 43.9706 157.668 39V9C157.668 4.02944 153.638 0 148.668 0H144.001ZM148.334 8.66667C148.334 9.77124 147.439 10.6667 146.334 10.6667C145.23 10.6667 144.334 9.77124 144.334 8.66667C144.334 7.5621 145.23 6.66667 146.334 6.66667C147.439 6.66667 148.334 7.5621 148.334 8.66667ZM155.001 8.66667C155.001 9.77124 154.106 10.6667 153.001 10.6667C151.896 10.6667 151.001 9.77124 151.001 8.66667C151.001 7.5621 151.896 6.66667 153.001 6.66667C154.106 6.66667 155.001 7.5621 155.001 8.66667Z" fill="#E28355"/>
</svg>
