<svg width="33" height="31" viewBox="0 0 33 31" fill="none" xmlns="http://www.w3.org/2000/svg">
<path fill-rule="evenodd" clip-rule="evenodd" d="M8.21817 1.74172C11.0256 0.950227 13.9423 2.582 14.733 5.38638L19.505 22.3123C20.2956 25.1167 18.6607 28.0318 15.8534 28.8233L13.2176 29.5664C10.4102 30.3579 7.49345 28.7261 6.7028 25.9217L1.93081 8.99574C1.14016 6.19136 2.77504 3.27632 5.58243 2.48483L8.21817 1.74172ZM7.14928 7.32147C7.32498 7.94466 7.97315 8.30728 8.59701 8.13139C9.22088 7.9555 9.58418 7.30772 9.40848 6.68452C9.23278 6.06132 8.58461 5.69871 7.96075 5.8746C7.33689 6.05048 6.97358 6.69827 7.14928 7.32147ZM3.38393 8.38304C3.55963 9.00624 4.2078 9.36886 4.83166 9.19297C5.45553 9.01708 5.81884 8.3693 5.64314 7.7461C5.46744 7.1229 4.81926 6.76029 4.1954 6.93617C3.57154 7.11206 3.20823 7.75985 3.38393 8.38304Z" fill="#ECBE58"/>
<path fill-rule="evenodd" clip-rule="evenodd" d="M27.2205 1.61557C30.1368 1.67417 32.4534 4.08323 32.3949 6.99635L32.0416 24.5786C31.983 27.4917 29.5715 29.8058 26.6553 29.7472L23.9173 29.6921C21.0011 29.6335 18.6844 27.2245 18.743 24.3114L19.0963 6.72912C19.1548 3.816 21.5664 1.50196 24.4826 1.56056L27.2205 1.61557ZM24.5761 6.6438C24.5631 7.29116 25.0779 7.82651 25.726 7.83953C26.374 7.85255 26.9099 7.33832 26.9229 6.69096C26.9359 6.0436 26.4211 5.50825 25.7731 5.49523C25.125 5.48221 24.5891 5.99644 24.5761 6.6438ZM20.6648 6.5652C20.6518 7.21256 21.1666 7.74791 21.8146 7.76093C22.4627 7.77395 22.9986 7.25972 23.0116 6.61236C23.0246 5.965 22.5098 5.42965 21.8617 5.41663C21.2137 5.40361 20.6778 5.91784 20.6648 6.5652Z" fill="#E28355"/>
</svg>
