<svg width="1920" height="2068" viewBox="0 0 1920 2068" fill="none" xmlns="http://www.w3.org/2000/svg">
<g clip-path="url(#clip0_1008_17635)">
<rect width="1920" height="2068" fill="#CEEFF8"/>
<path d="M628.037 926.881C617.523 926.881 609 935.417 609 945.948H647.073C647.073 935.417 638.55 926.881 628.037 926.881Z" fill="white"/>
<path d="M667.367 915.515C651.001 915.515 637.734 929.14 637.734 945.948H696.999C696.999 929.14 683.732 915.515 667.367 915.515Z" fill="white"/>
<ellipse cx="642.763" cy="926.881" rx="19.0366" ry="19.0666" fill="white"/>
<rect y="1120.22" width="1920" height="4396" fill="#ECBE58"/>
<rect y="994.796" width="1920" height="97" fill="#AED9E0"/>
<rect y="1091.8" width="1919" height="25.3999" fill="#E9F2F6"/>
<rect y="1085.2" width="1920" height="35" fill="#F3DA95"/>
<path d="M623.151 1701.07C623.151 1755.22 429.857 1799.12 191.415 1799.12C-47.0234 1799.12 -240.312 1755.22 -240.312 1701.07C-240.312 1646.92 -47.0234 1603.01 191.415 1603.01C429.857 1603.01 623.151 1646.92 623.151 1701.07Z" fill="#C18123"/>
<path d="M-202.812 869.914L281.283 847.189L703.581 1095.93L697.459 1147.09L640.624 1152.33L589.911 1170.7L449.152 1157.35L349.475 1112.99L175.486 1103.37L33.7683 1024.03L-121.78 983.832L-176.863 917.141L-202.812 869.914Z" fill="#CECCC2"/>
<path d="M-198.693 866.779C-198.693 866.779 -244.943 898.236 -217.947 931.129C-217.947 931.129 -193.793 951.233 -176.857 917.139C-176.857 917.139 -195.212 978.338 -120.022 1019.43C-120.022 1019.43 -52.8659 1049.6 33.7742 1024.02C33.7742 1024.02 -190.188 954.081 -198.693 866.779Z" fill="#FF4756"/>
<path d="M33.7812 1024.03C33.7812 1024.03 220.964 1100.74 349.49 1112.99C349.49 1112.99 142.275 1209.17 33.7812 1024.03Z" fill="#EBE9D3"/>
<path d="M713.408 1112.99C713.408 1112.99 724.555 1175.5 674.532 1189.81C674.532 1189.81 631.442 1195.83 638.649 1157.3C638.649 1157.3 590.13 1212.88 496.358 1199.69C496.358 1199.69 381.605 1183.37 349.469 1112.99C349.469 1112.99 577.669 1209.6 713.408 1112.99Z" fill="#FF4756"/>
<path d="M49.319 1673.76C55.7735 1671.27 183.29 1220.58 250.283 993.986C250.322 993.842 250.368 993.694 250.407 993.544C253.296 983.789 238.101 979.65 235.238 989.363C168.25 1215.95 101.257 1442.55 34.2717 1669.14C34.2303 1669.28 30.9363 1665.4 34.1451 1669.58C37.3538 1673.76 42.8645 1676.26 49.319 1673.76Z" fill="#726128"/>
<path d="M226.956 1048.44C149.554 998.584 72.1524 948.732 -5.2496 898.882C-9.5289 896.119 -13.4697 902.939 -9.224 905.675C68.1805 955.525 145.585 1005.38 222.987 1055.23C227.264 1057.99 231.205 1051.18 226.956 1048.44Z" fill="#726128"/>
<path d="M62.7718 897.625C115.912 949.953 169.051 1002.29 222.191 1054.62C225.804 1058.18 231.375 1052.62 227.755 1049.06C174.612 996.725 121.473 944.394 68.3329 892.064C64.7151 888.503 59.1463 894.058 62.7718 897.625Z" fill="#726128"/>
<path d="M200.104 968.675C207.128 996.744 214.144 1024.82 221.16 1052.88C222.39 1057.8 229.979 1055.72 228.752 1050.79C221.731 1022.72 214.712 994.654 207.689 966.585C206.458 961.662 198.869 963.753 200.104 968.675Z" fill="#726128"/>
<path d="M236.054 1049.06C260.759 1034.63 285.45 1020.2 310.156 1005.78C314.529 1003.22 310.578 996.42 306.177 998.989C281.481 1013.41 256.787 1027.84 232.085 1042.27C227.705 1044.83 231.661 1051.63 236.054 1049.06Z" fill="#726128"/>
<path d="M233.792 1055.63C311.607 1044.4 389.42 1033.15 467.238 1021.92C472.246 1021.19 470.104 1013.61 465.143 1014.33C387.327 1025.56 309.512 1036.81 231.696 1048.04C226.693 1048.77 228.83 1056.34 233.792 1055.63Z" fill="#726128"/>
<path d="M232.757 1059.65C329.374 1061.55 425.984 1063.44 522.593 1065.34C527.674 1065.43 527.663 1057.56 522.593 1057.46C425.984 1055.57 329.374 1053.68 232.757 1051.78C227.681 1051.69 227.689 1059.55 232.757 1059.65Z" fill="#726128"/>
<path d="M302.27 812.221L-190.194 839.103C-190.194 839.103 -213.805 876.382 -182.328 890.912C-182.328 890.912 -147.575 898.235 -138.388 867.304L302.27 812.221Z" fill="#FF4756"/>
<path d="M302.271 812.221L104.666 898.236C104.666 898.236 -68.4361 966.976 -138.391 867.304L302.271 812.221Z" fill="#EBE9D3"/>
<path d="M443.904 992.333C443.904 992.333 235.294 1061.05 101.344 899.481L302.269 812.221L443.904 992.333Z" fill="#FF4756"/>
<path d="M690.49 1088.51L302.297 812.221L443.935 992.333C443.935 992.333 533.989 1128.73 690.49 1088.51Z" fill="#EBE9D3"/>
<path d="M641.126 1146.06C657.587 1143.8 693.273 1123.81 713.827 1108.62C713.827 1108.62 728.254 1192.34 664.566 1190.02C664.566 1190.02 634.076 1191.9 637.301 1158.76L641.126 1146.06Z" fill="#EBE9D3"/>
<path d="M301.641 813.086L727.19 1100.75C727.19 1100.75 736.208 1137.07 701.615 1134.84C701.615 1134.84 683.808 1120.07 690.467 1088.51L301.641 813.086Z" fill="#FF4756"/>
<path d="M1311.3 958.221C1281.87 958.067 1245.83 998.357 1091.17 1020.26L1543.95 1023.76C1377.48 996.338 1340.73 958.375 1311.3 958.221Z" fill="#465669"/>
<path d="M1492.84 998.479C1477.78 998.4 1459.33 1019.01 1380.2 1030.22L1611.87 1032.01C1526.7 1017.98 1507.89 998.558 1492.84 998.479Z" fill="#465669"/>
<path d="M1201.34 1042.22C1190.35 1042.16 1176.9 1056.92 1119.17 1064.94L1288.17 1066.22C1226.04 1056.18 1212.32 1042.28 1201.34 1042.22Z" fill="#465669"/>
<path d="M780.046 1238.03C780.046 1238.03 759.44 1230.83 729.818 1218.62C721.16 1215.05 711.73 1211.05 701.815 1206.67C658.003 1187.34 622.415 1172.97 640.077 1128.24C651.196 1100.07 681.161 1103.45 706.889 1112.7C722.026 1118.14 735.699 1125.61 743.209 1129.88L780.046 1238.03Z" fill="#EBAE86"/>
<path d="M729.819 1218.62C730.623 1165.32 714.269 1127.14 706.891 1112.7C722.028 1118.14 739.195 1127.16 746.706 1131.43L780.048 1238.03C780.048 1238.03 759.441 1230.83 729.819 1218.62Z" fill="#E28355"/>
<path fill-rule="evenodd" clip-rule="evenodd" d="M1551.66 2517.98L1752.97 2131.45C1684.84 2040.59 1368.85 1620.52 1341.03 1586.54C1329.01 1471.75 1291.82 1390.36 1254.14 1314.72C1233.19 1272.66 1240.68 1229.95 1246.23 1198.27C1250.09 1176.28 1253.01 1159.6 1244.87 1152.11C1207.98 1118.18 1147.64 1167.22 1138.65 1237.58C1137.35 1247.69 1138.85 1268.63 1140.14 1280.55C1143.79 1314.17 1145.23 1383.26 1127.09 1426.96C1126.44 1428.51 1125.75 1430.07 1125.02 1431.62C1119.77 1442.69 1108.74 1456.96 1095.75 1473.76C1068.14 1509.47 1031.67 1556.65 1022.92 1609.09C1087.19 1652.42 1125.03 1674.07 1195.76 1707.94C1195.76 1707.94 1213.07 1666.49 1220.35 1658.76C1227.63 1651.03 1210.39 1733.89 1210.29 1749.3C1210.19 1764.71 1302.7 1998.03 1329.89 2046.63C1357.08 2095.23 1551.66 2517.98 1551.66 2517.98Z" fill="#EBAE86"/>
<path d="M1189.6 1765.07C1310.64 2143.63 1388.33 2192.84 1529.43 2560.67L1551.66 2517.98C1551.66 2517.98 1357.08 2095.23 1329.89 2046.63C1302.7 1998.03 1210.19 1764.71 1210.29 1749.3C1210.39 1733.89 1227.63 1651.03 1220.35 1658.76C1213.07 1666.49 1195.76 1707.94 1195.76 1707.94C1125.03 1674.07 1087.19 1652.42 1022.92 1609.09C1019.24 1631.17 1020.47 1654.18 1029.35 1677.66C1031.04 1682.13 1071.73 1694.05 1106.55 1721.34C1140.51 1747.96 1164.13 1751.68 1189.6 1765.07Z" fill="#E28355"/>
<path d="M1240.17 1251.69C1199.15 1259.32 1209.42 1196.75 1212.92 1172.56C1213.33 1184.55 1213.44 1196.44 1214 1208.37C1214.29 1226.69 1217.34 1250.34 1240.17 1251.69Z" fill="#E28355"/>
<path d="M1094.59 1706.32L820.444 1706.48C779.912 1706.51 747.033 1673.7 747.007 1633.21L746.609 1004.98C746.584 964.493 779.421 931.648 819.953 931.622L1094.09 931.46C1134.63 931.434 1167.51 964.238 1167.53 1004.73L1167.93 1632.96C1167.96 1673.45 1135.12 1706.29 1094.59 1706.32Z" fill="#193238"/>
<path d="M1094.1 1684.87L820.907 1685.03C793.085 1685.05 770.516 1662.53 770.498 1634.74L770.102 1008.08C770.083 980.282 792.624 957.735 820.446 957.718L1093.64 957.556C1121.46 957.539 1144.03 980.056 1144.05 1007.85L1144.44 1634.51C1144.46 1662.31 1121.92 1684.85 1094.1 1684.87Z" fill="#CCE6EB"/>
<mask id="mask0_1008_17635" style="mask-type:luminance" maskUnits="userSpaceOnUse" x="770" y="957" width="375" height="729">
<path d="M1094.1 1684.87L820.907 1685.03C793.085 1685.05 770.516 1662.53 770.498 1634.74L770.102 1008.08C770.083 980.282 792.624 957.736 820.446 957.718L1093.64 957.556C1121.46 957.539 1144.03 980.056 1144.05 1007.85L1144.44 1634.51C1144.46 1662.31 1121.92 1684.85 1094.1 1684.87Z" fill="white"/>
</mask>
<g mask="url(#mask0_1008_17635)">
<path d="M762.704 1205.3C770.429 1187.86 777.881 1182.01 781.494 1174.51C786.884 1163.33 793.843 1143.71 800.448 1133.19C813.856 1111.85 838.802 1125.66 850.33 1117.44C870.315 1103.19 853.286 1095.29 885.825 1080.91C909.451 1070.48 918.155 1090 927.972 1088.68C937.789 1087.36 950.981 1066.59 975.686 1070.71C992.336 1073.49 996.281 1090.01 1006.66 1097.61C1017.03 1105.2 1032.81 1088.86 1050.01 1099.59C1076.57 1116.18 1062.43 1131.31 1071.47 1136.07C1084.02 1142.68 1092.07 1128.83 1107.86 1148.3C1125.94 1170.6 1110.69 1178.07 1127.21 1196.78C1146.98 1219.17 1128.19 1234.06 1127.44 1249.01C1126.39 1269.85 1148.07 1270.7 1136.17 1316.49C1133.2 1327.93 1106.6 1330.26 1099.23 1339.51C1089.98 1351.11 1109.44 1378.48 1089.9 1393.56C1069.21 1409.51 1049.42 1395.9 1040.94 1411.43C1022.08 1445.98 1007.71 1425.92 970.856 1440.45C931.03 1456.16 946.013 1421.67 900.373 1429.69C877.78 1430.84 866.158 1414.77 864.092 1392.63C852.577 1378.3 832.539 1388.69 816.384 1380.63C801.953 1374.58 785.83 1351.17 787.476 1335.62C791.674 1317.61 781.353 1326.69 771.664 1303.33C761.975 1279.96 785.007 1270.3 783.259 1265.26C778.242 1250.83 755.94 1220.58 762.704 1205.3Z" fill="#3D3D3D"/>
<path d="M983.455 1444.77C983.455 1444.77 1086.72 1452.71 1121.85 1541.72C1140.47 1588.87 1137.84 1656.16 1133.51 1695.14C1129.17 1734.12 1069.9 1761.5 1069.9 1761.5L860.152 1761.48C860.152 1761.48 788.764 1696.18 780.727 1665.1C772.691 1634.02 769.418 1578.88 796.156 1530.37C835.419 1459.14 909.372 1447.83 929.48 1445.96C958.401 1443.27 983.455 1444.77 983.455 1444.77Z" fill="#FF5D84"/>
<path d="M988.366 1394.41H929.477V1476.59H988.366V1394.41Z" fill="#EBAE86"/>
<path d="M960.124 1408.06C912.261 1408.82 872.768 1366.02 871.915 1312.46L870.873 1247.14C870.02 1193.58 908.128 1149.54 955.991 1148.78C1003.85 1148.02 1043.35 1190.82 1044.2 1244.38L1045.24 1309.7C1046.1 1363.26 1007.99 1407.3 960.124 1408.06Z" fill="#EBAE86"/>
<path d="M937.536 1344.7C935.121 1344.63 933.314 1346.54 933.842 1348.57C936.08 1357.16 946.243 1363.86 958.645 1364.24C971.046 1364.62 981.603 1358.56 984.365 1350.12C985.018 1348.13 983.332 1346.11 980.917 1346.04L937.536 1344.7Z" fill="#F6F6F6"/>
<path d="M882.404 1281.59C887.957 1299.18 882.406 1316.6 870.006 1320.51C857.606 1324.42 843.052 1313.33 837.498 1295.75C831.945 1278.16 837.496 1260.74 849.896 1256.83C862.297 1252.92 876.851 1264.01 882.404 1281.59Z" fill="#EBAE86"/>
<path d="M1030.3 1281.59C1024.75 1299.18 1030.3 1316.6 1042.7 1320.51C1055.1 1324.42 1069.66 1313.33 1075.21 1295.75C1080.76 1278.16 1075.21 1260.74 1062.81 1256.83C1050.41 1252.92 1035.86 1264.01 1030.3 1281.59Z" fill="#EBAE86"/>
<path d="M929.309 1279.98C929.773 1285.52 925.648 1290.4 920.092 1290.86C914.537 1291.33 909.657 1287.21 909.192 1281.66C908.727 1276.11 912.853 1271.23 918.409 1270.77C923.963 1270.3 928.844 1274.42 929.309 1279.98Z" fill="#193238"/>
<path d="M916.822 1270.77L902.938 1272.74L907.592 1280.24L916.822 1270.77Z" fill="#193238"/>
<path d="M1014.67 1279.98C1015.13 1285.53 1011.01 1290.4 1005.45 1290.86C999.896 1291.33 995.017 1287.21 994.551 1281.66C994.087 1276.11 998.213 1271.23 1003.77 1270.77C1009.32 1270.3 1014.2 1274.43 1014.67 1279.98Z" fill="#193238"/>
<path d="M1007.49 1270.77L1019.61 1270.73L1016.78 1279.98L1007.49 1270.77Z" fill="#193238"/>
<path d="M870.538 1262.65C870.538 1262.65 912.974 1244.69 927.762 1205.5C954.32 1232.28 1043.88 1261.23 1043.88 1261.23C1043.88 1261.23 1058.94 1143.13 957.275 1146.77C862.598 1150.15 846.67 1230.3 870.538 1262.65Z" fill="#3D3D3D"/>
<path d="M958.062 1494.13C984.783 1494.13 1006.45 1482.2 1006.45 1467.47C1006.45 1452.75 984.783 1440.81 958.062 1440.81C931.341 1440.81 909.68 1452.75 909.68 1467.47C909.68 1482.2 931.341 1494.13 958.062 1494.13Z" fill="#EBAE86"/>
<path d="M870.533 1262.65C858.961 1222.49 874.569 1174.49 915.578 1158.52C947.79 1145.24 988.021 1145.81 1015.93 1168.44C1042.85 1189.84 1054.73 1228.58 1043.88 1261.23C1047.46 1199.51 1000.5 1154.1 938.573 1167.27C889.568 1174.8 869.239 1216.66 870.533 1262.65Z" fill="#A3C1D6"/>
<path d="M950.381 1292.96C951.015 1302.65 949.957 1312.38 947.665 1321.8C954.638 1324.95 962.741 1325.16 970.399 1324.81C961.574 1329.55 949.934 1330.17 941.484 1324.17C944.407 1313.76 946.347 1303.04 950.381 1292.96Z" fill="#DC6433"/>
<path d="M1022.74 1265.58C1022.05 1265.58 1021.35 1265.34 1020.78 1264.83C1009.12 1254.38 995.705 1258.73 995.571 1258.77C994.032 1259.29 992.367 1258.46 991.85 1256.93C991.332 1255.39 992.159 1253.73 993.697 1253.21C994.378 1252.98 1010.52 1247.76 1024.71 1260.46C1025.92 1261.54 1026.02 1263.4 1024.93 1264.61C1024.35 1265.25 1023.55 1265.58 1022.74 1265.58Z" fill="#193238"/>
<path d="M895.102 1265.58C894.319 1265.58 893.539 1265.27 892.961 1264.66C891.85 1263.48 891.908 1261.62 893.09 1260.51C909.002 1245.57 926.239 1252.99 926.965 1253.31C928.447 1253.97 929.113 1255.7 928.453 1257.19C927.794 1258.66 926.062 1259.33 924.582 1258.68C923.964 1258.41 910.095 1252.6 897.114 1264.79C896.546 1265.32 895.824 1265.58 895.102 1265.58Z" fill="#193238"/>
<path d="M1030.03 1325.86C1030.48 1330.4 1026.79 1336.35 1021.78 1339.17C1016.78 1341.99 1012.36 1340.59 1011.91 1336.06C1011.46 1331.52 1015.16 1325.56 1020.16 1322.75C1025.16 1319.93 1029.58 1321.33 1030.03 1325.86Z" fill="#E28355"/>
</g>
<rect x="787.547" y="1582.07" width="339.676" height="85.6583" rx="42.8292" fill="#AED9E0"/>
<path d="M871.434 1624.9C871.434 1640.6 858.7 1653.32 842.99 1653.32C827.282 1653.32 814.547 1640.6 814.547 1624.9C814.547 1609.21 827.282 1596.49 842.99 1596.49C858.7 1596.49 871.434 1609.21 871.434 1624.9Z" fill="#CD7829"/>
<path d="M861.468 1613.13L827.257 1613.01C826.505 1613.01 825.892 1613.62 825.892 1614.37L825.82 1635.3C825.816 1636.06 826.425 1636.67 827.177 1636.67L861.388 1636.79C862.14 1636.79 862.753 1636.18 862.753 1635.43L862.825 1614.49C862.829 1613.74 862.22 1613.13 861.468 1613.13ZM844.287 1635.55C838.402 1635.54 833.646 1630.75 833.668 1624.86C833.689 1618.98 838.473 1614.22 844.358 1614.24C850.243 1614.26 854.999 1619.05 854.978 1624.93C854.957 1630.82 850.172 1635.57 844.287 1635.55Z" fill="#F6F6F6"/>
<path d="M852.141 1613.89L836.641 1613.85L837.063 1611.41C837.404 1609.85 838.78 1608.75 840.368 1608.76L848.414 1608.78C850.001 1608.79 851.37 1609.9 851.7 1611.45L852.141 1613.89Z" fill="#F6F6F6"/>
<path d="M833.927 1615.77L829.539 1615.75L829.553 1611.52C829.556 1610.88 830.07 1610.37 830.702 1610.37L832.8 1610.38C833.433 1610.38 833.944 1610.9 833.941 1611.53L833.927 1615.77Z" fill="#F6F6F6"/>
<path d="M851.693 1624.92C851.68 1628.99 848.372 1632.28 844.304 1632.26C840.237 1632.25 836.951 1628.94 836.965 1624.87C836.979 1620.8 840.287 1617.52 844.354 1617.53C848.421 1617.55 851.707 1620.85 851.693 1624.92Z" fill="#F6F6F6"/>
<path d="M984.322 1624.9C984.322 1640.6 971.588 1653.32 955.879 1653.32C940.169 1653.32 927.435 1640.6 927.435 1624.9C927.435 1609.21 940.169 1596.49 955.879 1596.49C971.588 1596.49 984.322 1609.21 984.322 1624.9Z" fill="#F66034"/>
<path d="M955.7 1634.16C954.655 1633.19 953.464 1632.51 952.237 1632.11L952.239 1632.11C952.228 1632.11 952.217 1632.1 952.205 1632.1C952.193 1632.09 952.18 1632.09 952.167 1632.09C950.745 1631.69 948.194 1629.38 950.476 1626.92L958.845 1617.87C961.127 1615.41 963.625 1617.78 964.13 1619.16C964.135 1619.17 964.14 1619.19 964.145 1619.2C964.148 1619.21 964.154 1619.22 964.158 1619.23L964.158 1619.23C964.652 1620.42 965.425 1621.56 966.469 1622.53L976.688 1611.49C970.893 1606.12 959.443 1605.43 951.92 1613.55L944.482 1621.59C936.959 1629.72 939.685 1639.84 945.48 1645.2L955.7 1634.16Z" fill="#F6F6F6"/>
<path d="M1097.21 1624.9C1097.21 1640.6 1084.48 1653.32 1068.77 1653.32C1053.06 1653.32 1040.32 1640.6 1040.32 1624.9C1040.32 1609.21 1053.06 1596.49 1068.77 1596.49C1084.48 1596.49 1097.21 1609.21 1097.21 1624.9Z" fill="#2988CD"/>
<path d="M1076.57 1617.06C1076.57 1619.05 1076.58 1621.04 1076.57 1623.03C1076.55 1626.4 1074.69 1629.18 1071.68 1630.39C1068 1631.86 1063.76 1630.28 1061.95 1626.76C1061.41 1625.71 1061.09 1624.6 1061.09 1623.42C1061.08 1619.12 1061.04 1614.82 1061.1 1610.53C1061.16 1606.73 1064.31 1603.49 1068.09 1603.19C1072.12 1602.87 1075.51 1605.35 1076.39 1609.3C1076.53 1609.91 1076.56 1610.55 1076.56 1611.18C1076.58 1613.14 1076.57 1615.1 1076.57 1617.06Z" fill="#F6F6F6"/>
<path d="M1070.02 1639.67C1070.23 1639.67 1070.39 1639.67 1070.55 1639.67C1072.15 1639.67 1073.75 1639.67 1075.35 1639.67C1076.15 1639.67 1076.75 1640.21 1076.73 1640.91C1076.71 1641.62 1076.17 1642.1 1075.35 1642.1C1070.99 1642.1 1066.64 1642.1 1062.28 1642.1C1061.46 1642.1 1060.92 1641.61 1060.91 1640.9C1060.9 1640.2 1061.49 1639.68 1062.3 1639.67C1064.05 1639.67 1065.79 1639.67 1067.58 1639.67C1067.58 1638.27 1067.58 1636.9 1067.58 1635.47C1067.27 1635.42 1066.95 1635.37 1066.63 1635.31C1061.84 1634.53 1057.65 1630.41 1056.86 1625.6C1056.67 1624.4 1056.68 1623.17 1056.64 1621.95C1056.61 1620.7 1056.62 1619.45 1056.64 1618.19C1056.65 1617.28 1057.39 1616.71 1058.21 1616.96C1058.7 1617.1 1059.02 1617.53 1059.04 1618.12C1059.06 1618.76 1059.04 1619.39 1059.05 1620.02C1059.08 1621.57 1059.01 1623.14 1059.19 1624.67C1059.59 1627.98 1061.38 1630.42 1064.29 1631.96C1069.3 1634.62 1075.43 1632.46 1077.75 1627.27C1078.35 1625.93 1078.58 1624.51 1078.59 1623.05C1078.59 1621.44 1078.58 1619.82 1078.59 1618.21C1078.6 1617.25 1079.36 1616.68 1080.18 1616.97C1080.7 1617.15 1080.99 1617.55 1080.98 1618.07C1080.95 1620.48 1081.02 1622.9 1080.79 1625.29C1080.56 1627.75 1079.38 1629.87 1077.67 1631.68C1075.71 1633.76 1073.29 1634.98 1070.47 1635.39C1070.1 1635.44 1070.01 1635.58 1070.02 1635.93C1070.04 1637.16 1070.02 1638.39 1070.02 1639.67Z" fill="#F6F6F6"/>
<path d="M807.242 992.814V976.814C807.242 975.71 808.138 974.814 809.242 974.814H813.733C814.357 974.814 814.886 975.273 814.975 975.89C815.16 977.169 816.924 977.368 817.388 976.162L817.565 975.701C817.771 975.167 818.284 974.814 818.857 974.814H822.755C824.254 974.814 825.221 976.404 824.53 977.736L821.137 984.275C820.868 984.794 820.839 985.404 821.058 985.946L823.531 992.065C824.062 993.38 823.095 994.814 821.677 994.814H816.616C816.077 994.814 815.629 994.4 815.588 993.863C815.515 992.923 814.323 992.565 813.744 993.309L813.021 994.24C812.739 994.602 812.306 994.814 811.847 994.814H809.242C808.138 994.814 807.242 993.919 807.242 992.814Z" fill="#FF5D84"/>
<path d="M844.287 992.814V976.814C844.287 975.71 845.183 974.814 846.287 974.814H850.847C851.443 974.814 851.96 975.225 852.096 975.806C852.341 976.857 853.695 977.154 854.357 976.301L854.982 975.497C855.317 975.067 855.832 974.814 856.378 974.814H859.8C861.299 974.814 862.266 976.404 861.575 977.736L858.182 984.275C857.913 984.794 857.884 985.404 858.103 985.946L860.576 992.065C861.107 993.38 860.14 994.814 858.722 994.814H853.794C853.18 994.814 852.67 994.342 852.622 993.731C852.545 992.733 851.335 992.283 850.624 992.986L849.362 994.236C848.987 994.607 848.482 994.814 847.956 994.814H846.287C845.183 994.814 844.287 993.919 844.287 992.814Z" fill="#ECBE58"/>
<path d="M843.726 982.923C843.726 988.445 839.262 994.814 833.446 994.814C827.631 994.814 823.52 991.689 823.52 986.166C823.52 980.643 827.631 974.814 833.446 974.814C839.262 974.814 843.726 977.4 843.726 982.923Z" fill="#48A2AF"/>
<path d="M874.597 982.923C874.597 988.445 878.937 994.814 884.591 994.814C890.245 994.814 894.242 991.689 894.242 986.166C894.242 980.643 890.245 974.814 884.591 974.814C878.937 974.814 874.597 977.4 874.597 982.923Z" fill="#9AC0C6"/>
<path fill-rule="evenodd" clip-rule="evenodd" d="M868.704 974.814C866.069 974.814 863.933 976.95 863.933 979.585V990.043C863.933 992.678 866.069 994.814 868.704 994.814C871.339 994.814 873.475 992.678 873.475 990.043V979.585C873.475 976.95 871.339 974.814 868.704 974.814ZM869.546 978.426C869.546 978.886 869.169 979.259 868.704 979.259C868.239 979.259 867.862 978.886 867.862 978.426C867.862 977.965 868.239 977.592 868.704 977.592C869.169 977.592 869.546 977.965 869.546 978.426ZM872.352 978.426C872.352 978.886 871.975 979.259 871.51 979.259C871.045 979.259 870.668 978.886 870.668 978.426C870.668 977.965 871.045 977.592 871.51 977.592C871.975 977.592 872.352 977.965 872.352 978.426Z" fill="#E28355"/>
<rect x="1081" y="989" width="5" height="5.79015" rx="2.5" fill="#9AC0C6"/>
<path fill-rule="evenodd" clip-rule="evenodd" d="M1082.19 991.398C1082.44 991.398 1082.65 991.197 1082.65 990.949C1082.65 990.7 1082.44 990.499 1082.19 990.499C1081.94 990.499 1081.74 990.7 1081.74 990.949C1081.74 991.197 1081.94 991.398 1082.19 991.398ZM1083.7 991.398C1083.96 991.398 1084.16 991.197 1084.16 990.949C1084.16 990.7 1083.96 990.499 1083.7 990.499C1083.45 990.499 1083.25 990.7 1083.25 990.949C1083.25 991.197 1083.45 991.398 1083.7 991.398Z" fill="#050505"/>
<rect x="1088" y="984" width="5" height="10.7902" rx="2.5" fill="#48A2AF"/>
<path fill-rule="evenodd" clip-rule="evenodd" d="M1089.49 986.441C1089.74 986.441 1089.94 986.24 1089.94 985.992C1089.94 985.743 1089.74 985.542 1089.49 985.542C1089.23 985.542 1089.03 985.743 1089.03 985.992C1089.03 986.24 1089.23 986.441 1089.49 986.441ZM1091 986.441C1091.25 986.441 1091.45 986.24 1091.45 985.992C1091.45 985.743 1091.25 985.542 1091 985.542C1090.75 985.542 1090.54 985.743 1090.54 985.992C1090.54 986.24 1090.75 986.441 1091 986.441Z" fill="#050505"/>
<rect x="1095" y="979" width="5" height="15.7902" rx="2.5" fill="#ECBE58"/>
<path fill-rule="evenodd" clip-rule="evenodd" d="M1097.04 981.505C1097.3 981.505 1097.5 981.304 1097.5 981.055C1097.5 980.807 1097.3 980.605 1097.04 980.605C1096.79 980.605 1096.59 980.807 1096.59 981.055C1096.59 981.304 1096.79 981.505 1097.04 981.505ZM1098.56 981.505C1098.81 981.505 1099.01 981.304 1099.01 981.055C1099.01 980.807 1098.81 980.606 1098.56 980.606C1098.31 980.606 1098.1 980.807 1098.1 981.055C1098.1 981.304 1098.31 981.505 1098.56 981.505Z" fill="#050505"/>
<rect x="1102" y="975" width="5" height="19.7902" rx="2.5" fill="#E28355"/>
<path fill-rule="evenodd" clip-rule="evenodd" d="M1104.57 977.398C1104.83 977.398 1105.03 977.197 1105.03 976.949C1105.03 976.7 1104.83 976.499 1104.57 976.499C1104.32 976.499 1104.12 976.7 1104.12 976.949C1104.12 977.197 1104.32 977.398 1104.57 977.398ZM1106.09 977.398C1106.34 977.398 1106.54 977.197 1106.54 976.949C1106.54 976.7 1106.34 976.499 1106.09 976.499C1105.84 976.499 1105.63 976.7 1105.63 976.949C1105.63 977.197 1105.84 977.398 1106.09 977.398Z" fill="#050505"/>
<path d="M732.075 1243.4C716.663 1237.22 687.413 1241.15 676.211 1272.61C660.288 1317.32 684.463 1320.69 711.969 1338.55C739.474 1356.41 769.731 1364.66 790.36 1335.81C810.989 1306.95 795.861 1278.1 776.607 1267.11C757.353 1256.12 743.238 1247.88 732.075 1243.4Z" fill="#EBAE86"/>
<path d="M768.8 1277.4C747.024 1268.37 732.646 1266.71 720.132 1289.48C707.696 1310.32 724.253 1324.49 739.918 1336.48C719.323 1327.12 702.059 1310.21 715.433 1286.95C728.864 1262.75 747.487 1262.57 768.8 1277.4Z" fill="#E28355"/>
<path d="M681.834 1391C664.634 1411.4 669.336 1445.72 709.219 1466.32C749.103 1486.93 784.86 1492.43 798.613 1456.71C812.366 1420.99 790.361 1401.75 760.105 1383.89C729.849 1366.03 703.838 1364.89 681.834 1391Z" fill="#EBAE86"/>
<path d="M780.731 1420.99C767.973 1414.16 752.39 1403.11 737.547 1407.93C708.613 1430.37 722.449 1464.93 756.301 1471.75C717.924 1470.82 702.336 1428.76 733.176 1404.74C749.4 1395.98 768.625 1410.89 780.731 1420.99Z" fill="#E28355"/>
<path d="M688.581 1537.77C681.485 1561.06 695.646 1588.22 732.779 1595.09C769.911 1601.96 798.811 1604.21 804.105 1563.87C808.229 1532.44 771.431 1519.34 750.906 1515.31C732.11 1511.62 698.208 1506.17 688.581 1537.77Z" fill="#EBAE86"/>
<path d="M781.28 1543.21C771.937 1542.35 745.745 1537.97 738.789 1543.34C733.08 1550.31 732.104 1560.61 735.601 1568.78C741.452 1581.82 758.294 1587.97 771.971 1586.77C757.278 1591.28 738.054 1585.2 731.019 1570.87C726.238 1560.91 727.636 1547.88 735.307 1539.73C744.663 1532.09 770.599 1539.59 781.28 1543.21Z" fill="#E28355"/>
<path d="M1530.16 1378.94L1795.73 1312.83L1851.32 1378.94L1652.24 1430.77L1530.16 1378.94Z" fill="#C18123"/>
<path d="M1770.68 1097.61C1702.42 1184.19 1634.16 1270.76 1565.9 1357.33C1559 1366.08 1552.1 1374.83 1545.2 1383.58C1538.6 1391.95 1524.5 1382.98 1531.19 1374.51C1599.45 1287.94 1667.71 1201.37 1735.97 1114.8C1742.87 1106.04 1749.77 1097.29 1756.67 1088.54C1763.27 1080.17 1777.37 1089.14 1770.68 1097.61Z" fill="#F1AC6F"/>
<path d="M1686.68 1176.44C1702.49 1226.82 1718.3 1277.19 1734.1 1327.57C1737.33 1337.87 1721.02 1341.45 1717.82 1331.27C1702.01 1280.89 1686.2 1230.52 1670.4 1180.14C1667.16 1169.85 1683.48 1166.26 1686.68 1176.44Z" fill="#AD754B"/>
<path d="M1686.86 1177.06C1687.05 1177.78 1686.64 1176.34 1686.86 1177.06C1681.95 1169.98 1667.3 1173.93 1674.4 1192.87C1674.08 1191.86 1670.88 1181.6 1670.54 1180.58C1666.71 1169.2 1683.69 1165.03 1686.86 1177.06Z" fill="#F1AC6F"/>
<path d="M1549.12 1253.95C1549.12 1253.95 1551.54 1249.89 1559.77 1252.49L1573.2 1257.2L1565.07 1271.35L1551.34 1266.31C1551.34 1266.31 1544.33 1261.26 1549.12 1253.95Z" fill="#F1AC6F"/>
<path d="M1767.4 1086.08C1772.04 1088.08 1773.94 1093.11 1771.28 1096.77C1708.79 1182.66 1639.8 1263.62 1574.06 1347.04C1564.33 1359.38 1554.6 1371.72 1544.88 1384.06C1541.74 1388.05 1536.52 1387.68 1532.86 1385.3L1767.4 1086.08Z" fill="#AD754B"/>
<path d="M1875.03 1140.84C1835.18 1133.71 1795.32 1126.57 1755.47 1119.44C1745.29 1117.61 1745.93 1100.92 1756.24 1102.76C1796.09 1109.9 1835.94 1117.03 1875.79 1124.17C1885.97 1125.99 1885.34 1142.69 1875.03 1140.84Z" fill="#F1AC6F"/>
<path d="M1882.52 1136.8C1882.08 1140.76 1879.3 1144.09 1874.37 1143.11C1834.66 1135.2 1794.95 1127.3 1755.24 1119.39C1750.66 1118.48 1748.35 1114.59 1748.12 1110.78L1882.52 1136.8Z" fill="#AD754B"/>
<path d="M1677.17 1398.32C1639.11 1384.53 1601.04 1370.73 1562.98 1356.94C1560.73 1356.13 1559.41 1355.28 1557.27 1354.14C1551.37 1351.01 1558.98 1337.89 1566.56 1340.64C1604.62 1354.43 1642.69 1368.23 1680.75 1382.01C1690.47 1385.54 1684.82 1401.24 1677.17 1398.32Z" fill="#F1AC6F"/>
<path d="M1684.38 1395.29C1682.34 1398.95 1680.81 1402.24 1676.12 1400.44C1638.32 1385.91 1600.41 1371.45 1562.61 1356.92C1560.62 1356.16 1556.58 1355.13 1557.25 1354.15C1558.25 1352.69 1559.48 1351.09 1561.46 1348.78L1684.38 1395.29Z" fill="#AD754B"/>
<path d="M1782.47 1103.88C1782.47 1103.88 1750.69 1116.99 1728.87 1188.02C1728.87 1188.02 1696.2 1268.95 1604.14 1268.45L1685.85 1297.14C1685.85 1297.14 1777.26 1314.99 1817.24 1204.32C1817.24 1204.32 1829.49 1147.33 1868.52 1122.91L1782.47 1103.88Z" fill="#7BCCC2"/>
<path d="M1662.51 1288.95C1662.51 1288.95 1649.89 1282.42 1646.29 1292.29C1646.29 1292.29 1645.7 1299.86 1658.76 1304.48L1564.28 1271.08C1564.28 1271.08 1560.37 1267.18 1562.84 1262.1C1562.84 1262.1 1564.29 1254.74 1576.4 1257.89L1662.51 1288.95Z" fill="#A2EAE0"/>
<path d="M1895.64 1125.61C1827.37 1213.05 1759.11 1300.49 1690.85 1387.93C1680.75 1400.87 1670.65 1413.8 1660.55 1426.74C1653.98 1435.15 1639.89 1426.17 1646.53 1417.67C1714.8 1330.23 1783.06 1242.79 1851.32 1155.36C1861.42 1142.42 1871.53 1129.48 1881.62 1116.54C1888.19 1108.13 1902.28 1117.11 1895.64 1125.61Z" fill="#F1AC6F"/>
<path d="M1894.08 1115.33C1898.06 1117.43 1900.42 1122.13 1896.85 1126.66C1828.2 1213.81 1759.57 1300.95 1690.93 1388.09C1680.77 1400.99 1670.61 1413.88 1660.46 1426.77C1657.18 1430.94 1652.06 1430.8 1648.56 1428.57L1894.08 1115.33Z" fill="#AD754B"/>
<path d="M1849.35 1374.81C1834.36 1323.34 1819.36 1271.87 1804.37 1220.41C1801.35 1210.04 1817.66 1206.44 1820.65 1216.71C1835.64 1268.18 1850.64 1319.65 1865.64 1371.11C1868.66 1381.48 1852.35 1385.08 1849.35 1374.81Z" fill="#AD754B"/>
<path d="M1874.15 1388.39C1799.98 1359.49 1725.8 1330.6 1651.63 1301.7C1641.65 1297.82 1646.74 1281.91 1656.79 1285.83C1730.97 1314.73 1805.14 1343.62 1879.32 1372.51C1889.29 1376.4 1884.21 1392.3 1874.15 1388.39Z" fill="#F1AC6F"/>
<path d="M1884.2 1383.53C1882.87 1387.42 1879.12 1390.32 1874.16 1388.39C1799.98 1359.52 1725.79 1330.66 1651.6 1301.79C1646.77 1299.91 1645.48 1295.22 1646.56 1291.32L1884.2 1383.53Z" fill="#AD754B"/>
<path d="M154.761 255.721C136.84 255.721 122.312 270.271 122.312 288.221H187.21C187.21 270.271 172.683 255.721 154.761 255.721Z" fill="#F6F6F6"/>
<path d="M221.807 236.346C193.911 236.346 171.297 259.571 171.297 288.221H272.317C272.317 259.571 249.703 236.346 221.807 236.346Z" fill="#F6F6F6"/>
<ellipse cx="179.863" cy="255.721" rx="32.449" ry="32.5" fill="#F6F6F6"/>
<path d="M1595.76 571.721C1577.84 571.721 1563.31 586.271 1563.31 604.221H1628.21C1628.21 586.271 1613.68 571.721 1595.76 571.721Z" fill="#F6F6F6"/>
<path d="M1662.81 552.346C1634.91 552.346 1612.3 575.571 1612.3 604.221H1713.32C1713.32 575.571 1690.7 552.346 1662.81 552.346Z" fill="#F6F6F6"/>
<ellipse cx="1620.86" cy="571.721" rx="32.449" ry="32.5" fill="#F6F6F6"/>
<path d="M1773.35 359.287C1762.84 359.287 1754.31 367.824 1754.31 378.354H1792.39C1792.39 367.824 1783.86 359.287 1773.35 359.287Z" fill="#F6F6F6"/>
<path d="M1812.68 347.921C1796.31 347.921 1783.05 361.546 1783.05 378.354H1842.31C1842.31 361.546 1829.04 347.921 1812.68 347.921Z" fill="#F6F6F6"/>
<ellipse cx="1788.08" cy="359.287" rx="19.0366" ry="19.0666" fill="#F6F6F6"/>
<path d="M321.349 499.287C310.835 499.287 302.312 507.824 302.312 518.354H340.386C340.386 507.824 331.863 499.287 321.349 499.287Z" fill="#F6F6F6"/>
<path d="M360.679 487.921C344.314 487.921 331.047 501.546 331.047 518.354H390.312C390.312 501.546 377.045 487.921 360.679 487.921Z" fill="#F6F6F6"/>
<ellipse cx="336.076" cy="499.287" rx="19.0366" ry="19.0666" fill="#F6F6F6"/>
</g>
<defs>
<clipPath id="clip0_1008_17635">
<rect width="1920" height="2068" fill="white"/>
</clipPath>
</defs>
</svg>
