<svg width="1920" height="472" viewBox="0 0 1920 472" fill="none" xmlns="http://www.w3.org/2000/svg">
<g clip-path="url(#clip0_1078_38607)">
<rect width="1920" height="472" fill="#574978"/>
<mask id="path-1-inside-1_1078_38607" fill="white">
<path d="M-300.833 86.791L2086.94 487.535L2192.95 -144.145L-194.817 -544.889L-300.833 86.791Z"/>
</mask>
<path d="M-300.833 86.791L2086.94 487.535L2192.95 -144.145L-194.817 -544.889L-300.833 86.791Z" fill="#6FD3E9"/>
<path d="M-283.619 -15.7745L2104.15 384.97L2069.72 590.101L-318.047 189.357L-283.619 -15.7745Z" fill="#F6F6F6" mask="url(#path-1-inside-1_1078_38607)"/>
<mask id="path-3-inside-2_1078_38607" fill="white">
<path d="M-365.677 250.985L2048.53 67.5192L2055.1 154.077L-359.099 337.543L-365.677 250.985Z"/>
</mask>
<path d="M-365.677 250.985L2048.53 67.5192L2055.1 154.077L-359.099 337.543L-365.677 250.985Z" fill="#5CC0D6"/>
<path d="M-363.252 282.893L2050.95 99.4272L2046.1 35.6112L-368.102 219.077L-363.252 282.893Z" fill="#F6F6F6" mask="url(#path-3-inside-2_1078_38607)"/>
</g>
<defs>
<clipPath id="clip0_1078_38607">
<rect width="1920" height="472" fill="white"/>
</clipPath>
</defs>
</svg>
