<svg width="1920" height="472" viewBox="0 0 1920 472" fill="none" xmlns="http://www.w3.org/2000/svg">
<g clip-path="url(#clip0_1078_38591)">
<mask id="mask0_1078_38591" style="mask-type:luminance" maskUnits="userSpaceOnUse" x="0" y="0" width="1920" height="472">
<path d="M1920 0H0V472H1920V0Z" fill="white"/>
</mask>
<g mask="url(#mask0_1078_38591)">
<path d="M1920 0H0V472H1920V0Z" fill="#574978"/>
<path d="M-300.834 86.7911L2086.94 487.535L2192.95 -144.145L-194.818 -544.889L-300.834 86.7911Z" fill="#6FD3E9"/>
<mask id="mask1_1078_38591" style="mask-type:luminance" maskUnits="userSpaceOnUse" x="-301" y="-545" width="2494" height="1033">
<path d="M-300.834 86.7911L2086.94 487.535L2192.95 -144.145L-194.818 -544.889L-300.834 86.7911Z" fill="white"/>
</mask>
<g mask="url(#mask1_1078_38591)">
<path d="M-283.621 -15.7744L2104.15 384.97L2069.72 590.101L-318.049 189.357L-283.621 -15.7744Z" fill="#F6F6F6"/>
</g>
<path d="M-365.678 250.985L2048.53 67.5193L2055.1 154.077L-359.1 337.543L-365.678 250.985Z" fill="#5CC0D6"/>
<mask id="mask2_1078_38591" style="mask-type:luminance" maskUnits="userSpaceOnUse" x="-366" y="67" width="2422" height="271">
<path d="M-365.678 250.985L2048.53 67.5193L2055.1 154.077L-359.1 337.543L-365.678 250.985Z" fill="white"/>
</mask>
<g mask="url(#mask2_1078_38591)">
<path d="M-363.254 282.893L2050.95 99.4273L2046.1 35.6113L-368.104 219.077L-363.254 282.893Z" fill="#F6F6F6"/>
</g>
</g>
</g>
<defs>
<clipPath id="clip0_1078_38591">
<rect width="1920" height="472" fill="white"/>
</clipPath>
</defs>
</svg>
