<svg width="80" height="80" viewBox="0 0 80 80" fill="none" xmlns="http://www.w3.org/2000/svg">
<g clip-path="url(#clip0_1029_2666)">
<path d="M40.0007 24.7588C31.5956 24.7588 24.7578 31.5965 24.7578 40.0011C24.7578 48.4062 31.5956 55.2439 40.0007 55.2439C48.4052 55.2439 55.243 48.4062 55.243 40.0011C55.243 31.5965 48.4052 24.7588 40.0007 24.7588ZM49.0503 37.1306L38.1306 48.0504C37.6722 48.5087 37.071 48.7382 36.4704 48.7382C35.8698 48.7382 35.2693 48.5093 34.8109 48.0504L30.6379 43.8774C29.7212 42.9613 29.7212 41.4751 30.6379 40.5583C31.5541 39.6416 33.0403 39.6416 33.957 40.5583L36.4704 43.0717L45.7313 33.8115C46.6474 32.8948 48.1336 32.8948 49.0503 33.8115C49.9671 34.7276 49.9671 36.2138 49.0503 37.1306Z" fill="#F6F6F6"/>
<path d="M73.9823 21.706L73.9799 21.6438C73.9451 20.8753 73.9219 20.0624 73.9079 19.1578C73.8426 14.7468 70.3361 11.0981 65.9245 10.8516C56.7265 10.3383 49.6111 7.339 43.5314 1.41311L43.4795 1.36367C41.4965 -0.454558 38.5051 -0.454558 36.5215 1.36367L36.4696 1.41311C30.3899 7.339 23.2745 10.3383 14.0765 10.8522C9.66549 11.0981 6.15842 14.7468 6.09311 19.1584C6.07968 20.0569 6.05588 20.8698 6.02109 21.6438L6.01743 21.7884C5.83859 31.1677 5.61643 42.8406 9.52145 53.4357C11.6687 59.2621 14.9206 64.3268 19.1863 68.49C24.0447 73.2312 30.4082 76.9952 38.0999 79.6771C38.3501 79.7643 38.6101 79.8351 38.875 79.8882C39.2485 79.9627 39.6245 79.9999 40.0005 79.9999C40.3765 79.9999 40.753 79.9627 41.126 79.8882C41.3909 79.8351 41.6527 79.7637 41.9042 79.6758C49.5866 76.9891 55.9434 73.2232 60.7975 68.4826C65.0614 64.3182 68.3134 59.2523 70.4624 53.4247C74.3821 42.7979 74.1605 31.103 73.9823 21.706ZM39.9993 59.9383C29.0056 59.9383 20.0622 50.9949 20.0622 40.0013C20.0622 29.0076 29.0056 20.0642 39.9993 20.0642C50.9923 20.0642 59.9363 29.0076 59.9363 40.0013C59.9363 50.9949 50.9923 59.9383 39.9993 59.9383Z" fill="#F6F6F6"/>
</g>
<defs>
<clipPath id="clip0_1029_2666">
<rect width="80" height="80" fill="white"/>
</clipPath>
</defs>
</svg>
