<svg width="80" height="80" viewBox="0 0 80 80" fill="none" xmlns="http://www.w3.org/2000/svg">
<path d="M64.2188 42.8125C65.7721 42.8125 67.0312 41.5533 67.0312 40C67.0312 38.4467 65.7721 37.1875 64.2188 37.1875C62.6654 37.1875 61.4062 38.4467 61.4062 40C61.4062 41.5533 62.6654 42.8125 64.2188 42.8125Z" fill="#F6F6F6"/>
<path d="M73.7463 31.5371H59.7119C55.0464 31.5371 51.25 35.3335 51.25 39.9996C51.25 44.6658 55.0464 48.4622 59.7119 48.4622H73.7463C75.6421 48.4622 77.1838 46.9198 77.1838 45.0247V34.9746C77.1838 33.0795 75.6421 31.5371 73.7463 31.5371ZM64.2163 44.6871C61.6321 44.6871 59.5288 42.5845 59.5288 39.9996C59.5288 37.4148 61.6321 35.3121 64.2163 35.3121C66.8005 35.3121 68.9038 37.4148 68.9038 39.9996C68.9038 42.5845 66.8005 44.6871 64.2163 44.6871Z" fill="#F6F6F6"/>
<path d="M49.3787 39.9996C49.3787 34.2996 54.0161 29.6621 59.7156 29.6621H71.5063V17.2891C71.5063 14.0151 68.8428 11.3516 65.5688 11.3516H8.75C5.47608 11.3516 2.8125 14.0151 2.8125 17.2891V30.3121H10.1343L12.5647 24.606C12.7124 24.2605 13.0518 24.0359 13.4277 24.0359H19.6964C20.1424 21.9122 22.0284 20.3121 24.2822 20.3121C26.8664 20.3121 28.9697 22.4148 28.9697 24.9996C28.9697 27.5845 26.8664 29.6871 24.2822 29.6871C22.01 29.6871 20.1126 28.0606 19.6869 25.9109H14.0479L11.6174 31.6171C11.4697 31.9625 11.1304 32.1871 10.7544 32.1871H2.8125V39.0621H19.6896C20.1252 36.9251 22.019 35.3121 24.2822 35.3121C26.8664 35.3121 28.9697 37.4148 28.9697 39.9996C28.9697 42.5845 26.8664 44.6871 24.2822 44.6871C22.019 44.6871 20.1252 43.0742 19.6896 40.9371H2.8125V47.8121H10.7544C11.1304 47.8121 11.4697 48.0368 11.6174 48.3822L14.0479 54.0884H19.6869C20.1126 51.9387 22.01 50.3121 24.2822 50.3121C26.8665 50.3121 28.9697 52.4148 28.9697 54.9996C28.9697 57.5845 26.8665 59.6871 24.2822 59.6871C22.0284 59.6871 20.1424 58.0871 19.6964 55.9634H13.4277C13.0518 55.9634 12.7124 55.7388 12.5647 55.3933L10.1343 49.6871H2.8125V62.7102C2.8125 65.9841 5.47608 68.6477 8.75 68.6477H65.5688C68.8428 68.6477 71.5063 65.9841 71.5063 62.7102V50.3372H59.7156C54.0161 50.3372 49.3787 45.6997 49.3787 39.9996Z" fill="#F6F6F6"/>
<path d="M24.2812 57.8125C25.8346 57.8125 27.0938 56.5533 27.0938 55C27.0938 53.4467 25.8346 52.1875 24.2812 52.1875C22.7279 52.1875 21.4688 53.4467 21.4688 55C21.4688 56.5533 22.7279 57.8125 24.2812 57.8125Z" fill="#F6F6F6"/>
<path d="M24.2812 27.8125C25.8346 27.8125 27.0938 26.5533 27.0938 25C27.0938 23.4467 25.8346 22.1875 24.2812 22.1875C22.7279 22.1875 21.4688 23.4467 21.4688 25C21.4688 26.5533 22.7279 27.8125 24.2812 27.8125Z" fill="#F6F6F6"/>
<path d="M24.2812 42.8125C25.8346 42.8125 27.0938 41.5533 27.0938 40C27.0938 38.4467 25.8346 37.1875 24.2812 37.1875C22.7279 37.1875 21.4688 38.4467 21.4688 40C21.4688 41.5533 22.7279 42.8125 24.2812 42.8125Z" fill="#F6F6F6"/>
</svg>
