<svg width="80" height="80" viewBox="0 0 80 80" fill="none" xmlns="http://www.w3.org/2000/svg">
<g clip-path="url(#clip0_1029_2667)">
<path d="M13.3332 29.334H2.66667C1.19406 29.334 0 30.5279 0 32.0006V74.6659C0 76.1385 1.19388 77.3326 2.66667 77.3326H13.333C14.8056 77.3326 15.9997 76.1387 15.9997 74.6659V32.0005C15.9997 30.5279 14.806 29.334 13.3332 29.334Z" fill="#F6F6F6"/>
<path d="M79.9478 36.4025C79.4775 32.2659 75.6134 29.3339 71.4501 29.3339H50.6606C52.4274 26.1703 53.3757 17.2223 53.3337 13.5671C53.2639 7.51659 48.2533 2.66797 42.2027 2.66797H40.0023C38.5284 2.66797 37.3356 3.86061 37.3356 5.33464C37.3356 11.501 34.9345 22.6311 30.4062 27.1596C27.3582 30.2076 24.7526 31.312 21.3359 33.0196V73.0316C26.5669 74.7752 33.2086 77.3327 43.3318 77.3327H60.7753C66.5229 77.3327 70.9993 72.0095 68.7721 66.3852C72.1653 65.4608 74.6677 62.3488 74.6677 58.6666C74.6677 57.6274 74.4672 56.6328 74.1053 55.7187C79.8234 54.1608 81.9282 47.1002 77.9594 42.6669C79.4175 41.038 80.2216 38.8099 79.9478 36.4025Z" fill="#F6F6F6"/>
</g>
<defs>
<clipPath id="clip0_1029_2667">
<rect width="80" height="80" fill="white"/>
</clipPath>
</defs>
</svg>
