<svg width="80" height="80" viewBox="0 0 80 80" fill="none" xmlns="http://www.w3.org/2000/svg">
<g clip-path="url(#clip0_1029_2664)">
<path d="M74.9761 51.105H72.2938C71.4368 51.105 70.6316 50.6951 70.1275 50.0022L55.0996 29.3469C53.8986 27.7755 52.0337 26.8536 50.0558 26.8536H46.7517C46.038 26.8536 45.4593 26.2751 45.4593 25.5612V22.4995C45.4593 21.895 45.7684 21.3359 46.2736 21.004C49.4154 18.9401 51.4779 15.3676 51.4306 11.3166C51.3576 5.07823 46.1976 0.00571487 39.9588 0.0342999C33.6769 0.0631974 28.5933 5.16446 28.5933 11.4532C28.5933 15.446 30.6427 18.9603 33.7471 21.0014C34.2536 21.3344 34.5654 21.8936 34.5654 22.5V25.5612C34.5654 26.2749 33.9868 26.8536 33.273 26.8536H29.0924C27.1146 26.8536 25.2496 27.7755 24.0486 29.3469L9.04459 50.1678C8.54115 50.8665 7.73249 51.2806 6.87119 51.2806H5.02378C2.24931 51.2804 0 53.5297 0 56.3043C0 59.079 2.24916 61.3281 5.02378 61.3281H9.959C6.91414 63.0292 4.85399 66.2821 4.85399 70.0177C4.85399 75.5123 9.30826 79.9665 14.8028 79.9665H56.9505L23.8402 61.6207C21.2082 60.5999 18.4044 60.0688 15.5667 60.0688H15.3716C15.7605 59.7581 16.1129 59.397 16.4147 58.9873L25.9544 44.7819V57.3031C26.0007 57.325 26.0472 57.3456 26.0927 57.3707L40.1123 65.141L53.194 57.2933V44.7819L62.7581 58.8117C63.0736 59.2402 63.4441 59.6157 63.8541 59.9354C60.2373 59.9895 56.4177 60.9832 53.194 62.7738V62.7579L44.8471 67.7652L66.2695 79.6383C70.8431 78.7419 74.2944 74.7133 74.2944 69.8772V69.8294C74.2944 66.0768 72.216 62.833 69.1483 61.1527H74.9762C77.7508 61.1527 80 58.9036 80 56.1289C80 53.3542 77.7507 51.105 74.9761 51.105Z" fill="#F6F6F6"/>
</g>
<defs>
<clipPath id="clip0_1029_2664">
<rect width="80" height="80" fill="white"/>
</clipPath>
</defs>
</svg>
