<svg width="80" height="80" viewBox="0 0 80 80" fill="none" xmlns="http://www.w3.org/2000/svg">
<g clip-path="url(#clip0_1029_2663)">
<path d="M34.9125 18.7322L34.8672 18.4854L35.0391 18.7104C35.0359 18.7104 35.0313 18.7119 35.0281 18.7119H35.0266C34.9891 18.7197 34.95 18.726 34.9125 18.7322Z" fill="#F6F6F6"/>
<path d="M34.8672 18.4854L35.0391 18.7104C35.0359 18.7104 35.0313 18.7119 35.0281 18.7119H35.0266C34.9891 18.7197 34.95 18.726 34.9125 18.7322L34.8672 18.4854Z" fill="#F6F6F6"/>
<path d="M59.9977 6.84815C59.8852 8.17002 59.3524 9.42315 58.5352 10.4669L47.368 24.7356L50.0493 39.181L27.2868 39.2325L25.3774 28.9247L9.60709 19.395C8.56177 18.7638 7.67427 17.8903 7.08677 16.82C5.02427 13.0653 7.02896 8.5669 11.8821 7.66065L20.5727 6.00752C19.9196 8.05752 19.7493 10.2919 20.1711 12.5497C21.3618 18.9247 26.9258 23.5513 33.3993 23.5513C34.9869 23.5528 36.6244 23.2597 38.1024 22.706C44.1337 20.4669 47.8711 14.1325 46.6493 7.59659C46.2321 5.36065 45.2758 3.3419 43.9336 1.66065L52.0602 0.1419C56.8086 -0.748725 60.3508 2.68096 59.9977 6.84815Z" fill="#F6F6F6"/>
<path d="M55.4297 67.9734V74.7656C55.4297 77.6548 53.0897 80.0003 50.2 80C47.3109 80 44.9688 77.6562 44.9688 74.7656V59.0391H52.1547L55.4297 67.9734Z" fill="#F6F6F6"/>
<path d="M68.4906 80.0004C66.2766 80.0004 64.2984 78.6051 63.5578 76.5145L55.4344 54.352H38.4219C31.3922 54.352 29.4781 48.7379 28.5938 43.9238L56.4641 43.8535C60.2906 43.8535 63.7016 46.266 64.9797 49.877L73.4266 73.0255C74.625 76.4316 72.0984 80.0004 68.4906 80.0004Z" fill="#F6F6F6"/>
<path d="M42.0394 8.45839C41.1503 3.70121 36.59 0.563081 31.8394 1.42589C31.8248 1.42886 31.8089 1.43167 31.7944 1.43464C27.0262 2.32792 23.8855 6.91792 24.7759 11.6896C25.668 16.46 30.253 19.6039 35.0209 18.7121H35.0223C39.7891 17.8201 42.9314 13.2287 42.0394 8.45839Z" fill="#F6F6F6"/>
<path d="M28.0062 54.3511H15.4563L9.01562 24.5088L21.2188 31.8885L24.0063 44.9057C24.7114 48.1086 25.7517 51.6041 28.0062 54.3511Z" fill="#F6F6F6"/>
<path d="M40.2859 59.0406V63.7266H36.8438V77.5906C36.8438 78.8516 35.8766 79.9375 34.6187 79.9969C33.275 80.0609 32.1641 78.9875 32.1641 77.6562V63.7266H20.6641V77.5906C20.6641 78.8531 19.6938 79.9391 18.4344 79.9969C17.0906 80.0594 15.9844 78.9875 15.9844 77.6562V59.0391L40.2859 59.0406Z" fill="#F6F6F6"/>
</g>
<defs>
<clipPath id="clip0_1029_2663">
<rect width="80" height="80" fill="white"/>
</clipPath>
</defs>
</svg>
