<svg width="33" height="31" viewBox="0 0 33 31" fill="none" xmlns="http://www.w3.org/2000/svg">
<path fill-rule="evenodd" clip-rule="evenodd" d="M8.17948 1.43313C10.9869 0.641633 13.9036 2.2734 14.6943 5.07779L19.4663 22.0037C20.2569 24.8081 18.622 27.7232 15.8147 28.5147L13.1789 29.2578C10.3715 30.0493 7.45475 28.4175 6.6641 25.6131L1.89211 8.68715C1.10146 5.88276 2.73635 2.96773 5.54373 2.17623L8.17948 1.43313ZM7.11058 7.01287C7.28628 7.63607 7.93445 7.99869 8.55832 7.8228C9.18218 7.64691 9.54549 6.99912 9.36979 6.37593C9.19409 5.75273 8.54591 5.39012 7.92205 5.566C7.29819 5.74189 6.93488 6.38968 7.11058 7.01287ZM3.34523 8.07445C3.52093 8.69765 4.16911 9.06026 4.79297 8.88438C5.41683 8.70849 5.78014 8.0607 5.60444 7.43751C5.42874 6.81431 4.78056 6.45169 4.1567 6.62758C3.53284 6.80347 3.16953 7.45125 3.34523 8.07445Z" fill="#ECBE58"/>
<path fill-rule="evenodd" clip-rule="evenodd" d="M27.1826 1.3068C30.0988 1.3654 32.4154 3.77445 32.3569 6.68757L32.0036 24.2698C31.9451 27.1829 29.5335 29.497 26.6173 29.4384L23.8793 29.3834C20.9631 29.3248 18.6465 26.9157 18.705 24.0026L19.0583 6.42035C19.1169 3.50722 21.5284 1.19318 24.4446 1.25178L27.1826 1.3068ZM24.5381 6.33502C24.5251 6.98238 25.0399 7.51773 25.688 7.53075C26.336 7.54377 26.8719 7.02954 26.8849 6.38218C26.898 5.73482 26.3832 5.19947 25.7351 5.18645C25.087 5.17343 24.5512 5.68766 24.5381 6.33502ZM20.6268 6.25643C20.6138 6.90379 21.1286 7.43913 21.7766 7.45215C22.4247 7.46518 22.9606 6.95094 22.9736 6.30358C22.9866 5.65622 22.4718 5.12088 21.8238 5.10786C21.1757 5.09483 20.6398 5.60907 20.6268 6.25643Z" fill="#E28355"/>
</svg>
