<svg width="41" height="41" fill="none" xmlns="http://www.w3.org/2000/svg"><path d="M25.2 7.408a16.892 16.892 0 0 0-.883 1.834c-2.529-.4-5.105-.4-7.634 0a16.892 16.892 0 0 0-.883-1.834 26.666 26.666 0 0 0-6.883 2.167 28.883 28.883 0 0 0-5 19.317 27.665 27.665 0 0 0 8.45 4.316 21.486 21.486 0 0 0 1.85-2.9 16.087 16.087 0 0 1-2.85-1.383c.247-.165.481-.349.7-.55a19.433 19.433 0 0 0 16.866 0c.234.2.467.383.7.55a18.06 18.06 0 0 1-2.85 1.4 20.694 20.694 0 0 0 1.8 2.966 27.401 27.401 0 0 0 8.434-4.316 28.7 28.7 0 0 0-5-19.317 26.817 26.817 0 0 0-6.817-2.25ZM14.967 24.991a3.233 3.233 0 0 1-3-3.333 3.216 3.216 0 0 1 3-3.333 3.217 3.217 0 0 1 3 3.333 3.217 3.217 0 0 1-3 3.333Zm11.066 0a3.233 3.233 0 0 1-3-3.333 3.217 3.217 0 0 1 3-3.333 3.2 3.2 0 0 1 3 3.333 3.2 3.2 0 0 1-3 3.333Z" fill="#F6F6F6"/></svg>