<svg width="24" height="25" fill="none" xmlns="http://www.w3.org/2000/svg"><path d="m22.033 7.96-8.56-5.13a1.477 1.477 0 0 0-1.725.12L.55 11.987c-.36.288-.551.72-.551 1.175v2.685c0 .527.288 1.03.72 1.294l8.223 4.94c.335.215.695.31 1.079.31.455 0 .934-.167 1.318-.455l10.885-8.798c.36-.288.575-.72.575-1.175v-2.71a1.588 1.588 0 0 0-.767-1.294Zm-11.244-.695 1.534-1.27a.615.615 0 0 1 .72-.049l4.506 2.71a.63.63 0 0 1 .073 1.03l-1.559 1.27a.615.615 0 0 1-.72.049l-4.482-2.71a.629.629 0 0 1-.072-1.03Zm10.764 4.699c0 .096-.048.168-.12.24l-10.86 8.774a.83.83 0 0 1-.983.072l-8.223-4.963c-.096-.047-.144-.143-.144-.263v-2.038l8.08 4.867c.239.144.503.216.766.216.336 0 .672-.12.935-.336l10.55-8.511v1.942Z" fill="#454545"/></svg>