<svg width="38" height="34" viewBox="0 0 38 34" fill="none" xmlns="http://www.w3.org/2000/svg">
<path d="M36.7213 9.74184L22.4564 1.19084C21.5373 0.631432 20.3785 0.711347 19.5794 1.39063L0.919033 16.4548C0.319663 16.9343 0 17.6535 0 18.4127V22.888C0 23.7671 0.479495 24.6062 1.19874 25.0457L14.9043 33.2771C15.4637 33.6367 16.0631 33.7965 16.7024 33.7965C17.4616 33.7965 18.2608 33.5168 18.9001 33.0373L37.041 18.3728C37.6404 17.8933 38 17.174 38 16.4148V11.8996C37.96 11.0205 37.4805 10.1814 36.7213 9.74184ZM17.9811 8.58306L20.5384 6.46529C20.898 6.18559 21.3775 6.14563 21.7371 6.38538L29.2492 10.9006C29.8885 11.3002 29.9285 12.1793 29.3691 12.6188L26.7718 14.7366C26.4122 15.0163 25.9327 15.0562 25.5731 14.8165L18.1009 10.3013C17.4616 9.90167 17.4217 9.06256 17.9811 8.58306ZM35.9222 16.4148C35.9222 16.5746 35.8423 16.6945 35.7224 16.8144L17.6215 31.439C17.142 31.8386 16.5026 31.8785 15.9832 31.5589L2.2776 23.2876C2.11777 23.2077 2.03785 23.0478 2.03785 22.848V19.4516L15.5037 27.5631C15.9033 27.8028 16.3428 27.9227 16.7823 27.9227C17.3417 27.9227 17.9012 27.7229 18.3407 27.3633L35.9222 13.1782V16.4148Z" fill="#F6F6F6"/>
</svg>
