<svg width="40" height="41" fill="none" xmlns="http://www.w3.org/2000/svg"><path d="M37.721 12.742 23.456 4.19c-.919-.56-2.078-.48-2.877.2L1.92 19.455c-.6.48-.919 1.199-.919 1.958v4.475c0 .88.48 1.718 1.199 2.158l13.705 8.231c.56.36 1.16.52 1.798.52.76 0 1.559-.28 2.198-.76l18.141-14.664c.6-.48.959-1.199.959-1.958V14.9c-.04-.88-.52-1.719-1.279-2.158Zm-18.74-1.159 2.557-2.118c.36-.28.84-.32 1.2-.08l7.511 4.516c.64.4.68 1.278.12 1.718l-2.597 2.118c-.36.28-.84.32-1.199.08L19.101 13.3c-.64-.4-.68-1.238-.12-1.718Zm17.941 7.832c0 .16-.08.28-.2.4l-18.1 14.624c-.48.4-1.12.44-1.639.12L3.278 26.288c-.16-.08-.24-.24-.24-.44v-3.396l13.466 8.111c.4.24.839.36 1.278.36.56 0 1.12-.2 1.559-.56l17.581-14.185v3.237Z" fill="#F6F6F6"/></svg>