<svg width="41" height="41" fill="none" xmlns="http://www.w3.org/2000/svg"><g clip-path="url(#a)"><path d="M20.5 3.642c-9.208 0-16.666 7.458-16.666 16.666A16.657 16.657 0 0 0 15.23 36.122c.834.145 1.145-.355 1.145-.794 0-.395-.021-1.706-.021-3.103-4.187.772-5.27-1.02-5.604-1.958-.188-.48-1-1.959-1.708-2.355-.583-.312-1.417-1.084-.022-1.104 1.314-.021 2.25 1.209 2.564 1.709 1.5 2.52 3.896 1.811 4.853 1.375.146-1.084.583-1.812 1.063-2.229-3.708-.416-7.583-1.855-7.583-8.23 0-1.813.645-3.311 1.708-4.48-.166-.416-.75-2.125.167-4.416 0 0 1.395-.437 4.583 1.71a15.463 15.463 0 0 1 4.167-.564c1.416 0 2.833.187 4.166.562 3.187-2.167 4.584-1.707 4.584-1.707.916 2.292.333 4 .166 4.417 1.062 1.167 1.709 2.645 1.709 4.478 0 6.397-3.895 7.814-7.604 8.23.604.52 1.126 1.52 1.126 3.084 0 2.228-.022 4.02-.022 4.583 0 .437.313.957 1.146.79a16.693 16.693 0 0 0 11.354-15.812c0-9.208-7.459-16.666-16.667-16.666Z" fill="#F6F6F6"/></g><defs><clipPath id="a"><path fill="#fff" transform="translate(.5 .309)" d="M0 0h40v40H0z"/></clipPath></defs></svg>