<svg width="65" height="64" fill="none" xmlns="http://www.w3.org/2000/svg"><g clip-path="url(#a)"><path d="M60.48 40.884h-2.145c-.685 0-1.33-.328-1.733-.882L44.58 23.477a5.079 5.079 0 0 0-4.035-1.994H37.9a1.034 1.034 0 0 1-1.034-1.034v-2.45c0-.483.248-.93.652-1.196a9.127 9.127 0 0 0 4.126-7.75c-.059-4.99-4.187-9.048-9.178-9.026a9.135 9.135 0 0 0-4.97 16.774c.406.267.655.714.655 1.199v2.449c0 .57-.463 1.034-1.034 1.034h-3.344a5.079 5.079 0 0 0-4.035 1.994L7.736 40.135c-.403.56-1.05.89-1.739.89H4.519a4.019 4.019 0 1 0 0 8.038h3.948a7.96 7.96 0 0 0 3.875 14.91H46.06L19.572 49.298a18.303 18.303 0 0 0-6.619-1.242h-.156a4.6 4.6 0 0 0 .835-.865l7.632-11.364v10.017c.037.017.074.033.11.054l11.216 6.216 10.465-6.278v-10.01l7.651 11.224a4.6 4.6 0 0 0 .877.9c-2.893.043-5.949.838-8.528 2.27v-.013l-6.677 4.006 17.138 9.499a7.96 7.96 0 0 0 6.42-7.81v-.037a7.896 7.896 0 0 0-4.117-6.942h4.662a4.019 4.019 0 1 0 0-8.038Z" fill="#F6F6F6"/></g><defs><clipPath id="a"><path fill="#fff" transform="translate(.5)" d="M0 0h64v64H0z"/></clipPath></defs></svg>