<svg width="65" height="64" fill="none" xmlns="http://www.w3.org/2000/svg"><g clip-path="url(#a)" fill="#F6F6F6"><path d="m28.43 14.986-.036-.198.137.18-.009.002-.092.016Z"/><path d="m28.394 14.788.137.18-.009.002-.092.016-.036-.198Z"/><path d="M48.498 5.479c-.09 1.057-.516 2.06-1.17 2.895l-8.934 11.414 2.145 11.557-18.21.041-1.527-8.246-12.616-7.624c-.837-.505-1.547-1.204-2.017-2.06-1.65-3.004-.046-6.602 3.837-7.327l6.952-1.323a10.712 10.712 0 0 0-.321 5.234c.952 5.1 5.404 8.801 10.582 8.801 1.27.001 2.58-.233 3.763-.676 4.825-1.791 7.815-6.859 6.837-12.088a10.758 10.758 0 0 0-2.172-4.748L42.148.114c3.799-.713 6.633 2.03 6.35 5.365ZM44.844 54.379v5.434A4.186 4.186 0 0 1 40.66 64a4.186 4.186 0 0 1-4.185-4.188v-12.58h5.749l2.62 7.147Z"/><path d="M55.292 64a4.188 4.188 0 0 1-3.946-2.788l-6.498-17.73h-13.61c-5.624 0-7.155-4.492-7.863-8.343l22.296-.056c3.062 0 5.79 1.93 6.813 4.819L59.24 58.42C60.2 61.145 58.18 64 55.292 64ZM34.131 6.767a7.026 7.026 0 0 0-8.16-5.626l-.036.007a7.032 7.032 0 0 0 2.582 13.822 7.03 7.03 0 0 0 5.614-8.203ZM22.905 43.48h-10.04L7.712 19.608l9.763 5.904 2.23 10.413c.564 2.563 1.396 5.36 3.2 7.557Z"/><path d="M32.729 47.232v3.75h-2.754v11.09c0 1.01-.774 1.878-1.78 1.925a1.874 1.874 0 0 1-1.964-1.872V50.98h-9.2v11.091c0 1.01-.776 1.88-1.783 1.925a1.872 1.872 0 0 1-1.96-1.872V47.23l19.44.001Z"/></g><defs><clipPath id="a"><path fill="#fff" transform="translate(.5)" d="M0 0h64v64H0z"/></clipPath></defs></svg>