<svg width="65" height="64" fill="none" xmlns="http://www.w3.org/2000/svg"><g clip-path="url(#a)" fill="#F6F6F6"><path d="M32.5 19.807c-6.724 0-12.194 5.47-12.194 12.194 0 6.724 5.47 12.194 12.195 12.194 6.723 0 12.193-5.47 12.193-12.194 0-6.724-5.47-12.194-12.194-12.194Zm7.24 9.898-8.736 8.735a1.873 1.873 0 0 1-2.655 0l-3.339-3.338a1.877 1.877 0 1 1 2.655-2.655l2.011 2.01 7.409-7.408a1.877 1.877 0 1 1 2.655 2.656Z"/><path d="m59.686 17.365-.002-.05a66.712 66.712 0 0 1-.058-1.989c-.052-3.529-2.857-6.447-6.386-6.645-7.359-.41-13.051-2.81-17.915-7.55l-.041-.04a4.096 4.096 0 0 0-5.567 0l-.041.04C24.812 5.87 19.12 8.27 11.76 8.68c-3.529.198-6.334 3.117-6.387 6.646-.01.719-.03 1.369-.057 1.988l-.003.116c-.143 7.503-.32 16.841 2.803 25.317 1.718 4.662 4.32 8.713 7.732 12.044 3.887 3.793 8.978 6.804 15.13 8.95A4.671 4.671 0 0 0 32.5 64a4.594 4.594 0 0 0 1.523-.26c6.146-2.149 11.232-5.161 15.115-8.954 3.411-3.331 6.013-7.384 7.732-12.046 3.136-8.502 2.958-17.858 2.816-25.375ZM32.499 47.95c-8.795 0-15.95-7.155-15.95-15.95 0-8.795 7.155-15.95 15.95-15.95 8.795 0 15.95 7.155 15.95 15.95 0 8.795-7.155 15.95-15.95 15.95Z"/></g><defs><clipPath id="a"><path fill="#fff" transform="translate(.5)" d="M0 0h64v64H0z"/></clipPath></defs></svg>