<svg width="65" height="64" fill="none" xmlns="http://www.w3.org/2000/svg"><g clip-path="url(#a)" fill="#F6F6F6"><path d="M11.166 23.467H2.633A2.133 2.133 0 0 0 .5 25.601v34.132c0 1.178.955 2.133 2.133 2.133h8.533a2.133 2.133 0 0 0 2.134-2.133V25.6a2.133 2.133 0 0 0-2.134-2.133ZM64.458 29.122c-.376-3.31-3.467-5.655-6.798-5.655H41.03c1.413-2.53 2.172-9.69 2.138-12.613-.056-4.84-4.064-8.72-8.905-8.72h-1.76c-1.18 0-2.133.954-2.133 2.134 0 4.933-1.921 13.837-5.544 17.46-2.438 2.438-4.523 3.321-7.256 4.688v32.01c4.185 1.394 9.498 3.44 17.597 3.44H49.12c4.598 0 8.18-4.258 6.398-8.758a6.41 6.41 0 0 0 4.716-6.175c0-.831-.16-1.627-.45-2.358 4.575-1.247 6.259-6.895 3.084-10.442a6.387 6.387 0 0 0 1.59-5.011Z"/></g><defs><clipPath id="a"><path fill="#fff" transform="translate(.5)" d="M0 0h64v64H0z"/></clipPath></defs></svg>