<svg width="65" height="64" fill="none" xmlns="http://www.w3.org/2000/svg"><path d="M51.875 34.25a2.25 2.25 0 1 0 0-4.5 2.25 2.25 0 0 0 0 4.5Z" fill="#F6F6F6"/><path d="M59.497 25.23H48.27A6.778 6.778 0 0 0 41.5 32a6.778 6.778 0 0 0 6.77 6.77h11.227a2.753 2.753 0 0 0 2.75-2.75v-8.04a2.753 2.753 0 0 0-2.75-2.75Zm-7.624 10.52a3.754 3.754 0 0 1-3.75-3.75 3.754 3.754 0 0 1 3.75-3.75 3.754 3.754 0 0 1 3.75 3.75 3.754 3.754 0 0 1-3.75 3.75Z" fill="#F6F6F6"/><path d="M40.003 32c0-4.56 3.71-8.27 8.27-8.27h9.432V13.83c0-2.62-2.13-4.75-4.75-4.75H7.5c-2.62 0-4.75 2.13-4.75 4.75V24.25h5.857l1.945-4.565a.751.751 0 0 1 .69-.456h5.015a3.756 3.756 0 0 1 3.669-2.98 3.754 3.754 0 0 1 3.75 3.75 3.754 3.754 0 0 1-3.75 3.75 3.755 3.755 0 0 1-3.676-3.02h-4.512l-1.944 4.565a.751.751 0 0 1-.69.456H2.75v5.5h13.502c.348-1.71 1.863-3 3.674-3a3.754 3.754 0 0 1 3.75 3.75 3.754 3.754 0 0 1-3.75 3.75 3.756 3.756 0 0 1-3.674-3H2.75v5.5h6.354c.3 0 .572.18.69.456l1.944 4.564h4.512a3.755 3.755 0 0 1 3.676-3.02 3.754 3.754 0 0 1 3.75 3.75 3.754 3.754 0 0 1-3.75 3.75 3.756 3.756 0 0 1-3.669-2.98h-5.015c-.3 0-.572-.18-.69-.456L8.607 39.75H2.75v10.419c0 2.62 2.13 4.75 4.75 4.75h45.455c2.62 0 4.75-2.13 4.75-4.75V40.27h-9.432c-4.56 0-8.27-3.71-8.27-8.27Z" fill="#F6F6F6"/><path d="M19.925 46.25a2.25 2.25 0 1 0 0-4.5 2.25 2.25 0 0 0 0 4.5ZM19.925 22.25a2.25 2.25 0 1 0 0-4.5 2.25 2.25 0 0 0 0 4.5ZM19.925 34.25a2.25 2.25 0 1 0 0-4.5 2.25 2.25 0 0 0 0 4.5Z" fill="#F6F6F6"/></svg>